<ttFont>
    <TTGlyph name="A" xMin="-11" yMin="0" xMax="579" yMax="703">
      <contour>
        <pt x="148" y="0" on="1"/>
        <pt x="-11" y="0" on="1"/>
        <pt x="190" y="703" on="1"/>
        <pt x="378" y="703" on="1"/>
        <pt x="579" y="0" on="1"/>
        <pt x="420" y="0" on="1"/>
        <pt x="380" y="156" on="1"/>
        <pt x="188" y="156" on="1"/>
      </contour>
      <contour>
        <pt x="350" y="288" on="1"/>
        <pt x="287" y="559" on="1"/>
        <pt x="281" y="559" on="1"/>
        <pt x="218" y="288" on="1"/>
      </contour>
    </TTGlyph>
    <TTGlyph name="AE" xMin="-17" yMin="0" xMax="803" yMax="703">
      <contour>
        <pt x="381" y="0" on="1"/>
        <pt x="381" y="156" on="1"/>
        <pt x="210" y="156" on="1"/>
        <pt x="142" y="0" on="1"/>
        <pt x="-17" y="0" on="1"/>
        <pt x="301" y="703" on="1"/>
        <pt x="803" y="703" on="1"/>
        <pt x="803" y="567" on="1"/>
        <pt x="537" y="570" on="1"/>
        <pt x="533" y="422" on="1"/>
        <pt x="778" y="422" on="1"/>
        <pt x="778" y="290" on="1"/>
        <pt x="533" y="290" on="1"/>
        <pt x="537" y="132" on="1"/>
        <pt x="803" y="134" on="1"/>
        <pt x="803" y="0" on="1"/>
      </contour>
      <contour>
        <pt x="381" y="288" on="1"/>
        <pt x="381" y="549" on="1"/>
        <pt x="363" y="549" on="1"/>
        <pt x="251" y="288" on="1"/>
      </contour>
    </TTGlyph>
    <TTGlyph name="Aacute" xMin="-11" yMin="0" xMax="579" yMax="910">
      <contour>
        <pt x="148" y="0" on="1"/>
        <pt x="-11" y="0" on="1"/>
        <pt x="190" y="703" on="1"/>
        <pt x="378" y="703" on="1"/>
        <pt x="579" y="0" on="1"/>
        <pt x="420" y="0" on="1"/>
        <pt x="380" y="156" on="1"/>
        <pt x="188" y="156" on="1"/>
      </contour>
      <contour>
        <pt x="350" y="288" on="1"/>
        <pt x="287" y="559" on="1"/>
        <pt x="281" y="559" on="1"/>
        <pt x="218" y="288" on="1"/>
      </contour>
      <contour>
        <pt x="430" y="910" on="1"/>
        <pt x="458" y="800" on="1"/>
        <pt x="156" y="750" on="1"/>
        <pt x="136" y="833" on="1"/>
      </contour>
    </TTGlyph>
    <TTGlyph name="Acircumflex" xMin="-11" yMin="0" xMax="579" yMax="905">
      <contour>
        <pt x="148" y="0" on="1"/>
        <pt x="-11" y="0" on="1"/>
        <pt x="190" y="703" on="1"/>
        <pt x="378" y="703" on="1"/>
        <pt x="579" y="0" on="1"/>
        <pt x="420" y="0" on="1"/>
        <pt x="380" y="156" on="1"/>
        <pt x="188" y="156" on="1"/>
      </contour>
      <contour>
        <pt x="350" y="288" on="1"/>
        <pt x="287" y="559" on="1"/>
        <pt x="281" y="559" on="1"/>
        <pt x="218" y="288" on="1"/>
      </contour>
      <contour>
        <pt x="488" y="805" on="1"/>
        <pt x="455" y="744" on="1"/>
        <pt x="288" y="803" on="1"/>
        <pt x="281" y="803" on="1"/>
        <pt x="114" y="744" on="1"/>
        <pt x="81" y="805" on="1"/>
        <pt x="248" y="905" on="1"/>
        <pt x="321" y="905" on="1"/>
      </contour>
    </TTGlyph>
    <TTGlyph name="Adieresis" xMin="-11" yMin="0" xMax="579" yMax="874">
      <contour>
        <pt x="148" y="0" on="1"/>
        <pt x="-11" y="0" on="1"/>
        <pt x="190" y="703" on="1"/>
        <pt x="378" y="703" on="1"/>
        <pt x="579" y="0" on="1"/>
        <pt x="420" y="0" on="1"/>
        <pt x="380" y="156" on="1"/>
        <pt x="188" y="156" on="1"/>
      </contour>
      <contour>
        <pt x="350" y="288" on="1"/>
        <pt x="287" y="559" on="1"/>
        <pt x="281" y="559" on="1"/>
        <pt x="218" y="288" on="1"/>
      </contour>
      <contour>
        <pt x="235" y="766" on="1"/>
        <pt x="88" y="766" on="1"/>
        <pt x="88" y="874" on="1"/>
        <pt x="235" y="874" on="1"/>
      </contour>
      <contour>
        <pt x="480" y="766" on="1"/>
        <pt x="333" y="766" on="1"/>
        <pt x="333" y="874" on="1"/>
        <pt x="480" y="874" on="1"/>
      </contour>
    </TTGlyph>
    <TTGlyph name="Agrave" xMin="-11" yMin="0" xMax="579" yMax="909">
      <contour>
        <pt x="148" y="0" on="1"/>
        <pt x="-11" y="0" on="1"/>
        <pt x="190" y="703" on="1"/>
        <pt x="378" y="703" on="1"/>
        <pt x="579" y="0" on="1"/>
        <pt x="420" y="0" on="1"/>
        <pt x="380" y="156" on="1"/>
        <pt x="188" y="156" on="1"/>
      </contour>
      <contour>
        <pt x="350" y="288" on="1"/>
        <pt x="287" y="559" on="1"/>
        <pt x="281" y="559" on="1"/>
        <pt x="218" y="288" on="1"/>
      </contour>
      <contour>
        <pt x="123" y="799" on="1"/>
        <pt x="148" y="909" on="1"/>
        <pt x="447" y="835" on="1"/>
        <pt x="430" y="752" on="1"/>
      </contour>
    </TTGlyph>
    <TTGlyph name="Aring" xMin="-11" yMin="0" xMax="579" yMax="922">
      <contour>
        <pt x="148" y="0" on="1"/>
        <pt x="-11" y="0" on="1"/>
        <pt x="190" y="703" on="1"/>
        <pt x="378" y="703" on="1"/>
        <pt x="579" y="0" on="1"/>
        <pt x="420" y="0" on="1"/>
        <pt x="380" y="156" on="1"/>
        <pt x="188" y="156" on="1"/>
      </contour>
      <contour>
        <pt x="350" y="288" on="1"/>
        <pt x="287" y="559" on="1"/>
        <pt x="281" y="559" on="1"/>
        <pt x="218" y="288" on="1"/>
      </contour>
      <contour>
        <pt x="285" y="922" on="1"/>
        <pt x="391" y="922" on="0"/>
        <pt x="391" y="827" on="1"/>
        <pt x="391" y="777" on="0"/>
        <pt x="331" y="733" on="0"/>
        <pt x="240" y="733" on="0"/>
        <pt x="178" y="777" on="0"/>
        <pt x="178" y="878" on="0"/>
        <pt x="239" y="922" on="0"/>
      </contour>
      <contour>
        <pt x="305" y="857" on="0"/>
        <pt x="265" y="857" on="0"/>
        <pt x="249" y="845" on="0"/>
        <pt x="249" y="810" on="0"/>
        <pt x="266" y="797" on="0"/>
        <pt x="304" y="797" on="0"/>
        <pt x="320" y="810" on="0"/>
        <pt x="320" y="845" on="0"/>
      </contour>
    </TTGlyph>
    <TTGlyph name="Atilde" xMin="-11" yMin="0" xMax="579" yMax="886">
      <contour>
        <pt x="148" y="0" on="1"/>
        <pt x="-11" y="0" on="1"/>
        <pt x="190" y="703" on="1"/>
        <pt x="378" y="703" on="1"/>
        <pt x="579" y="0" on="1"/>
        <pt x="420" y="0" on="1"/>
        <pt x="380" y="156" on="1"/>
        <pt x="188" y="156" on="1"/>
      </contour>
      <contour>
        <pt x="350" y="288" on="1"/>
        <pt x="287" y="559" on="1"/>
        <pt x="281" y="559" on="1"/>
        <pt x="218" y="288" on="1"/>
      </contour>
      <contour>
        <pt x="178" y="886" on="1"/>
        <pt x="212" y="886" on="0"/>
        <pt x="372" y="843" on="0"/>
        <pt x="389" y="843" on="0"/>
        <pt x="405" y="863" on="0"/>
        <pt x="413" y="883" on="1"/>
        <pt x="488" y="871" on="1"/>
        <pt x="485" y="746" on="0"/>
        <pt x="393" y="746" on="1"/>
        <pt x="360" y="746" on="0"/>
        <pt x="198" y="791" on="0"/>
        <pt x="190" y="791" on="1"/>
        <pt x="175" y="791" on="0"/>
        <pt x="162" y="760" on="1"/>
        <pt x="157" y="750" on="1"/>
        <pt x="81" y="760" on="1"/>
        <pt x="84" y="886" on="0"/>
      </contour>
    </TTGlyph>
    <TTGlyph name="B" xMin="83" yMin="-13" xMax="593" yMax="716">
      <contour>
        <pt x="337" y="716" on="1"/>
        <pt x="575" y="716" on="0"/>
        <pt x="575" y="517" on="1"/>
        <pt x="575" y="462" on="0"/>
        <pt x="527" y="390" on="0"/>
        <pt x="493" y="373" on="1"/>
        <pt x="493" y="367" on="1"/>
        <pt x="593" y="325" on="0"/>
        <pt x="593" y="216" on="1"/>
        <pt x="593" y="85" on="0"/>
        <pt x="514" y="32" on="1"/>
        <pt x="445" y="-13" on="0"/>
        <pt x="243" y="-13" on="0"/>
        <pt x="83" y="6" on="1"/>
        <pt x="88" y="329" on="1"/>
        <pt x="83" y="702" on="1"/>
        <pt x="236" y="716" on="0"/>
      </contour>
      <contour>
        <pt x="242" y="119" on="1"/>
        <pt x="302" y="113" on="0"/>
        <pt x="396" y="113" on="0"/>
        <pt x="430" y="159" on="0"/>
        <pt x="430" y="264" on="0"/>
        <pt x="381" y="304" on="0"/>
        <pt x="333" y="304" on="1"/>
        <pt x="241" y="304" on="1"/>
      </contour>
      <contour>
        <pt x="240" y="426" on="1"/>
        <pt x="341" y="426" on="1"/>
        <pt x="383" y="426" on="0"/>
        <pt x="415" y="464" on="0"/>
        <pt x="415" y="556" on="0"/>
        <pt x="378" y="593" on="0"/>
        <pt x="334" y="593" on="1"/>
        <pt x="240" y="589" on="1"/>
      </contour>
    </TTGlyph>
    <TTGlyph name="C" xMin="50" yMin="-13" xMax="583" yMax="716">
      <contour>
        <pt x="538" y="563" on="1"/>
        <pt x="414" y="578" on="0"/>
        <pt x="282" y="578" on="0"/>
        <pt x="259" y="560" on="1"/>
        <pt x="214" y="524" on="0"/>
        <pt x="214" y="342" on="1"/>
        <pt x="214" y="259" on="0"/>
        <pt x="243" y="153" on="0"/>
        <pt x="286" y="121" on="0"/>
        <pt x="371" y="121" on="0"/>
        <pt x="473" y="148" on="0"/>
        <pt x="538" y="174" on="1"/>
        <pt x="583" y="56" on="1"/>
        <pt x="571" y="48" on="0"/>
        <pt x="527" y="25" on="0"/>
        <pt x="397" y="-13" on="0"/>
        <pt x="334" y="-13" on="1"/>
        <pt x="200" y="-13" on="0"/>
        <pt x="50" y="159" on="0"/>
        <pt x="50" y="345" on="1"/>
        <pt x="50" y="521" on="0"/>
        <pt x="106" y="608" on="1"/>
        <pt x="132" y="649" on="0"/>
        <pt x="211" y="698" on="0"/>
        <pt x="296" y="716" on="0"/>
        <pt x="390" y="716" on="0"/>
        <pt x="517" y="701" on="0"/>
        <pt x="555" y="691" on="1"/>
      </contour>
    </TTGlyph>
    <TTGlyph name="Ccedilla" xMin="50" yMin="-179" xMax="583" yMax="716">
      <contour>
        <pt x="538" y="563" on="1"/>
        <pt x="414" y="578" on="0"/>
        <pt x="282" y="578" on="0"/>
        <pt x="259" y="560" on="1"/>
        <pt x="214" y="524" on="0"/>
        <pt x="214" y="342" on="1"/>
        <pt x="214" y="259" on="0"/>
        <pt x="243" y="153" on="0"/>
        <pt x="286" y="121" on="0"/>
        <pt x="371" y="121" on="0"/>
        <pt x="473" y="148" on="0"/>
        <pt x="538" y="174" on="1"/>
        <pt x="583" y="56" on="1"/>
        <pt x="513" y="12" on="0"/>
        <pt x="415" y="-5" on="1"/>
        <pt x="423" y="-35" on="0"/>
        <pt x="423" y="-68" on="1"/>
        <pt x="423" y="-119" on="0"/>
        <pt x="359" y="-179" on="0"/>
        <pt x="302" y="-179" on="1"/>
        <pt x="267" y="-179" on="0"/>
        <pt x="215" y="-170" on="1"/>
        <pt x="215" y="-83" on="1"/>
        <pt x="260" y="-88" on="0"/>
        <pt x="316" y="-88" on="0"/>
        <pt x="336" y="-77" on="0"/>
        <pt x="336" y="-35" on="0"/>
        <pt x="331" y="-13" on="1"/>
        <pt x="50" y="-11" on="0"/>
        <pt x="50" y="345" on="1"/>
        <pt x="50" y="521" on="0"/>
        <pt x="106" y="608" on="1"/>
        <pt x="132" y="649" on="0"/>
        <pt x="211" y="698" on="0"/>
        <pt x="296" y="716" on="0"/>
        <pt x="390" y="716" on="0"/>
        <pt x="517" y="701" on="0"/>
        <pt x="555" y="691" on="1"/>
      </contour>
    </TTGlyph>
    <TTGlyph name="D" xMin="83" yMin="-13" xMax="623" yMax="716">
      <contour>
        <pt x="322" y="-13" on="1"/>
        <pt x="254" y="-13" on="0"/>
        <pt x="83" y="0" on="1"/>
        <pt x="83" y="702" on="1"/>
        <pt x="253" y="716" on="0"/>
        <pt x="404" y="716" on="0"/>
        <pt x="509" y="677" on="0"/>
        <pt x="571" y="614" on="0"/>
        <pt x="590" y="566" on="1"/>
        <pt x="623" y="486" on="0"/>
        <pt x="623" y="360" on="1"/>
        <pt x="623" y="161" on="0"/>
        <pt x="465" y="-13" on="0"/>
      </contour>
      <contour>
        <pt x="239" y="127" on="1"/>
        <pt x="281" y="122" on="0"/>
        <pt x="389" y="122" on="0"/>
        <pt x="410" y="141" on="1"/>
        <pt x="456" y="179" on="0"/>
        <pt x="456" y="533" on="0"/>
        <pt x="413" y="565" on="1"/>
        <pt x="391" y="582" on="0"/>
        <pt x="336" y="582" on="1"/>
        <pt x="239" y="576" on="1"/>
      </contour>
    </TTGlyph>
    <TTGlyph name="E" xMin="83" yMin="0" xMax="505" yMax="703">
      <contour>
        <pt x="83" y="0" on="1"/>
        <pt x="83" y="703" on="1"/>
        <pt x="505" y="703" on="1"/>
        <pt x="505" y="569" on="1"/>
        <pt x="239" y="572" on="1"/>
        <pt x="235" y="422" on="1"/>
        <pt x="480" y="422" on="1"/>
        <pt x="480" y="290" on="1"/>
        <pt x="235" y="290" on="1"/>
        <pt x="239" y="132" on="1"/>
        <pt x="505" y="134" on="1"/>
        <pt x="505" y="0" on="1"/>
      </contour>
    </TTGlyph>
    <TTGlyph name="Eacute" xMin="83" yMin="0" xMax="505" yMax="910">
      <contour>
        <pt x="83" y="0" on="1"/>
        <pt x="83" y="703" on="1"/>
        <pt x="505" y="703" on="1"/>
        <pt x="505" y="567" on="1"/>
        <pt x="239" y="570" on="1"/>
        <pt x="235" y="422" on="1"/>
        <pt x="480" y="422" on="1"/>
        <pt x="480" y="290" on="1"/>
        <pt x="235" y="290" on="1"/>
        <pt x="239" y="132" on="1"/>
        <pt x="505" y="134" on="1"/>
        <pt x="505" y="0" on="1"/>
      </contour>
      <contour>
        <pt x="397" y="910" on="1"/>
        <pt x="425" y="800" on="1"/>
        <pt x="123" y="750" on="1"/>
        <pt x="103" y="833" on="1"/>
      </contour>
    </TTGlyph>
    <TTGlyph name="Ecircumflex" xMin="78" yMin="0" xMax="505" yMax="905">
      <contour>
        <pt x="83" y="0" on="1"/>
        <pt x="83" y="703" on="1"/>
        <pt x="505" y="703" on="1"/>
        <pt x="505" y="567" on="1"/>
        <pt x="239" y="570" on="1"/>
        <pt x="235" y="422" on="1"/>
        <pt x="480" y="422" on="1"/>
        <pt x="480" y="290" on="1"/>
        <pt x="235" y="290" on="1"/>
        <pt x="239" y="132" on="1"/>
        <pt x="505" y="134" on="1"/>
        <pt x="505" y="0" on="1"/>
      </contour>
      <contour>
        <pt x="485" y="805" on="1"/>
        <pt x="452" y="744" on="1"/>
        <pt x="285" y="803" on="1"/>
        <pt x="278" y="803" on="1"/>
        <pt x="111" y="744" on="1"/>
        <pt x="78" y="805" on="1"/>
        <pt x="245" y="905" on="1"/>
        <pt x="318" y="905" on="1"/>
      </contour>
    </TTGlyph>
    <TTGlyph name="Edieresis" xMin="83" yMin="0" xMax="505" yMax="874">
      <contour>
        <pt x="83" y="0" on="1"/>
        <pt x="83" y="703" on="1"/>
        <pt x="505" y="703" on="1"/>
        <pt x="505" y="567" on="1"/>
        <pt x="239" y="570" on="1"/>
        <pt x="235" y="422" on="1"/>
        <pt x="480" y="422" on="1"/>
        <pt x="480" y="290" on="1"/>
        <pt x="235" y="290" on="1"/>
        <pt x="239" y="132" on="1"/>
        <pt x="505" y="134" on="1"/>
        <pt x="505" y="0" on="1"/>
      </contour>
      <contour>
        <pt x="246" y="766" on="1"/>
        <pt x="99" y="766" on="1"/>
        <pt x="99" y="874" on="1"/>
        <pt x="246" y="874" on="1"/>
      </contour>
      <contour>
        <pt x="491" y="766" on="1"/>
        <pt x="344" y="766" on="1"/>
        <pt x="344" y="874" on="1"/>
        <pt x="491" y="874" on="1"/>
      </contour>
    </TTGlyph>
    <TTGlyph name="Egrave" xMin="83" yMin="0" xMax="505" yMax="909">
      <contour>
        <pt x="83" y="0" on="1"/>
        <pt x="83" y="703" on="1"/>
        <pt x="505" y="703" on="1"/>
        <pt x="505" y="567" on="1"/>
        <pt x="239" y="570" on="1"/>
        <pt x="235" y="422" on="1"/>
        <pt x="480" y="422" on="1"/>
        <pt x="480" y="290" on="1"/>
        <pt x="235" y="290" on="1"/>
        <pt x="239" y="132" on="1"/>
        <pt x="505" y="134" on="1"/>
        <pt x="505" y="0" on="1"/>
      </contour>
      <contour>
        <pt x="122" y="799" on="1"/>
        <pt x="147" y="909" on="1"/>
        <pt x="446" y="835" on="1"/>
        <pt x="429" y="752" on="1"/>
      </contour>
    </TTGlyph>
    <TTGlyph name="Eth" xMin="30" yMin="-13" xMax="636" yMax="716">
      <contour>
        <pt x="30" y="299" on="1"/>
        <pt x="30" y="415" on="1"/>
        <pt x="96" y="415" on="1"/>
        <pt x="96" y="702" on="1"/>
        <pt x="266" y="716" on="0"/>
        <pt x="417" y="716" on="0"/>
        <pt x="522" y="677" on="0"/>
        <pt x="584" y="614" on="0"/>
        <pt x="604" y="566" on="1"/>
        <pt x="636" y="486" on="0"/>
        <pt x="636" y="360" on="1"/>
        <pt x="636" y="161" on="0"/>
        <pt x="478" y="-13" on="0"/>
        <pt x="335" y="-13" on="1"/>
        <pt x="267" y="-13" on="0"/>
        <pt x="96" y="0" on="1"/>
        <pt x="96" y="299" on="1"/>
      </contour>
      <contour>
        <pt x="252" y="415" on="1"/>
        <pt x="374" y="415" on="1"/>
        <pt x="374" y="299" on="1"/>
        <pt x="252" y="299" on="1"/>
        <pt x="252" y="125" on="1"/>
        <pt x="294" y="120" on="0"/>
        <pt x="402" y="120" on="0"/>
        <pt x="423" y="139" on="1"/>
        <pt x="469" y="177" on="0"/>
        <pt x="469" y="532" on="0"/>
        <pt x="426" y="564" on="1"/>
        <pt x="404" y="581" on="0"/>
        <pt x="349" y="581" on="1"/>
        <pt x="252" y="575" on="1"/>
      </contour>
    </TTGlyph>
    <TTGlyph name="Euro" xMin="24" yMin="-13" xMax="602" yMax="716">
      <contour>
        <pt x="24" y="226" on="1"/>
        <pt x="24" y="324" on="1"/>
        <pt x="522" y="324" on="1"/>
        <pt x="522" y="226" on="1"/>
        <pt x="255" y="226" on="1"/>
        <pt x="268" y="156" on="0"/>
        <pt x="294" y="139" on="1"/>
        <pt x="317" y="121" on="0"/>
        <pt x="364" y="121" on="1"/>
        <pt x="451" y="121" on="0"/>
        <pt x="565" y="150" on="1"/>
        <pt x="602" y="36" on="1"/>
        <pt x="592" y="31" on="0"/>
        <pt x="555" y="14" on="0"/>
        <pt x="432" y="-13" on="0"/>
        <pt x="365" y="-13" on="1"/>
        <pt x="134" y="-13" on="0"/>
        <pt x="91" y="226" on="1"/>
      </contour>
      <contour>
        <pt x="24" y="389" on="1"/>
        <pt x="24" y="487" on="1"/>
        <pt x="92" y="487" on="1"/>
        <pt x="118" y="621" on="0"/>
        <pt x="198" y="672" on="1"/>
        <pt x="270" y="716" on="0"/>
        <pt x="382" y="716" on="1"/>
        <pt x="421" y="716" on="0"/>
        <pt x="548" y="701" on="0"/>
        <pt x="586" y="691" on="1"/>
        <pt x="569" y="564" on="1"/>
        <pt x="454" y="578" on="0"/>
        <pt x="312" y="578" on="0"/>
        <pt x="266" y="541" on="0"/>
        <pt x="255" y="487" on="1"/>
        <pt x="522" y="487" on="1"/>
        <pt x="522" y="389" on="1"/>
      </contour>
    </TTGlyph>
    <TTGlyph name="F" xMin="83" yMin="0" xMax="505" yMax="703">
      <contour>
        <pt x="473" y="419" on="1"/>
        <pt x="473" y="287" on="1"/>
        <pt x="235" y="287" on="1"/>
        <pt x="240" y="0" on="1"/>
        <pt x="83" y="0" on="1"/>
        <pt x="83" y="703" on="1"/>
        <pt x="505" y="703" on="1"/>
        <pt x="505" y="567" on="1"/>
        <pt x="238" y="570" on="1"/>
        <pt x="235" y="419" on="1"/>
      </contour>
    </TTGlyph>
    <TTGlyph name="G" xMin="50" yMin="-13" xMax="583" yMax="716">
      <contour>
        <pt x="256" y="559" on="1"/>
        <pt x="214" y="521" on="0"/>
        <pt x="214" y="186" on="0"/>
        <pt x="258" y="142" on="1"/>
        <pt x="284" y="118" on="0"/>
        <pt x="402" y="118" on="0"/>
        <pt x="430" y="124" on="1"/>
        <pt x="430" y="275" on="1"/>
        <pt x="328" y="282" on="1"/>
        <pt x="328" y="395" on="1"/>
        <pt x="583" y="395" on="1"/>
        <pt x="583" y="33" on="1"/>
        <pt x="540" y="15" on="0"/>
        <pt x="407" y="-13" on="0"/>
        <pt x="297" y="-13" on="0"/>
        <pt x="214" y="4" on="0"/>
        <pt x="135" y="53" on="0"/>
        <pt x="108" y="92" on="1"/>
        <pt x="50" y="180" on="0"/>
        <pt x="50" y="354" on="1"/>
        <pt x="50" y="572" on="0"/>
        <pt x="138" y="648" on="1"/>
        <pt x="183" y="687" on="0"/>
        <pt x="290" y="716" on="0"/>
        <pt x="476" y="716" on="0"/>
        <pt x="582" y="690" on="1"/>
        <pt x="564" y="563" on="1"/>
        <pt x="429" y="578" on="0"/>
        <pt x="278" y="578" on="0"/>
      </contour>
    </TTGlyph>
    <TTGlyph name="H" xMin="83" yMin="0" xMax="623" yMax="703">
      <contour>
        <pt x="83" y="0" on="1"/>
        <pt x="83" y="703" on="1"/>
        <pt x="240" y="703" on="1"/>
        <pt x="237" y="424" on="1"/>
        <pt x="469" y="424" on="1"/>
        <pt x="466" y="703" on="1"/>
        <pt x="623" y="703" on="1"/>
        <pt x="623" y="0" on="1"/>
        <pt x="466" y="0" on="1"/>
        <pt x="469" y="290" on="1"/>
        <pt x="237" y="290" on="1"/>
        <pt x="240" y="0" on="1"/>
      </contour>
    </TTGlyph>
    <TTGlyph name="I" xMin="83" yMin="0" xMax="241" yMax="703">
      <contour>
        <pt x="238" y="390" on="1"/>
        <pt x="241" y="0" on="1"/>
        <pt x="83" y="0" on="1"/>
        <pt x="87" y="324" on="1"/>
        <pt x="83" y="703" on="1"/>
        <pt x="241" y="703" on="1"/>
      </contour>
    </TTGlyph>
    <TTGlyph name="IJ" xMin="83" yMin="-13" xMax="612" yMax="703">
      <contour>
        <pt x="238" y="390" on="1"/>
        <pt x="241" y="0" on="1"/>
        <pt x="83" y="0" on="1"/>
        <pt x="87" y="324" on="1"/>
        <pt x="83" y="703" on="1"/>
        <pt x="241" y="703" on="1"/>
      </contour>
      <contour>
        <pt x="612" y="703" on="1"/>
        <pt x="612" y="247" on="1"/>
        <pt x="612" y="-13" on="0"/>
        <pt x="407" y="-13" on="1"/>
        <pt x="367" y="-13" on="0"/>
        <pt x="311" y="-3" on="1"/>
        <pt x="326" y="130" on="1"/>
        <pt x="371" y="121" on="0"/>
        <pt x="427" y="121" on="0"/>
        <pt x="436" y="128" on="1"/>
        <pt x="455" y="144" on="0"/>
        <pt x="455" y="245" on="1"/>
        <pt x="455" y="703" on="1"/>
      </contour>
    </TTGlyph>
    <TTGlyph name="Iacute" xMin="29" yMin="0" xMax="339" yMax="910">
      <contour>
        <pt x="313" y="910" on="1"/>
        <pt x="339" y="800" on="1"/>
        <pt x="47" y="750" on="1"/>
        <pt x="29" y="833" on="1"/>
      </contour>
      <contour>
        <pt x="238" y="390" on="1"/>
        <pt x="241" y="0" on="1"/>
        <pt x="83" y="0" on="1"/>
        <pt x="87" y="324" on="1"/>
        <pt x="83" y="703" on="1"/>
        <pt x="241" y="703" on="1"/>
      </contour>
    </TTGlyph>
    <TTGlyph name="Icircumflex" xMin="-25" yMin="0" xMax="347" yMax="905">
      <contour>
        <pt x="347" y="815" on="1"/>
        <pt x="314" y="750" on="1"/>
        <pt x="165" y="803" on="1"/>
        <pt x="158" y="803" on="1"/>
        <pt x="8" y="750" on="1"/>
        <pt x="-25" y="815" on="1"/>
        <pt x="125" y="905" on="1"/>
        <pt x="198" y="905" on="1"/>
      </contour>
      <contour>
        <pt x="238" y="390" on="1"/>
        <pt x="241" y="0" on="1"/>
        <pt x="83" y="0" on="1"/>
        <pt x="87" y="324" on="1"/>
        <pt x="83" y="703" on="1"/>
        <pt x="241" y="703" on="1"/>
      </contour>
    </TTGlyph>
    <TTGlyph name="Idieresis" xMin="-19" yMin="0" xMax="343" yMax="874">
      <contour>
        <pt x="124" y="766" on="1"/>
        <pt x="-19" y="766" on="1"/>
        <pt x="-19" y="874" on="1"/>
        <pt x="124" y="874" on="1"/>
      </contour>
      <contour>
        <pt x="343" y="766" on="1"/>
        <pt x="200" y="766" on="1"/>
        <pt x="200" y="874" on="1"/>
        <pt x="343" y="874" on="1"/>
      </contour>
      <contour>
        <pt x="238" y="390" on="1"/>
        <pt x="241" y="0" on="1"/>
        <pt x="83" y="0" on="1"/>
        <pt x="87" y="324" on="1"/>
        <pt x="83" y="703" on="1"/>
        <pt x="241" y="703" on="1"/>
      </contour>
    </TTGlyph>
    <TTGlyph name="Igrave" xMin="-21" yMin="0" xMax="289" yMax="909">
      <contour>
        <pt x="-21" y="799" on="1"/>
        <pt x="5" y="909" on="1"/>
        <pt x="289" y="834" on="1"/>
        <pt x="271" y="751" on="1"/>
      </contour>
      <contour>
        <pt x="238" y="390" on="1"/>
        <pt x="241" y="0" on="1"/>
        <pt x="83" y="0" on="1"/>
        <pt x="87" y="324" on="1"/>
        <pt x="83" y="703" on="1"/>
        <pt x="241" y="703" on="1"/>
      </contour>
    </TTGlyph>
    <TTGlyph name="Itilde" xMin="-20" yMin="0" xMax="343" yMax="886">
      <contour>
        <pt x="64" y="886" on="1"/>
        <pt x="93" y="886" on="0"/>
        <pt x="232" y="843" on="0"/>
        <pt x="240" y="843" on="1"/>
        <pt x="254" y="843" on="0"/>
        <pt x="264" y="873" on="1"/>
        <pt x="268" y="883" on="1"/>
        <pt x="343" y="871" on="1"/>
        <pt x="340" y="746" on="0"/>
        <pt x="260" y="746" on="1"/>
        <pt x="232" y="746" on="0"/>
        <pt x="93" y="791" on="0"/>
        <pt x="86" y="791" on="1"/>
        <pt x="72" y="791" on="0"/>
        <pt x="56" y="750" on="1"/>
        <pt x="-20" y="760" on="1"/>
        <pt x="-17" y="886" on="0"/>
      </contour>
      <contour>
        <pt x="238" y="390" on="1"/>
        <pt x="241" y="0" on="1"/>
        <pt x="83" y="0" on="1"/>
        <pt x="87" y="324" on="1"/>
        <pt x="83" y="703" on="1"/>
        <pt x="241" y="703" on="1"/>
      </contour>
    </TTGlyph>
    <TTGlyph name="J" xMin="-21" yMin="-13" xMax="280" yMax="703">
      <contour>
        <pt x="280" y="703" on="1"/>
        <pt x="280" y="247" on="1"/>
        <pt x="280" y="-13" on="0"/>
        <pt x="75" y="-13" on="1"/>
        <pt x="30" y="-13" on="0"/>
        <pt x="-21" y="-2" on="1"/>
        <pt x="-6" y="131" on="1"/>
        <pt x="44" y="121" on="0"/>
        <pt x="95" y="121" on="0"/>
        <pt x="104" y="128" on="1"/>
        <pt x="123" y="144" on="0"/>
        <pt x="123" y="245" on="1"/>
        <pt x="123" y="703" on="1"/>
      </contour>
    </TTGlyph>
    <TTGlyph name="Jcircumflex" xMin="-21" yMin="-13" xMax="378" yMax="905">
      <contour>
        <pt x="378" y="815" on="1"/>
        <pt x="345" y="750" on="1"/>
        <pt x="196" y="803" on="1"/>
        <pt x="189" y="803" on="1"/>
        <pt x="39" y="750" on="1"/>
        <pt x="6" y="815" on="1"/>
        <pt x="156" y="905" on="1"/>
        <pt x="229" y="905" on="1"/>
      </contour>
      <contour>
        <pt x="280" y="703" on="1"/>
        <pt x="280" y="247" on="1"/>
        <pt x="280" y="-13" on="0"/>
        <pt x="75" y="-13" on="1"/>
        <pt x="35" y="-13" on="0"/>
        <pt x="-21" y="-3" on="1"/>
        <pt x="-6" y="130" on="1"/>
        <pt x="39" y="121" on="0"/>
        <pt x="95" y="121" on="0"/>
        <pt x="104" y="128" on="1"/>
        <pt x="123" y="144" on="0"/>
        <pt x="123" y="245" on="1"/>
        <pt x="123" y="703" on="1"/>
      </contour>
    </TTGlyph>
    <TTGlyph name="K" xMin="83" yMin="0" xMax="689" yMax="703">
      <contour>
        <pt x="494" y="0" on="1"/>
        <pt x="243" y="369" on="1"/>
        <pt x="469" y="703" on="1"/>
        <pt x="660" y="703" on="1"/>
        <pt x="408" y="374" on="1"/>
        <pt x="408" y="368" on="1"/>
        <pt x="689" y="0" on="1"/>
      </contour>
      <contour>
        <pt x="241" y="703" on="1"/>
        <pt x="241" y="0" on="1"/>
        <pt x="83" y="0" on="1"/>
        <pt x="86" y="358" on="1"/>
        <pt x="83" y="703" on="1"/>
      </contour>
    </TTGlyph>
    <TTGlyph name="L" xMin="83" yMin="0" xMax="494" yMax="703">
      <contour>
        <pt x="83" y="0" on="1"/>
        <pt x="83" y="703" on="1"/>
        <pt x="240" y="703" on="1"/>
        <pt x="235" y="135" on="1"/>
        <pt x="494" y="137" on="1"/>
        <pt x="494" y="0" on="1"/>
      </contour>
    </TTGlyph>
    <TTGlyph name="Ldotaccent" xMin="83" yMin="0" xMax="494" yMax="703">
      <contour>
        <pt x="83" y="0" on="1"/>
        <pt x="83" y="703" on="1"/>
        <pt x="240" y="703" on="1"/>
        <pt x="235" y="135" on="1"/>
        <pt x="494" y="137" on="1"/>
        <pt x="494" y="0" on="1"/>
      </contour>
      <contour>
        <pt x="325" y="350" on="1"/>
        <pt x="325" y="484" on="1"/>
        <pt x="494" y="484" on="1"/>
        <pt x="494" y="350" on="1"/>
      </contour>
    </TTGlyph>
    <TTGlyph name="Lslash" xMin="14" yMin="0" xMax="496" yMax="703">
      <contour>
        <pt x="85" y="703" on="1"/>
        <pt x="242" y="703" on="1"/>
        <pt x="240" y="451" on="1"/>
        <pt x="387" y="535" on="1"/>
        <pt x="387" y="426" on="1"/>
        <pt x="239" y="342" on="1"/>
        <pt x="237" y="135" on="1"/>
        <pt x="496" y="137" on="1"/>
        <pt x="496" y="0" on="1"/>
        <pt x="85" y="0" on="1"/>
        <pt x="85" y="256" on="1"/>
        <pt x="14" y="216" on="1"/>
        <pt x="14" y="324" on="1"/>
        <pt x="85" y="364" on="1"/>
      </contour>
    </TTGlyph>
    <TTGlyph name="M" xMin="79" yMin="0" xMax="764" yMax="703">
      <contour>
        <pt x="501" y="162" on="1"/>
        <pt x="343" y="162" on="1"/>
        <pt x="235" y="527" on="1"/>
        <pt x="229" y="527" on="1"/>
        <pt x="235" y="0" on="1"/>
        <pt x="79" y="0" on="1"/>
        <pt x="103" y="703" on="1"/>
        <pt x="304" y="703" on="1"/>
        <pt x="418" y="310" on="1"/>
        <pt x="424" y="310" on="1"/>
        <pt x="537" y="703" on="1"/>
        <pt x="737" y="703" on="1"/>
        <pt x="764" y="0" on="1"/>
        <pt x="608" y="0" on="1"/>
        <pt x="612" y="527" on="1"/>
        <pt x="606" y="527" on="1"/>
      </contour>
    </TTGlyph>
    <TTGlyph name="N" xMin="83" yMin="0" xMax="635" yMax="703">
      <contour>
        <pt x="83" y="703" on="1"/>
        <pt x="279" y="703" on="1"/>
        <pt x="496" y="204" on="1"/>
        <pt x="502" y="204" on="1"/>
        <pt x="490" y="703" on="1"/>
        <pt x="635" y="703" on="1"/>
        <pt x="635" y="0" on="1"/>
        <pt x="439" y="0" on="1"/>
        <pt x="222" y="499" on="1"/>
        <pt x="216" y="499" on="1"/>
        <pt x="228" y="0" on="1"/>
        <pt x="83" y="0" on="1"/>
      </contour>
    </TTGlyph>
    <TTGlyph name="Nacute" xMin="83" yMin="0" xMax="635" yMax="910">
      <contour>
        <pt x="83" y="703" on="1"/>
        <pt x="279" y="703" on="1"/>
        <pt x="496" y="204" on="1"/>
        <pt x="502" y="204" on="1"/>
        <pt x="490" y="703" on="1"/>
        <pt x="635" y="703" on="1"/>
        <pt x="635" y="0" on="1"/>
        <pt x="439" y="0" on="1"/>
        <pt x="222" y="499" on="1"/>
        <pt x="216" y="499" on="1"/>
        <pt x="228" y="0" on="1"/>
        <pt x="83" y="0" on="1"/>
      </contour>
      <contour>
        <pt x="500" y="910" on="1"/>
        <pt x="528" y="800" on="1"/>
        <pt x="226" y="750" on="1"/>
        <pt x="206" y="833" on="1"/>
      </contour>
    </TTGlyph>
    <TTGlyph name="Ntilde" xMin="83" yMin="0" xMax="635" yMax="886">
      <contour>
        <pt x="83" y="703" on="1"/>
        <pt x="279" y="703" on="1"/>
        <pt x="496" y="204" on="1"/>
        <pt x="502" y="204" on="1"/>
        <pt x="490" y="703" on="1"/>
        <pt x="635" y="703" on="1"/>
        <pt x="635" y="0" on="1"/>
        <pt x="439" y="0" on="1"/>
        <pt x="222" y="499" on="1"/>
        <pt x="216" y="499" on="1"/>
        <pt x="228" y="0" on="1"/>
        <pt x="83" y="0" on="1"/>
      </contour>
      <contour>
        <pt x="250" y="886" on="1"/>
        <pt x="284" y="886" on="0"/>
        <pt x="444" y="843" on="0"/>
        <pt x="461" y="843" on="0"/>
        <pt x="477" y="863" on="0"/>
        <pt x="485" y="883" on="1"/>
        <pt x="560" y="871" on="1"/>
        <pt x="557" y="746" on="0"/>
        <pt x="465" y="746" on="1"/>
        <pt x="432" y="746" on="0"/>
        <pt x="270" y="791" on="0"/>
        <pt x="262" y="791" on="1"/>
        <pt x="247" y="791" on="0"/>
        <pt x="234" y="760" on="1"/>
        <pt x="229" y="750" on="1"/>
        <pt x="153" y="760" on="1"/>
        <pt x="156" y="886" on="0"/>
      </contour>
    </TTGlyph>
    <TTGlyph name="O" xMin="50" yMin="-13" xMax="650" yMax="716">
      <contour>
        <pt x="416" y="-13" on="0"/>
        <pt x="284" y="-13" on="0"/>
        <pt x="183" y="19" on="0"/>
        <pt x="140" y="58" on="1"/>
        <pt x="50" y="138" on="0"/>
        <pt x="50" y="353" on="1"/>
        <pt x="50" y="595" on="0"/>
        <pt x="174" y="673" on="1"/>
        <pt x="241" y="716" on="0"/>
        <pt x="350" y="716" on="1"/>
        <pt x="521" y="716" on="0"/>
        <pt x="592" y="608" on="1"/>
        <pt x="650" y="520" on="0"/>
        <pt x="650" y="353" on="1"/>
        <pt x="650" y="138" on="0"/>
        <pt x="560" y="58" on="1"/>
        <pt x="517" y="19" on="0"/>
      </contour>
      <contour>
        <pt x="243" y="546" on="0"/>
        <pt x="213" y="447" on="0"/>
        <pt x="213" y="256" on="0"/>
        <pt x="244" y="156" on="0"/>
        <pt x="299" y="125" on="0"/>
        <pt x="401" y="125" on="0"/>
        <pt x="428" y="141" on="1"/>
        <pt x="487" y="175" on="0"/>
        <pt x="487" y="351" on="1"/>
        <pt x="487" y="529" on="0"/>
        <pt x="430" y="562" on="1"/>
        <pt x="402" y="578" on="0"/>
        <pt x="298" y="578" on="0"/>
      </contour>
    </TTGlyph>
    <TTGlyph name="OE" xMin="50" yMin="-13" xMax="924" yMax="716">
      <contour>
        <pt x="502" y="0" on="1"/>
        <pt x="502" y="25" on="1"/>
        <pt x="498" y="25" on="1"/>
        <pt x="429" y="-13" on="0"/>
        <pt x="284" y="-13" on="0"/>
        <pt x="183" y="19" on="0"/>
        <pt x="140" y="58" on="1"/>
        <pt x="50" y="138" on="0"/>
        <pt x="50" y="353" on="1"/>
        <pt x="50" y="595" on="0"/>
        <pt x="174" y="673" on="1"/>
        <pt x="241" y="716" on="0"/>
        <pt x="350" y="716" on="1"/>
        <pt x="430" y="716" on="0"/>
        <pt x="498" y="679" on="1"/>
        <pt x="502" y="679" on="1"/>
        <pt x="502" y="703" on="1"/>
        <pt x="924" y="703" on="1"/>
        <pt x="924" y="567" on="1"/>
        <pt x="658" y="570" on="1"/>
        <pt x="654" y="422" on="1"/>
        <pt x="899" y="422" on="1"/>
        <pt x="899" y="290" on="1"/>
        <pt x="654" y="290" on="1"/>
        <pt x="658" y="132" on="1"/>
        <pt x="924" y="134" on="1"/>
        <pt x="924" y="0" on="1"/>
      </contour>
      <contour>
        <pt x="243" y="546" on="0"/>
        <pt x="213" y="447" on="0"/>
        <pt x="213" y="256" on="0"/>
        <pt x="244" y="156" on="0"/>
        <pt x="299" y="125" on="0"/>
        <pt x="401" y="125" on="0"/>
        <pt x="428" y="141" on="1"/>
        <pt x="487" y="175" on="0"/>
        <pt x="487" y="351" on="1"/>
        <pt x="487" y="529" on="0"/>
        <pt x="430" y="562" on="1"/>
        <pt x="402" y="578" on="0"/>
        <pt x="298" y="578" on="0"/>
      </contour>
    </TTGlyph>
    <TTGlyph name="Oacute" xMin="50" yMin="-13" xMax="650" yMax="910">
      <contour>
        <pt x="416" y="-13" on="0"/>
        <pt x="284" y="-13" on="0"/>
        <pt x="183" y="19" on="0"/>
        <pt x="140" y="58" on="1"/>
        <pt x="50" y="138" on="0"/>
        <pt x="50" y="353" on="1"/>
        <pt x="50" y="595" on="0"/>
        <pt x="174" y="673" on="1"/>
        <pt x="241" y="716" on="0"/>
        <pt x="350" y="716" on="1"/>
        <pt x="521" y="716" on="0"/>
        <pt x="592" y="608" on="1"/>
        <pt x="650" y="520" on="0"/>
        <pt x="650" y="353" on="1"/>
        <pt x="650" y="138" on="0"/>
        <pt x="560" y="58" on="1"/>
        <pt x="517" y="19" on="0"/>
      </contour>
      <contour>
        <pt x="243" y="546" on="0"/>
        <pt x="213" y="447" on="0"/>
        <pt x="213" y="256" on="0"/>
        <pt x="244" y="156" on="0"/>
        <pt x="299" y="125" on="0"/>
        <pt x="401" y="125" on="0"/>
        <pt x="428" y="141" on="1"/>
        <pt x="487" y="175" on="0"/>
        <pt x="487" y="351" on="1"/>
        <pt x="487" y="529" on="0"/>
        <pt x="430" y="562" on="1"/>
        <pt x="402" y="578" on="0"/>
        <pt x="298" y="578" on="0"/>
      </contour>
      <contour>
        <pt x="472" y="910" on="1"/>
        <pt x="500" y="800" on="1"/>
        <pt x="198" y="750" on="1"/>
        <pt x="178" y="833" on="1"/>
      </contour>
    </TTGlyph>
    <TTGlyph name="Ocircumflex" xMin="50" yMin="-13" xMax="650" yMax="905">
      <contour>
        <pt x="416" y="-13" on="0"/>
        <pt x="284" y="-13" on="0"/>
        <pt x="183" y="19" on="0"/>
        <pt x="140" y="58" on="1"/>
        <pt x="50" y="138" on="0"/>
        <pt x="50" y="353" on="1"/>
        <pt x="50" y="595" on="0"/>
        <pt x="174" y="673" on="1"/>
        <pt x="241" y="716" on="0"/>
        <pt x="350" y="716" on="1"/>
        <pt x="521" y="716" on="0"/>
        <pt x="592" y="608" on="1"/>
        <pt x="650" y="520" on="0"/>
        <pt x="650" y="353" on="1"/>
        <pt x="650" y="138" on="0"/>
        <pt x="560" y="58" on="1"/>
        <pt x="517" y="19" on="0"/>
      </contour>
      <contour>
        <pt x="243" y="546" on="0"/>
        <pt x="213" y="447" on="0"/>
        <pt x="213" y="256" on="0"/>
        <pt x="244" y="156" on="0"/>
        <pt x="299" y="125" on="0"/>
        <pt x="401" y="125" on="0"/>
        <pt x="428" y="141" on="1"/>
        <pt x="487" y="175" on="0"/>
        <pt x="487" y="351" on="1"/>
        <pt x="487" y="529" on="0"/>
        <pt x="430" y="562" on="1"/>
        <pt x="402" y="578" on="0"/>
        <pt x="298" y="578" on="0"/>
      </contour>
      <contour>
        <pt x="553" y="805" on="1"/>
        <pt x="520" y="744" on="1"/>
        <pt x="353" y="803" on="1"/>
        <pt x="346" y="803" on="1"/>
        <pt x="179" y="744" on="1"/>
        <pt x="146" y="805" on="1"/>
        <pt x="313" y="905" on="1"/>
        <pt x="386" y="905" on="1"/>
      </contour>
    </TTGlyph>
    <TTGlyph name="Odieresis" xMin="50" yMin="-13" xMax="650" yMax="874">
      <contour>
        <pt x="416" y="-13" on="0"/>
        <pt x="284" y="-13" on="0"/>
        <pt x="183" y="19" on="0"/>
        <pt x="140" y="58" on="1"/>
        <pt x="50" y="138" on="0"/>
        <pt x="50" y="353" on="1"/>
        <pt x="50" y="595" on="0"/>
        <pt x="174" y="673" on="1"/>
        <pt x="241" y="716" on="0"/>
        <pt x="350" y="716" on="1"/>
        <pt x="521" y="716" on="0"/>
        <pt x="592" y="608" on="1"/>
        <pt x="650" y="520" on="0"/>
        <pt x="650" y="353" on="1"/>
        <pt x="650" y="138" on="0"/>
        <pt x="560" y="58" on="1"/>
        <pt x="517" y="19" on="0"/>
      </contour>
      <contour>
        <pt x="243" y="546" on="0"/>
        <pt x="213" y="447" on="0"/>
        <pt x="213" y="256" on="0"/>
        <pt x="244" y="156" on="0"/>
        <pt x="299" y="125" on="0"/>
        <pt x="401" y="125" on="0"/>
        <pt x="428" y="141" on="1"/>
        <pt x="487" y="175" on="0"/>
        <pt x="487" y="351" on="1"/>
        <pt x="487" y="529" on="0"/>
        <pt x="430" y="562" on="1"/>
        <pt x="402" y="578" on="0"/>
        <pt x="298" y="578" on="0"/>
      </contour>
      <contour>
        <pt x="301" y="766" on="1"/>
        <pt x="154" y="766" on="1"/>
        <pt x="154" y="874" on="1"/>
        <pt x="301" y="874" on="1"/>
      </contour>
      <contour>
        <pt x="546" y="766" on="1"/>
        <pt x="399" y="766" on="1"/>
        <pt x="399" y="874" on="1"/>
        <pt x="546" y="874" on="1"/>
      </contour>
    </TTGlyph>
    <TTGlyph name="Ograve" xMin="50" yMin="-13" xMax="650" yMax="909">
      <contour>
        <pt x="416" y="-13" on="0"/>
        <pt x="284" y="-13" on="0"/>
        <pt x="183" y="19" on="0"/>
        <pt x="140" y="58" on="1"/>
        <pt x="50" y="138" on="0"/>
        <pt x="50" y="353" on="1"/>
        <pt x="50" y="595" on="0"/>
        <pt x="174" y="673" on="1"/>
        <pt x="241" y="716" on="0"/>
        <pt x="350" y="716" on="1"/>
        <pt x="521" y="716" on="0"/>
        <pt x="592" y="608" on="1"/>
        <pt x="650" y="520" on="0"/>
        <pt x="650" y="353" on="1"/>
        <pt x="650" y="138" on="0"/>
        <pt x="560" y="58" on="1"/>
        <pt x="517" y="19" on="0"/>
      </contour>
      <contour>
        <pt x="243" y="546" on="0"/>
        <pt x="213" y="447" on="0"/>
        <pt x="213" y="256" on="0"/>
        <pt x="244" y="156" on="0"/>
        <pt x="299" y="125" on="0"/>
        <pt x="401" y="125" on="0"/>
        <pt x="428" y="141" on="1"/>
        <pt x="487" y="175" on="0"/>
        <pt x="487" y="351" on="1"/>
        <pt x="487" y="529" on="0"/>
        <pt x="430" y="562" on="1"/>
        <pt x="402" y="578" on="0"/>
        <pt x="298" y="578" on="0"/>
      </contour>
      <contour>
        <pt x="200" y="799" on="1"/>
        <pt x="225" y="909" on="1"/>
        <pt x="524" y="835" on="1"/>
        <pt x="507" y="752" on="1"/>
      </contour>
    </TTGlyph>
    <TTGlyph name="Oslash" xMin="50" yMin="-39" xMax="650" yMax="729">
      <contour>
        <pt x="50" y="353" on="1"/>
        <pt x="50" y="595" on="0"/>
        <pt x="174" y="673" on="1"/>
        <pt x="241" y="716" on="0"/>
        <pt x="350" y="716" on="1"/>
        <pt x="404" y="716" on="0"/>
        <pt x="452" y="704" on="1"/>
        <pt x="463" y="729" on="1"/>
        <pt x="579" y="729" on="1"/>
        <pt x="545" y="659" on="1"/>
        <pt x="650" y="574" on="0"/>
        <pt x="650" y="353" on="1"/>
        <pt x="650" y="138" on="0"/>
        <pt x="560" y="58" on="1"/>
        <pt x="517" y="19" on="0"/>
        <pt x="416" y="-13" on="0"/>
        <pt x="287" y="-13" on="0"/>
        <pt x="239" y="1" on="1"/>
        <pt x="221" y="-39" on="1"/>
        <pt x="104" y="-39" on="1"/>
        <pt x="147" y="50" on="1"/>
        <pt x="50" y="139" on="0"/>
      </contour>
      <contour>
        <pt x="298" y="130" on="1"/>
        <pt x="317" y="125" on="0"/>
        <pt x="401" y="125" on="0"/>
        <pt x="428" y="141" on="1"/>
        <pt x="487" y="175" on="0"/>
        <pt x="487" y="351" on="1"/>
        <pt x="487" y="453" on="0"/>
        <pt x="471" y="502" on="1"/>
        <pt x="388" y="328" on="1"/>
      </contour>
      <contour>
        <pt x="243" y="546" on="0"/>
        <pt x="213" y="447" on="0"/>
        <pt x="213" y="262" on="0"/>
        <pt x="225" y="212" on="1"/>
        <pt x="297" y="359" on="1"/>
        <pt x="394" y="575" on="1"/>
        <pt x="375" y="578" on="0"/>
        <pt x="298" y="578" on="0"/>
      </contour>
    </TTGlyph>
    <TTGlyph name="Otilde" xMin="50" yMin="-13" xMax="650" yMax="886">
      <contour>
        <pt x="416" y="-13" on="0"/>
        <pt x="284" y="-13" on="0"/>
        <pt x="183" y="19" on="0"/>
        <pt x="140" y="58" on="1"/>
        <pt x="50" y="138" on="0"/>
        <pt x="50" y="353" on="1"/>
        <pt x="50" y="595" on="0"/>
        <pt x="174" y="673" on="1"/>
        <pt x="241" y="716" on="0"/>
        <pt x="350" y="716" on="1"/>
        <pt x="521" y="716" on="0"/>
        <pt x="592" y="608" on="1"/>
        <pt x="650" y="520" on="0"/>
        <pt x="650" y="353" on="1"/>
        <pt x="650" y="138" on="0"/>
        <pt x="560" y="58" on="1"/>
        <pt x="517" y="19" on="0"/>
      </contour>
      <contour>
        <pt x="243" y="546" on="0"/>
        <pt x="213" y="447" on="0"/>
        <pt x="213" y="256" on="0"/>
        <pt x="244" y="156" on="0"/>
        <pt x="299" y="125" on="0"/>
        <pt x="401" y="125" on="0"/>
        <pt x="428" y="141" on="1"/>
        <pt x="487" y="175" on="0"/>
        <pt x="487" y="351" on="1"/>
        <pt x="487" y="529" on="0"/>
        <pt x="430" y="562" on="1"/>
        <pt x="402" y="578" on="0"/>
        <pt x="298" y="578" on="0"/>
      </contour>
      <contour>
        <pt x="243" y="886" on="1"/>
        <pt x="277" y="886" on="0"/>
        <pt x="437" y="843" on="0"/>
        <pt x="454" y="843" on="0"/>
        <pt x="470" y="863" on="0"/>
        <pt x="478" y="883" on="1"/>
        <pt x="553" y="871" on="1"/>
        <pt x="550" y="746" on="0"/>
        <pt x="458" y="746" on="1"/>
        <pt x="424" y="746" on="0"/>
        <pt x="263" y="791" on="0"/>
        <pt x="255" y="791" on="1"/>
        <pt x="240" y="791" on="0"/>
        <pt x="226" y="760" on="1"/>
        <pt x="222" y="750" on="1"/>
        <pt x="146" y="760" on="1"/>
        <pt x="149" y="886" on="0"/>
      </contour>
    </TTGlyph>
    <TTGlyph name="P" xMin="83" yMin="0" xMax="584" yMax="716">
      <contour>
        <pt x="83" y="702" on="1"/>
        <pt x="244" y="716" on="0"/>
        <pt x="466" y="716" on="0"/>
        <pt x="584" y="591" on="0"/>
        <pt x="584" y="469" on="1"/>
        <pt x="584" y="321" on="0"/>
        <pt x="505" y="262" on="1"/>
        <pt x="437" y="212" on="0"/>
        <pt x="334" y="212" on="1"/>
        <pt x="240" y="215" on="1"/>
        <pt x="240" y="0" on="1"/>
        <pt x="83" y="0" on="1"/>
        <pt x="87" y="328" on="1"/>
      </contour>
      <contour>
        <pt x="400" y="575" on="1"/>
        <pt x="386" y="589" on="0"/>
        <pt x="282" y="589" on="0"/>
        <pt x="240" y="584" on="1"/>
        <pt x="240" y="351" on="1"/>
        <pt x="282" y="344" on="0"/>
        <pt x="384" y="344" on="0"/>
        <pt x="422" y="379" on="0"/>
        <pt x="422" y="555" on="0"/>
      </contour>
    </TTGlyph>
    <TTGlyph name="Q" xMin="50" yMin="-95" xMax="696" yMax="716">
      <contour>
        <pt x="426" y="-6" on="1"/>
        <pt x="388" y="-13" on="0"/>
        <pt x="279" y="-13" on="0"/>
        <pt x="180" y="20" on="0"/>
        <pt x="96" y="98" on="0"/>
        <pt x="50" y="246" on="0"/>
        <pt x="50" y="460" on="0"/>
        <pt x="96" y="608" on="0"/>
        <pt x="183" y="685" on="0"/>
        <pt x="284" y="716" on="0"/>
        <pt x="417" y="716" on="0"/>
        <pt x="518" y="684" on="0"/>
        <pt x="561" y="646" on="1"/>
        <pt x="650" y="566" on="0"/>
        <pt x="650" y="352" on="1"/>
        <pt x="650" y="167" on="0"/>
        <pt x="564" y="68" on="1"/>
        <pt x="564" y="62" on="1"/>
        <pt x="696" y="31" on="1"/>
        <pt x="654" y="-95" on="1"/>
      </contour>
      <contour>
        <pt x="243" y="546" on="0"/>
        <pt x="213" y="447" on="0"/>
        <pt x="213" y="256" on="0"/>
        <pt x="244" y="156" on="0"/>
        <pt x="299" y="125" on="0"/>
        <pt x="401" y="125" on="0"/>
        <pt x="428" y="140" on="1"/>
        <pt x="487" y="173" on="0"/>
        <pt x="487" y="351" on="1"/>
        <pt x="487" y="528" on="0"/>
        <pt x="430" y="562" on="1"/>
        <pt x="403" y="578" on="0"/>
        <pt x="298" y="578" on="0"/>
      </contour>
    </TTGlyph>
    <TTGlyph name="R" xMin="83" yMin="0" xMax="641" yMax="716">
      <contour>
        <pt x="613" y="482" on="1"/>
        <pt x="613" y="323" on="0"/>
        <pt x="470" y="272" on="1"/>
        <pt x="470" y="266" on="1"/>
        <pt x="641" y="0" on="1"/>
        <pt x="459" y="0" on="1"/>
        <pt x="330" y="250" on="1"/>
        <pt x="240" y="252" on="1"/>
        <pt x="240" y="0" on="1"/>
        <pt x="83" y="0" on="1"/>
        <pt x="87" y="326" on="1"/>
        <pt x="83" y="702" on="1"/>
        <pt x="321" y="716" on="0"/>
        <pt x="349" y="716" on="1"/>
        <pt x="613" y="716" on="0"/>
      </contour>
      <contour>
        <pt x="240" y="382" on="1"/>
        <pt x="308" y="375" on="0"/>
        <pt x="411" y="375" on="0"/>
        <pt x="451" y="424" on="0"/>
        <pt x="451" y="563" on="0"/>
        <pt x="426" y="579" on="1"/>
        <pt x="408" y="591" on="0"/>
        <pt x="285" y="591" on="0"/>
        <pt x="240" y="585" on="1"/>
      </contour>
    </TTGlyph>
    <TTGlyph name="Racute" xMin="83" yMin="0" xMax="641" yMax="910">
      <contour>
        <pt x="613" y="482" on="1"/>
        <pt x="613" y="323" on="0"/>
        <pt x="470" y="272" on="1"/>
        <pt x="470" y="266" on="1"/>
        <pt x="641" y="0" on="1"/>
        <pt x="459" y="0" on="1"/>
        <pt x="330" y="250" on="1"/>
        <pt x="240" y="252" on="1"/>
        <pt x="240" y="0" on="1"/>
        <pt x="83" y="0" on="1"/>
        <pt x="87" y="326" on="1"/>
        <pt x="83" y="702" on="1"/>
        <pt x="321" y="716" on="0"/>
        <pt x="349" y="716" on="1"/>
        <pt x="613" y="716" on="0"/>
      </contour>
      <contour>
        <pt x="240" y="382" on="1"/>
        <pt x="308" y="375" on="0"/>
        <pt x="411" y="375" on="0"/>
        <pt x="451" y="424" on="0"/>
        <pt x="451" y="563" on="0"/>
        <pt x="426" y="579" on="1"/>
        <pt x="408" y="591" on="0"/>
        <pt x="285" y="591" on="0"/>
        <pt x="240" y="585" on="1"/>
      </contour>
      <contour>
        <pt x="469" y="910" on="1"/>
        <pt x="497" y="800" on="1"/>
        <pt x="195" y="750" on="1"/>
        <pt x="175" y="833" on="1"/>
      </contour>
    </TTGlyph>
    <TTGlyph name="Rcaron" xMin="83" yMin="0" xMax="641" yMax="915">
      <contour>
        <pt x="613" y="482" on="1"/>
        <pt x="613" y="323" on="0"/>
        <pt x="470" y="272" on="1"/>
        <pt x="470" y="266" on="1"/>
        <pt x="641" y="0" on="1"/>
        <pt x="459" y="0" on="1"/>
        <pt x="330" y="250" on="1"/>
        <pt x="240" y="252" on="1"/>
        <pt x="240" y="0" on="1"/>
        <pt x="83" y="0" on="1"/>
        <pt x="87" y="326" on="1"/>
        <pt x="83" y="702" on="1"/>
        <pt x="321" y="716" on="0"/>
        <pt x="349" y="716" on="1"/>
        <pt x="613" y="716" on="0"/>
      </contour>
      <contour>
        <pt x="240" y="382" on="1"/>
        <pt x="308" y="375" on="0"/>
        <pt x="411" y="375" on="0"/>
        <pt x="451" y="424" on="0"/>
        <pt x="451" y="563" on="0"/>
        <pt x="426" y="579" on="1"/>
        <pt x="408" y="591" on="0"/>
        <pt x="285" y="591" on="0"/>
        <pt x="240" y="585" on="1"/>
      </contour>
      <contour>
        <pt x="123" y="854" on="1"/>
        <pt x="156" y="915" on="1"/>
        <pt x="323" y="856" on="1"/>
        <pt x="330" y="856" on="1"/>
        <pt x="497" y="915" on="1"/>
        <pt x="530" y="854" on="1"/>
        <pt x="363" y="754" on="1"/>
        <pt x="290" y="754" on="1"/>
      </contour>
    </TTGlyph>
    <TTGlyph name="Rcommaaccent" xMin="83" yMin="-295" xMax="641" yMax="716">
      <contour>
        <pt x="270" y="-136" on="1"/>
        <pt x="270" y="-55" on="1"/>
        <pt x="400" y="-55" on="1"/>
        <pt x="400" y="-88" on="1"/>
        <pt x="400" y="-224" on="0"/>
        <pt x="309" y="-295" on="1"/>
        <pt x="242" y="-263" on="1"/>
        <pt x="270" y="-219" on="0"/>
      </contour>
      <contour>
        <pt x="613" y="482" on="1"/>
        <pt x="613" y="323" on="0"/>
        <pt x="470" y="272" on="1"/>
        <pt x="470" y="266" on="1"/>
        <pt x="641" y="0" on="1"/>
        <pt x="459" y="0" on="1"/>
        <pt x="330" y="250" on="1"/>
        <pt x="240" y="252" on="1"/>
        <pt x="240" y="0" on="1"/>
        <pt x="83" y="0" on="1"/>
        <pt x="87" y="326" on="1"/>
        <pt x="83" y="702" on="1"/>
        <pt x="321" y="716" on="0"/>
        <pt x="349" y="716" on="1"/>
        <pt x="613" y="716" on="0"/>
      </contour>
      <contour>
        <pt x="240" y="382" on="1"/>
        <pt x="308" y="375" on="0"/>
        <pt x="411" y="375" on="0"/>
        <pt x="451" y="424" on="0"/>
        <pt x="451" y="563" on="0"/>
        <pt x="426" y="579" on="1"/>
        <pt x="408" y="591" on="0"/>
        <pt x="285" y="591" on="0"/>
        <pt x="240" y="585" on="1"/>
      </contour>
    </TTGlyph>
    <TTGlyph name="S" xMin="33" yMin="-13" xMax="529" yMax="716">
      <contour>
        <pt x="278" y="578" on="1"/>
        <pt x="245" y="578" on="0"/>
        <pt x="209" y="553" on="0"/>
        <pt x="209" y="493" on="0"/>
        <pt x="260" y="454" on="0"/>
        <pt x="322" y="425" on="0"/>
        <pt x="371" y="404" on="0"/>
        <pt x="397" y="391" on="0"/>
        <pt x="442" y="367" on="0"/>
        <pt x="467" y="346" on="0"/>
        <pt x="500" y="313" on="0"/>
        <pt x="508" y="296" on="1"/>
        <pt x="529" y="253" on="0"/>
        <pt x="529" y="204" on="1"/>
        <pt x="529" y="107" on="0"/>
        <pt x="390" y="-13" on="0"/>
        <pt x="278" y="-13" on="1"/>
        <pt x="221" y="-13" on="0"/>
        <pt x="99" y="18" on="0"/>
        <pt x="66" y="34" on="1"/>
        <pt x="33" y="49" on="1"/>
        <pt x="35" y="57" on="0"/>
        <pt x="40" y="70" on="1"/>
        <pt x="46" y="88" on="0"/>
        <pt x="72" y="174" on="1"/>
        <pt x="195" y="125" on="0"/>
        <pt x="298" y="125" on="1"/>
        <pt x="327" y="125" on="0"/>
        <pt x="369" y="151" on="0"/>
        <pt x="369" y="198" on="1"/>
        <pt x="369" y="220" on="0"/>
        <pt x="345" y="243" on="0"/>
        <pt x="329" y="256" on="0"/>
        <pt x="299" y="272" on="0"/>
        <pt x="288" y="277" on="1"/>
        <pt x="265" y="288" on="0"/>
        <pt x="144" y="345" on="0"/>
        <pt x="117" y="367" on="1"/>
        <pt x="48" y="421" on="0"/>
        <pt x="48" y="605" on="0"/>
        <pt x="177" y="716" on="0"/>
        <pt x="296" y="716" on="1"/>
        <pt x="339" y="716" on="0"/>
        <pt x="443" y="700" on="0"/>
        <pt x="504" y="683" on="1"/>
        <pt x="479" y="555" on="1"/>
        <pt x="359" y="578" on="0"/>
      </contour>
    </TTGlyph>
    <TTGlyph name="T" xMin="-16" yMin="0" xMax="531" yMax="703">
      <contour>
        <pt x="-16" y="703" on="1"/>
        <pt x="531" y="703" on="1"/>
        <pt x="531" y="567" on="1"/>
        <pt x="331" y="570" on="1"/>
        <pt x="334" y="0" on="1"/>
        <pt x="177" y="0" on="1"/>
        <pt x="180" y="570" on="1"/>
        <pt x="-16" y="567" on="1"/>
      </contour>
    </TTGlyph>
    <TTGlyph name="Thorn" xMin="81" yMin="0" xMax="590" yMax="703">
      <contour>
        <pt x="238" y="703" on="1"/>
        <pt x="238" y="620" on="1"/>
        <pt x="318" y="624" on="0"/>
        <pt x="357" y="624" on="1"/>
        <pt x="469" y="624" on="0"/>
        <pt x="590" y="499" on="0"/>
        <pt x="590" y="377" on="1"/>
        <pt x="590" y="229" on="0"/>
        <pt x="509" y="170" on="1"/>
        <pt x="439" y="120" on="0"/>
        <pt x="334" y="120" on="1"/>
        <pt x="238" y="123" on="1"/>
        <pt x="238" y="0" on="1"/>
        <pt x="81" y="0" on="1"/>
        <pt x="85" y="366" on="1"/>
        <pt x="81" y="703" on="1"/>
      </contour>
      <contour>
        <pt x="405" y="483" on="1"/>
        <pt x="391" y="497" on="0"/>
        <pt x="281" y="497" on="0"/>
        <pt x="238" y="492" on="1"/>
        <pt x="238" y="259" on="1"/>
        <pt x="286" y="252" on="0"/>
        <pt x="389" y="252" on="0"/>
        <pt x="428" y="286" on="0"/>
        <pt x="428" y="463" on="0"/>
      </contour>
    </TTGlyph>
    <TTGlyph name="U" xMin="83" yMin="-13" xMax="619" yMax="703">
      <contour>
        <pt x="462" y="703" on="1"/>
        <pt x="619" y="703" on="1"/>
        <pt x="619" y="317" on="1"/>
        <pt x="619" y="131" on="0"/>
        <pt x="488" y="-13" on="0"/>
        <pt x="215" y="-13" on="0"/>
        <pt x="83" y="129" on="0"/>
        <pt x="83" y="309" on="1"/>
        <pt x="83" y="703" on="1"/>
        <pt x="240" y="703" on="1"/>
        <pt x="240" y="335" on="1"/>
        <pt x="240" y="241" on="0"/>
        <pt x="261" y="151" on="0"/>
        <pt x="305" y="123" on="0"/>
        <pt x="398" y="124" on="0"/>
        <pt x="441" y="151" on="0"/>
        <pt x="462" y="239" on="0"/>
        <pt x="462" y="335" on="1"/>
      </contour>
    </TTGlyph>
    <TTGlyph name="Uacute" xMin="83" yMin="-13" xMax="619" yMax="910">
      <contour>
        <pt x="462" y="703" on="1"/>
        <pt x="619" y="703" on="1"/>
        <pt x="619" y="317" on="1"/>
        <pt x="619" y="131" on="0"/>
        <pt x="488" y="-13" on="0"/>
        <pt x="215" y="-13" on="0"/>
        <pt x="83" y="129" on="0"/>
        <pt x="83" y="309" on="1"/>
        <pt x="83" y="703" on="1"/>
        <pt x="240" y="703" on="1"/>
        <pt x="240" y="335" on="1"/>
        <pt x="240" y="241" on="0"/>
        <pt x="261" y="151" on="0"/>
        <pt x="305" y="123" on="0"/>
        <pt x="398" y="124" on="0"/>
        <pt x="441" y="151" on="0"/>
        <pt x="462" y="239" on="0"/>
        <pt x="462" y="335" on="1"/>
      </contour>
      <contour>
        <pt x="473" y="910" on="1"/>
        <pt x="501" y="800" on="1"/>
        <pt x="199" y="750" on="1"/>
        <pt x="179" y="833" on="1"/>
      </contour>
    </TTGlyph>
    <TTGlyph name="Ucircumflex" xMin="83" yMin="-13" xMax="619" yMax="905">
      <contour>
        <pt x="462" y="703" on="1"/>
        <pt x="619" y="703" on="1"/>
        <pt x="619" y="317" on="1"/>
        <pt x="619" y="131" on="0"/>
        <pt x="488" y="-13" on="0"/>
        <pt x="215" y="-13" on="0"/>
        <pt x="83" y="129" on="0"/>
        <pt x="83" y="309" on="1"/>
        <pt x="83" y="703" on="1"/>
        <pt x="240" y="703" on="1"/>
        <pt x="240" y="335" on="1"/>
        <pt x="240" y="241" on="0"/>
        <pt x="261" y="151" on="0"/>
        <pt x="305" y="123" on="0"/>
        <pt x="398" y="124" on="0"/>
        <pt x="441" y="151" on="0"/>
        <pt x="462" y="239" on="0"/>
        <pt x="462" y="335" on="1"/>
      </contour>
      <contour>
        <pt x="554" y="805" on="1"/>
        <pt x="521" y="744" on="1"/>
        <pt x="354" y="803" on="1"/>
        <pt x="347" y="803" on="1"/>
        <pt x="180" y="744" on="1"/>
        <pt x="147" y="805" on="1"/>
        <pt x="314" y="905" on="1"/>
        <pt x="387" y="905" on="1"/>
      </contour>
    </TTGlyph>
    <TTGlyph name="Udieresis" xMin="83" yMin="-13" xMax="619" yMax="874">
      <contour>
        <pt x="462" y="703" on="1"/>
        <pt x="619" y="703" on="1"/>
        <pt x="619" y="317" on="1"/>
        <pt x="619" y="131" on="0"/>
        <pt x="488" y="-13" on="0"/>
        <pt x="215" y="-13" on="0"/>
        <pt x="83" y="129" on="0"/>
        <pt x="83" y="309" on="1"/>
        <pt x="83" y="703" on="1"/>
        <pt x="240" y="703" on="1"/>
        <pt x="240" y="335" on="1"/>
        <pt x="240" y="241" on="0"/>
        <pt x="261" y="151" on="0"/>
        <pt x="305" y="123" on="0"/>
        <pt x="398" y="124" on="0"/>
        <pt x="441" y="151" on="0"/>
        <pt x="462" y="239" on="0"/>
        <pt x="462" y="335" on="1"/>
      </contour>
      <contour>
        <pt x="302" y="766" on="1"/>
        <pt x="155" y="766" on="1"/>
        <pt x="155" y="874" on="1"/>
        <pt x="302" y="874" on="1"/>
      </contour>
      <contour>
        <pt x="547" y="766" on="1"/>
        <pt x="400" y="766" on="1"/>
        <pt x="400" y="874" on="1"/>
        <pt x="547" y="874" on="1"/>
      </contour>
    </TTGlyph>
    <TTGlyph name="Ugrave" xMin="83" yMin="-13" xMax="619" yMax="909">
      <contour>
        <pt x="462" y="703" on="1"/>
        <pt x="619" y="703" on="1"/>
        <pt x="619" y="317" on="1"/>
        <pt x="619" y="131" on="0"/>
        <pt x="488" y="-13" on="0"/>
        <pt x="215" y="-13" on="0"/>
        <pt x="83" y="129" on="0"/>
        <pt x="83" y="309" on="1"/>
        <pt x="83" y="703" on="1"/>
        <pt x="240" y="703" on="1"/>
        <pt x="240" y="335" on="1"/>
        <pt x="240" y="241" on="0"/>
        <pt x="261" y="151" on="0"/>
        <pt x="305" y="123" on="0"/>
        <pt x="398" y="124" on="0"/>
        <pt x="441" y="151" on="0"/>
        <pt x="462" y="239" on="0"/>
        <pt x="462" y="335" on="1"/>
      </contour>
      <contour>
        <pt x="199" y="799" on="1"/>
        <pt x="224" y="909" on="1"/>
        <pt x="523" y="835" on="1"/>
        <pt x="506" y="752" on="1"/>
      </contour>
    </TTGlyph>
    <TTGlyph name="V" xMin="6" yMin="0" xMax="593" yMax="703">
      <contour>
        <pt x="6" y="703" on="1"/>
        <pt x="171" y="703" on="1"/>
        <pt x="296" y="147" on="1"/>
        <pt x="302" y="147" on="1"/>
        <pt x="427" y="703" on="1"/>
        <pt x="593" y="703" on="1"/>
        <pt x="394" y="0" on="1"/>
        <pt x="202" y="0" on="1"/>
      </contour>
    </TTGlyph>
    <TTGlyph name="W" xMin="16" yMin="0" xMax="786" yMax="703">
      <contour>
        <pt x="309" y="536" on="1"/>
        <pt x="493" y="536" on="1"/>
        <pt x="571" y="163" on="1"/>
        <pt x="577" y="163" on="1"/>
        <pt x="630" y="703" on="1"/>
        <pt x="786" y="703" on="1"/>
        <pt x="682" y="0" on="1"/>
        <pt x="486" y="0" on="1"/>
        <pt x="404" y="395" on="1"/>
        <pt x="398" y="395" on="1"/>
        <pt x="316" y="0" on="1"/>
        <pt x="120" y="0" on="1"/>
        <pt x="16" y="703" on="1"/>
        <pt x="172" y="703" on="1"/>
        <pt x="225" y="163" on="1"/>
        <pt x="231" y="163" on="1"/>
      </contour>
    </TTGlyph>
    <TTGlyph name="X" xMin="-7" yMin="0" xMax="626" yMax="703">
      <contour>
        <pt x="-7" y="0" on="1"/>
        <pt x="208" y="357" on="1"/>
        <pt x="2" y="703" on="1"/>
        <pt x="178" y="703" on="1"/>
        <pt x="307" y="454" on="1"/>
        <pt x="313" y="454" on="1"/>
        <pt x="440" y="703" on="1"/>
        <pt x="616" y="703" on="1"/>
        <pt x="411" y="357" on="1"/>
        <pt x="626" y="0" on="1"/>
        <pt x="447" y="0" on="1"/>
        <pt x="314" y="255" on="1"/>
        <pt x="308" y="255" on="1"/>
        <pt x="172" y="0" on="1"/>
      </contour>
    </TTGlyph>
    <TTGlyph name="Y" xMin="-4" yMin="0" xMax="582" yMax="703">
      <contour>
        <pt x="209" y="0" on="1"/>
        <pt x="212" y="253" on="1"/>
        <pt x="-4" y="703" on="1"/>
        <pt x="163" y="703" on="1"/>
        <pt x="286" y="381" on="1"/>
        <pt x="292" y="381" on="1"/>
        <pt x="415" y="703" on="1"/>
        <pt x="582" y="703" on="1"/>
        <pt x="366" y="253" on="1"/>
        <pt x="368" y="0" on="1"/>
      </contour>
    </TTGlyph>
    <TTGlyph name="Yacute" xMin="-4" yMin="0" xMax="582" yMax="910">
      <contour>
        <pt x="209" y="0" on="1"/>
        <pt x="212" y="253" on="1"/>
        <pt x="-4" y="703" on="1"/>
        <pt x="163" y="703" on="1"/>
        <pt x="286" y="381" on="1"/>
        <pt x="292" y="381" on="1"/>
        <pt x="415" y="703" on="1"/>
        <pt x="582" y="703" on="1"/>
        <pt x="366" y="253" on="1"/>
        <pt x="368" y="0" on="1"/>
      </contour>
      <contour>
        <pt x="417" y="910" on="1"/>
        <pt x="445" y="800" on="1"/>
        <pt x="143" y="750" on="1"/>
        <pt x="123" y="833" on="1"/>
      </contour>
    </TTGlyph>
    <TTGlyph name="Z" xMin="24" yMin="0" xMax="553" yMax="703">
      <contour>
        <pt x="24" y="0" on="1"/>
        <pt x="24" y="124" on="1"/>
        <pt x="362" y="571" on="1"/>
        <pt x="362" y="578" on="1"/>
        <pt x="45" y="569" on="1"/>
        <pt x="45" y="703" on="1"/>
        <pt x="548" y="703" on="1"/>
        <pt x="548" y="582" on="1"/>
        <pt x="217" y="132" on="1"/>
        <pt x="217" y="126" on="1"/>
        <pt x="553" y="133" on="1"/>
        <pt x="553" y="0" on="1"/>
      </contour>
    </TTGlyph>
    <TTGlyph name="a" xMin="51" yMin="-13" xMax="549" yMax="601">
      <contour>
        <pt x="148" y="-13" on="0"/>
        <pt x="51" y="89" on="0"/>
        <pt x="51" y="283" on="0"/>
        <pt x="188" y="371" on="0"/>
        <pt x="319" y="371" on="1"/>
        <pt x="394" y="371" on="1"/>
        <pt x="394" y="438" on="0"/>
        <pt x="368" y="477" on="0"/>
        <pt x="277" y="477" on="0"/>
        <pt x="166" y="457" on="0"/>
        <pt x="98" y="437" on="1"/>
        <pt x="66" y="549" on="1"/>
        <pt x="107" y="568" on="0"/>
        <pt x="260" y="601" on="0"/>
        <pt x="320" y="601" on="1"/>
        <pt x="443" y="601" on="0"/>
        <pt x="549" y="488" on="0"/>
        <pt x="549" y="380" on="1"/>
        <pt x="549" y="0" on="1"/>
        <pt x="451" y="0" on="1"/>
        <pt x="431" y="65" on="1"/>
        <pt x="425" y="65" on="1"/>
        <pt x="413" y="56" on="0"/>
        <pt x="374" y="30" on="0"/>
        <pt x="266" y="-13" on="0"/>
        <pt x="222" y="-13" on="1"/>
      </contour>
      <contour>
        <pt x="394" y="256" on="1"/>
        <pt x="359" y="261" on="0"/>
        <pt x="242" y="261" on="0"/>
        <pt x="209" y="231" on="0"/>
        <pt x="209" y="147" on="0"/>
        <pt x="236" y="114" on="0"/>
        <pt x="264" y="114" on="1"/>
        <pt x="316" y="114" on="0"/>
        <pt x="374" y="142" on="1"/>
        <pt x="394" y="152" on="1"/>
      </contour>
    </TTGlyph>
    <TTGlyph name="aacute" xMin="51" yMin="-13" xMax="549" yMax="816">
      <contour>
        <pt x="148" y="-13" on="0"/>
        <pt x="51" y="89" on="0"/>
        <pt x="51" y="283" on="0"/>
        <pt x="188" y="371" on="0"/>
        <pt x="319" y="371" on="1"/>
        <pt x="394" y="371" on="1"/>
        <pt x="394" y="438" on="0"/>
        <pt x="368" y="477" on="0"/>
        <pt x="277" y="477" on="0"/>
        <pt x="166" y="457" on="0"/>
        <pt x="98" y="437" on="1"/>
        <pt x="66" y="549" on="1"/>
        <pt x="107" y="568" on="0"/>
        <pt x="260" y="601" on="0"/>
        <pt x="320" y="601" on="1"/>
        <pt x="443" y="601" on="0"/>
        <pt x="549" y="488" on="0"/>
        <pt x="549" y="380" on="1"/>
        <pt x="549" y="0" on="1"/>
        <pt x="451" y="0" on="1"/>
        <pt x="431" y="65" on="1"/>
        <pt x="425" y="65" on="1"/>
        <pt x="413" y="56" on="0"/>
        <pt x="374" y="30" on="0"/>
        <pt x="266" y="-13" on="0"/>
        <pt x="222" y="-13" on="1"/>
      </contour>
      <contour>
        <pt x="394" y="256" on="1"/>
        <pt x="359" y="261" on="0"/>
        <pt x="242" y="261" on="0"/>
        <pt x="209" y="231" on="0"/>
        <pt x="209" y="147" on="0"/>
        <pt x="236" y="114" on="0"/>
        <pt x="264" y="114" on="1"/>
        <pt x="316" y="114" on="0"/>
        <pt x="374" y="142" on="1"/>
        <pt x="394" y="152" on="1"/>
      </contour>
      <contour>
        <pt x="445" y="816" on="1"/>
        <pt x="476" y="704" on="1"/>
        <pt x="174" y="646" on="1"/>
        <pt x="152" y="729" on="1"/>
      </contour>
    </TTGlyph>
    <TTGlyph name="acircumflex" xMin="51" yMin="-13" xMax="549" yMax="807">
      <contour>
        <pt x="148" y="-13" on="0"/>
        <pt x="51" y="89" on="0"/>
        <pt x="51" y="283" on="0"/>
        <pt x="188" y="371" on="0"/>
        <pt x="319" y="371" on="1"/>
        <pt x="394" y="371" on="1"/>
        <pt x="394" y="438" on="0"/>
        <pt x="368" y="477" on="0"/>
        <pt x="277" y="477" on="0"/>
        <pt x="166" y="457" on="0"/>
        <pt x="98" y="437" on="1"/>
        <pt x="66" y="549" on="1"/>
        <pt x="107" y="568" on="0"/>
        <pt x="260" y="601" on="0"/>
        <pt x="320" y="601" on="1"/>
        <pt x="443" y="601" on="0"/>
        <pt x="549" y="488" on="0"/>
        <pt x="549" y="380" on="1"/>
        <pt x="549" y="0" on="1"/>
        <pt x="451" y="0" on="1"/>
        <pt x="431" y="65" on="1"/>
        <pt x="425" y="65" on="1"/>
        <pt x="413" y="56" on="0"/>
        <pt x="374" y="30" on="0"/>
        <pt x="266" y="-13" on="0"/>
        <pt x="222" y="-13" on="1"/>
      </contour>
      <contour>
        <pt x="394" y="256" on="1"/>
        <pt x="359" y="261" on="0"/>
        <pt x="242" y="261" on="0"/>
        <pt x="209" y="231" on="0"/>
        <pt x="209" y="147" on="0"/>
        <pt x="236" y="114" on="0"/>
        <pt x="264" y="114" on="1"/>
        <pt x="316" y="114" on="0"/>
        <pt x="374" y="142" on="1"/>
        <pt x="394" y="152" on="1"/>
      </contour>
      <contour>
        <pt x="514" y="702" on="1"/>
        <pt x="481" y="641" on="1"/>
        <pt x="314" y="705" on="1"/>
        <pt x="307" y="705" on="1"/>
        <pt x="140" y="641" on="1"/>
        <pt x="107" y="702" on="1"/>
        <pt x="274" y="807" on="1"/>
        <pt x="347" y="807" on="1"/>
      </contour>
    </TTGlyph>
    <TTGlyph name="acute" xMin="153" yMin="646" xMax="477" yMax="816">
      <contour>
        <pt x="446" y="816" on="1"/>
        <pt x="477" y="704" on="1"/>
        <pt x="175" y="646" on="1"/>
        <pt x="153" y="729" on="1"/>
      </contour>
    </TTGlyph>
    <TTGlyph name="acute.cap" xMin="134" yMin="750" xMax="456" yMax="910">
      <contour>
        <pt x="428" y="910" on="1"/>
        <pt x="456" y="800" on="1"/>
        <pt x="154" y="750" on="1"/>
        <pt x="134" y="833" on="1"/>
      </contour>
    </TTGlyph>
    <TTGlyph name="adieresis" xMin="51" yMin="-13" xMax="549" yMax="776">
      <contour>
        <pt x="148" y="-13" on="0"/>
        <pt x="51" y="89" on="0"/>
        <pt x="51" y="283" on="0"/>
        <pt x="188" y="371" on="0"/>
        <pt x="319" y="371" on="1"/>
        <pt x="394" y="371" on="1"/>
        <pt x="394" y="438" on="0"/>
        <pt x="368" y="477" on="0"/>
        <pt x="277" y="477" on="0"/>
        <pt x="166" y="457" on="0"/>
        <pt x="98" y="437" on="1"/>
        <pt x="66" y="549" on="1"/>
        <pt x="107" y="568" on="0"/>
        <pt x="260" y="601" on="0"/>
        <pt x="320" y="601" on="1"/>
        <pt x="443" y="601" on="0"/>
        <pt x="549" y="488" on="0"/>
        <pt x="549" y="380" on="1"/>
        <pt x="549" y="0" on="1"/>
        <pt x="451" y="0" on="1"/>
        <pt x="431" y="65" on="1"/>
        <pt x="425" y="65" on="1"/>
        <pt x="413" y="56" on="0"/>
        <pt x="374" y="30" on="0"/>
        <pt x="266" y="-13" on="0"/>
        <pt x="222" y="-13" on="1"/>
      </contour>
      <contour>
        <pt x="394" y="256" on="1"/>
        <pt x="359" y="261" on="0"/>
        <pt x="242" y="261" on="0"/>
        <pt x="209" y="231" on="0"/>
        <pt x="209" y="147" on="0"/>
        <pt x="236" y="114" on="0"/>
        <pt x="264" y="114" on="1"/>
        <pt x="316" y="114" on="0"/>
        <pt x="374" y="142" on="1"/>
        <pt x="394" y="152" on="1"/>
      </contour>
      <contour>
        <pt x="255" y="668" on="1"/>
        <pt x="108" y="668" on="1"/>
        <pt x="108" y="776" on="1"/>
        <pt x="255" y="776" on="1"/>
      </contour>
      <contour>
        <pt x="500" y="668" on="1"/>
        <pt x="353" y="668" on="1"/>
        <pt x="353" y="776" on="1"/>
        <pt x="500" y="776" on="1"/>
      </contour>
    </TTGlyph>
    <TTGlyph name="ae" xMin="56" yMin="-13" xMax="909" yMax="601">
      <contour>
        <pt x="152" y="-13" on="0"/>
        <pt x="56" y="89" on="0"/>
        <pt x="56" y="283" on="0"/>
        <pt x="194" y="368" on="0"/>
        <pt x="324" y="368" on="1"/>
        <pt x="399" y="368" on="1"/>
        <pt x="399" y="442" on="0"/>
        <pt x="386" y="458" on="1"/>
        <pt x="373" y="477" on="0"/>
        <pt x="283" y="477" on="0"/>
        <pt x="171" y="457" on="0"/>
        <pt x="103" y="437" on="1"/>
        <pt x="71" y="549" on="1"/>
        <pt x="113" y="568" on="0"/>
        <pt x="266" y="601" on="0"/>
        <pt x="330" y="601" on="1"/>
        <pt x="436" y="601" on="0"/>
        <pt x="491" y="552" on="1"/>
        <pt x="495" y="552" on="1"/>
        <pt x="561" y="601" on="0"/>
        <pt x="787" y="601" on="0"/>
        <pt x="909" y="474" on="0"/>
        <pt x="909" y="326" on="1"/>
        <pt x="909" y="243" on="1"/>
        <pt x="557" y="243" on="1"/>
        <pt x="558" y="154" on="0"/>
        <pt x="588" y="129" on="1"/>
        <pt x="609" y="110" on="0"/>
        <pt x="647" y="110" on="1"/>
        <pt x="717" y="110" on="0"/>
        <pt x="825" y="142" on="1"/>
        <pt x="860" y="153" on="1"/>
        <pt x="898" y="41" on="1"/>
        <pt x="853" y="20" on="0"/>
        <pt x="719" y="-13" on="0"/>
        <pt x="668" y="-13" on="1"/>
        <pt x="521" y="-13" on="0"/>
        <pt x="456" y="76" on="1"/>
        <pt x="452" y="76" on="1"/>
        <pt x="413" y="51" on="0"/>
        <pt x="367" y="23" on="0"/>
        <pt x="270" y="-13" on="0"/>
        <pt x="231" y="-13" on="1"/>
      </contour>
      <contour>
        <pt x="399" y="253" on="1"/>
        <pt x="363" y="258" on="0"/>
        <pt x="247" y="258" on="0"/>
        <pt x="214" y="228" on="0"/>
        <pt x="214" y="148" on="0"/>
        <pt x="240" y="114" on="0"/>
        <pt x="296" y="114" on="0"/>
        <pt x="361" y="133" on="0"/>
        <pt x="399" y="152" on="1"/>
      </contour>
      <contour>
        <pt x="733" y="457" on="1"/>
        <pt x="715" y="479" on="0"/>
        <pt x="607" y="479" on="0"/>
        <pt x="561" y="427" on="0"/>
        <pt x="558" y="355" on="1"/>
        <pt x="751" y="359" on="1"/>
        <pt x="750" y="435" on="0"/>
      </contour>
    </TTGlyph>
    <TTGlyph name="agrave" xMin="51" yMin="-13" xMax="549" yMax="812">
      <contour>
        <pt x="148" y="-13" on="0"/>
        <pt x="51" y="89" on="0"/>
        <pt x="51" y="283" on="0"/>
        <pt x="188" y="371" on="0"/>
        <pt x="319" y="371" on="1"/>
        <pt x="394" y="371" on="1"/>
        <pt x="394" y="438" on="0"/>
        <pt x="368" y="477" on="0"/>
        <pt x="277" y="477" on="0"/>
        <pt x="166" y="457" on="0"/>
        <pt x="98" y="437" on="1"/>
        <pt x="66" y="549" on="1"/>
        <pt x="107" y="568" on="0"/>
        <pt x="260" y="601" on="0"/>
        <pt x="320" y="601" on="1"/>
        <pt x="443" y="601" on="0"/>
        <pt x="549" y="488" on="0"/>
        <pt x="549" y="380" on="1"/>
        <pt x="549" y="0" on="1"/>
        <pt x="451" y="0" on="1"/>
        <pt x="431" y="65" on="1"/>
        <pt x="425" y="65" on="1"/>
        <pt x="413" y="56" on="0"/>
        <pt x="374" y="30" on="0"/>
        <pt x="266" y="-13" on="0"/>
        <pt x="222" y="-13" on="1"/>
      </contour>
      <contour>
        <pt x="394" y="256" on="1"/>
        <pt x="359" y="261" on="0"/>
        <pt x="242" y="261" on="0"/>
        <pt x="209" y="231" on="0"/>
        <pt x="209" y="147" on="0"/>
        <pt x="236" y="114" on="0"/>
        <pt x="264" y="114" on="1"/>
        <pt x="316" y="114" on="0"/>
        <pt x="374" y="142" on="1"/>
        <pt x="394" y="152" on="1"/>
      </contour>
      <contour>
        <pt x="144" y="704" on="1"/>
        <pt x="170" y="812" on="1"/>
        <pt x="468" y="729" on="1"/>
        <pt x="449" y="646" on="1"/>
      </contour>
    </TTGlyph>
    <TTGlyph name="ampersand" xMin="17" yMin="-13" xMax="697" yMax="716">
      <contour>
        <pt x="499" y="78" on="1"/>
        <pt x="397" y="-13" on="0"/>
        <pt x="156" y="-13" on="0"/>
        <pt x="17" y="117" on="0"/>
        <pt x="17" y="201" on="1"/>
        <pt x="17" y="322" on="0"/>
        <pt x="145" y="387" on="1"/>
        <pt x="68" y="449" on="0"/>
        <pt x="68" y="612" on="0"/>
        <pt x="186" y="716" on="0"/>
        <pt x="398" y="716" on="0"/>
        <pt x="508" y="611" on="0"/>
        <pt x="508" y="537" on="1"/>
        <pt x="508" y="443" on="0"/>
        <pt x="411" y="380" on="1"/>
        <pt x="459" y="346" on="0"/>
        <pt x="508" y="297" on="1"/>
        <pt x="535" y="345" on="0"/>
        <pt x="560" y="408" on="1"/>
        <pt x="693" y="371" on="1"/>
        <pt x="657" y="280" on="0"/>
        <pt x="598" y="192" on="1"/>
        <pt x="658" y="104" on="0"/>
        <pt x="697" y="-8" on="1"/>
        <pt x="543" y="-13" on="1"/>
        <pt x="531" y="22" on="0"/>
      </contour>
      <contour>
        <pt x="178" y="157" on="0"/>
        <pt x="230" y="106" on="0"/>
        <pt x="314" y="106" on="0"/>
        <pt x="397" y="151" on="0"/>
        <pt x="429" y="187" on="1"/>
        <pt x="360" y="268" on="0"/>
        <pt x="282" y="315" on="1"/>
        <pt x="235" y="297" on="0"/>
        <pt x="178" y="236" on="0"/>
      </contour>
      <contour>
        <pt x="287" y="601" on="1"/>
        <pt x="225" y="601" on="0"/>
        <pt x="225" y="538" on="1"/>
        <pt x="225" y="481" on="0"/>
        <pt x="287" y="449" on="1"/>
        <pt x="350" y="481" on="0"/>
        <pt x="350" y="539" on="1"/>
        <pt x="350" y="566" on="0"/>
        <pt x="319" y="601" on="0"/>
      </contour>
    </TTGlyph>
    <TTGlyph name="aring" xMin="51" yMin="-13" xMax="549" yMax="830">
      <contour>
        <pt x="148" y="-13" on="0"/>
        <pt x="51" y="89" on="0"/>
        <pt x="51" y="283" on="0"/>
        <pt x="188" y="371" on="0"/>
        <pt x="319" y="371" on="1"/>
        <pt x="394" y="371" on="1"/>
        <pt x="394" y="438" on="0"/>
        <pt x="368" y="477" on="0"/>
        <pt x="277" y="477" on="0"/>
        <pt x="166" y="457" on="0"/>
        <pt x="98" y="437" on="1"/>
        <pt x="66" y="549" on="1"/>
        <pt x="107" y="568" on="0"/>
        <pt x="260" y="601" on="0"/>
        <pt x="320" y="601" on="1"/>
        <pt x="443" y="601" on="0"/>
        <pt x="549" y="488" on="0"/>
        <pt x="549" y="380" on="1"/>
        <pt x="549" y="0" on="1"/>
        <pt x="451" y="0" on="1"/>
        <pt x="431" y="65" on="1"/>
        <pt x="425" y="65" on="1"/>
        <pt x="413" y="56" on="0"/>
        <pt x="374" y="30" on="0"/>
        <pt x="266" y="-13" on="0"/>
        <pt x="222" y="-13" on="1"/>
      </contour>
      <contour>
        <pt x="394" y="256" on="1"/>
        <pt x="359" y="261" on="0"/>
        <pt x="242" y="261" on="0"/>
        <pt x="209" y="231" on="0"/>
        <pt x="209" y="147" on="0"/>
        <pt x="236" y="114" on="0"/>
        <pt x="264" y="114" on="1"/>
        <pt x="316" y="114" on="0"/>
        <pt x="374" y="142" on="1"/>
        <pt x="394" y="152" on="1"/>
      </contour>
      <contour>
        <pt x="310" y="830" on="1"/>
        <pt x="415" y="830" on="0"/>
        <pt x="415" y="733" on="1"/>
        <pt x="415" y="681" on="0"/>
        <pt x="355" y="637" on="0"/>
        <pt x="265" y="637" on="0"/>
        <pt x="204" y="681" on="0"/>
        <pt x="204" y="786" on="0"/>
        <pt x="265" y="830" on="0"/>
      </contour>
      <contour>
        <pt x="333" y="771" on="0"/>
        <pt x="287" y="771" on="0"/>
        <pt x="268" y="756" on="0"/>
        <pt x="268" y="711" on="0"/>
        <pt x="288" y="694" on="0"/>
        <pt x="332" y="694" on="0"/>
        <pt x="351" y="711" on="0"/>
        <pt x="351" y="756" on="0"/>
      </contour>
    </TTGlyph>
    <TTGlyph name="asciicircum" xMin="36" yMin="312" xMax="490" yMax="706">
      <contour>
        <pt x="181" y="312" on="1"/>
        <pt x="36" y="324" on="1"/>
        <pt x="189" y="706" on="1"/>
        <pt x="337" y="706" on="1"/>
        <pt x="490" y="324" on="1"/>
        <pt x="345" y="312" on="1"/>
        <pt x="266" y="577" on="1"/>
        <pt x="260" y="577" on="1"/>
      </contour>
    </TTGlyph>
    <TTGlyph name="asciitilde" xMin="72" yMin="190" xMax="599" yMax="384">
      <contour>
        <pt x="467" y="190" on="1"/>
        <pt x="426" y="190" on="0"/>
        <pt x="233" y="259" on="0"/>
        <pt x="166" y="259" on="0"/>
        <pt x="119" y="234" on="1"/>
        <pt x="72" y="317" on="1"/>
        <pt x="90" y="336" on="0"/>
        <pt x="113" y="357" on="0"/>
        <pt x="171" y="384" on="0"/>
        <pt x="243" y="384" on="0"/>
        <pt x="438" y="315" on="0"/>
        <pt x="503" y="315" on="0"/>
        <pt x="553" y="341" on="1"/>
        <pt x="599" y="258" on="1"/>
        <pt x="543" y="190" on="0"/>
      </contour>
    </TTGlyph>
    <TTGlyph name="asterisk" xMin="14" yMin="346" xMax="402" yMax="725">
      <contour>
        <pt x="146" y="725" on="1"/>
        <pt x="270" y="725" on="1"/>
        <pt x="270" y="704" on="1"/>
        <pt x="251" y="604" on="1"/>
        <pt x="344" y="651" on="1"/>
        <pt x="365" y="657" on="1"/>
        <pt x="402" y="539" on="1"/>
        <pt x="381" y="533" on="1"/>
        <pt x="270" y="520" on="1"/>
        <pt x="360" y="443" on="1"/>
        <pt x="375" y="428" on="1"/>
        <pt x="280" y="347" on="1"/>
        <pt x="267" y="364" on="1"/>
        <pt x="207" y="466" on="1"/>
        <pt x="145" y="363" on="1"/>
        <pt x="132" y="346" on="1"/>
        <pt x="41" y="427" on="1"/>
        <pt x="55" y="442" on="1"/>
        <pt x="142" y="520" on="1"/>
        <pt x="34" y="533" on="1"/>
        <pt x="14" y="539" on="1"/>
        <pt x="50" y="658" on="1"/>
        <pt x="72" y="651" on="1"/>
        <pt x="165" y="604" on="1"/>
        <pt x="146" y="704" on="1"/>
      </contour>
    </TTGlyph>
    <TTGlyph name="at" xMin="44" yMin="-61" xMax="767" yMax="701">
      <contour>
        <pt x="565" y="107" on="1"/>
        <pt x="525" y="107" on="0"/>
        <pt x="487" y="153" on="0"/>
        <pt x="480" y="198" on="1"/>
        <pt x="476" y="198" on="1"/>
        <pt x="424" y="107" on="0"/>
        <pt x="356" y="107" on="1"/>
        <pt x="311" y="107" on="0"/>
        <pt x="274" y="150" on="1"/>
        <pt x="231" y="203" on="0"/>
        <pt x="231" y="452" on="0"/>
        <pt x="314" y="548" on="0"/>
        <pt x="403" y="548" on="1"/>
        <pt x="466" y="548" on="0"/>
        <pt x="570" y="520" on="1"/>
        <pt x="568" y="373" on="0"/>
        <pt x="568" y="227" on="0"/>
        <pt x="571" y="198" on="0"/>
        <pt x="579" y="198" on="1"/>
        <pt x="606" y="198" on="0"/>
        <pt x="676" y="302" on="0"/>
        <pt x="676" y="376" on="1"/>
        <pt x="676" y="485" on="0"/>
        <pt x="540" y="611" on="0"/>
        <pt x="294" y="611" on="0"/>
        <pt x="137" y="463" on="0"/>
        <pt x="137" y="186" on="0"/>
        <pt x="294" y="27" on="0"/>
        <pt x="408" y="27" on="1"/>
        <pt x="434" y="27" on="0"/>
        <pt x="503" y="40" on="1"/>
        <pt x="514" y="-44" on="1"/>
        <pt x="464" y="-61" on="0"/>
        <pt x="336" y="-61" on="0"/>
        <pt x="209" y="-13" on="0"/>
        <pt x="106" y="78" on="0"/>
        <pt x="44" y="226" on="0"/>
        <pt x="44" y="412" on="0"/>
        <pt x="110" y="563" on="0"/>
        <pt x="164" y="608" on="1"/>
        <pt x="275" y="701" on="0"/>
        <pt x="562" y="701" on="0"/>
        <pt x="767" y="527" on="0"/>
        <pt x="767" y="380" on="1"/>
        <pt x="767" y="268" on="0"/>
        <pt x="639" y="107" on="0"/>
      </contour>
      <contour>
        <pt x="366" y="209" on="1"/>
        <pt x="401" y="209" on="0"/>
        <pt x="466" y="364" on="0"/>
        <pt x="466" y="444" on="1"/>
        <pt x="435" y="450" on="0"/>
        <pt x="367" y="450" on="0"/>
        <pt x="357" y="437" on="1"/>
        <pt x="340" y="414" on="0"/>
        <pt x="340" y="333" on="1"/>
        <pt x="340" y="209" on="0"/>
      </contour>
    </TTGlyph>
    <TTGlyph name="atilde" xMin="51" yMin="-13" xMax="549" yMax="798">
      <contour>
        <pt x="148" y="-13" on="0"/>
        <pt x="51" y="89" on="0"/>
        <pt x="51" y="283" on="0"/>
        <pt x="188" y="371" on="0"/>
        <pt x="319" y="371" on="1"/>
        <pt x="394" y="371" on="1"/>
        <pt x="394" y="438" on="0"/>
        <pt x="368" y="477" on="0"/>
        <pt x="277" y="477" on="0"/>
        <pt x="166" y="457" on="0"/>
        <pt x="98" y="437" on="1"/>
        <pt x="66" y="549" on="1"/>
        <pt x="107" y="568" on="0"/>
        <pt x="260" y="601" on="0"/>
        <pt x="320" y="601" on="1"/>
        <pt x="443" y="601" on="0"/>
        <pt x="549" y="488" on="0"/>
        <pt x="549" y="380" on="1"/>
        <pt x="549" y="0" on="1"/>
        <pt x="451" y="0" on="1"/>
        <pt x="431" y="65" on="1"/>
        <pt x="425" y="65" on="1"/>
        <pt x="413" y="56" on="0"/>
        <pt x="374" y="30" on="0"/>
        <pt x="266" y="-13" on="0"/>
        <pt x="222" y="-13" on="1"/>
      </contour>
      <contour>
        <pt x="394" y="256" on="1"/>
        <pt x="359" y="261" on="0"/>
        <pt x="242" y="261" on="0"/>
        <pt x="209" y="231" on="0"/>
        <pt x="209" y="147" on="0"/>
        <pt x="236" y="114" on="0"/>
        <pt x="264" y="114" on="1"/>
        <pt x="316" y="114" on="0"/>
        <pt x="374" y="142" on="1"/>
        <pt x="394" y="152" on="1"/>
      </contour>
      <contour>
        <pt x="191" y="798" on="1"/>
        <pt x="225" y="798" on="0"/>
        <pt x="385" y="755" on="0"/>
        <pt x="402" y="755" on="0"/>
        <pt x="418" y="775" on="0"/>
        <pt x="426" y="795" on="1"/>
        <pt x="501" y="783" on="1"/>
        <pt x="498" y="656" on="0"/>
        <pt x="406" y="656" on="1"/>
        <pt x="372" y="656" on="0"/>
        <pt x="212" y="701" on="0"/>
        <pt x="204" y="701" on="1"/>
        <pt x="188" y="701" on="0"/>
        <pt x="174" y="670" on="1"/>
        <pt x="170" y="660" on="1"/>
        <pt x="94" y="670" on="1"/>
        <pt x="97" y="798" on="0"/>
      </contour>
    </TTGlyph>
    <TTGlyph name="b" xMin="74" yMin="-13" xMax="576" yMax="761">
      <contour>
        <pt x="74" y="761" on="1"/>
        <pt x="229" y="761" on="1"/>
        <pt x="229" y="586" on="1"/>
        <pt x="302" y="601" on="0"/>
        <pt x="358" y="601" on="1"/>
        <pt x="576" y="601" on="0"/>
        <pt x="576" y="302" on="1"/>
        <pt x="576" y="210" on="0"/>
        <pt x="535" y="81" on="0"/>
        <pt x="500" y="48" on="1"/>
        <pt x="434" y="-13" on="0"/>
        <pt x="338" y="-13" on="1"/>
        <pt x="287" y="-13" on="0"/>
        <pt x="132" y="13" on="0"/>
        <pt x="74" y="31" on="1"/>
      </contour>
      <contour>
        <pt x="393" y="460" on="1"/>
        <pt x="379" y="474" on="0"/>
        <pt x="345" y="474" on="1"/>
        <pt x="283" y="474" on="0"/>
        <pt x="229" y="461" on="1"/>
        <pt x="229" y="122" on="1"/>
        <pt x="281" y="112" on="0"/>
        <pt x="366" y="112" on="0"/>
        <pt x="381" y="124" on="1"/>
        <pt x="416" y="153" on="0"/>
        <pt x="416" y="319" on="1"/>
        <pt x="416" y="438" on="0"/>
      </contour>
    </TTGlyph>
    <TTGlyph name="backslash" xMin="0" yMin="-98" xMax="508" yMax="703">
      <contour>
        <pt x="508" y="-98" on="1"/>
        <pt x="363" y="-98" on="1"/>
        <pt x="196" y="281" on="1"/>
        <pt x="0" y="703" on="1"/>
        <pt x="146" y="703" on="1"/>
        <pt x="307" y="333" on="1"/>
      </contour>
    </TTGlyph>
    <TTGlyph name="bar" xMin="81" yMin="-94" xMax="199" yMax="774">
      <contour>
        <pt x="199" y="-94" on="1"/>
        <pt x="81" y="-94" on="1"/>
        <pt x="81" y="774" on="1"/>
        <pt x="199" y="774" on="1"/>
      </contour>
    </TTGlyph>
    <TTGlyph name="braceleft" xMin="34" yMin="-123" xMax="452" yMax="791">
      <contour>
        <pt x="159" y="489" on="1"/>
        <pt x="159" y="583" on="1"/>
        <pt x="159" y="791" on="0"/>
        <pt x="359" y="791" on="1"/>
        <pt x="410" y="791" on="0"/>
        <pt x="452" y="785" on="1"/>
        <pt x="444" y="675" on="1"/>
        <pt x="376" y="680" on="0"/>
        <pt x="334" y="680" on="0"/>
        <pt x="314" y="644" on="0"/>
        <pt x="314" y="581" on="1"/>
        <pt x="314" y="488" on="1"/>
        <pt x="314" y="381" on="0"/>
        <pt x="228" y="345" on="1"/>
        <pt x="228" y="339" on="1"/>
        <pt x="314" y="300" on="0"/>
        <pt x="314" y="193" on="1"/>
        <pt x="314" y="92" on="1"/>
        <pt x="314" y="26" on="0"/>
        <pt x="332" y="-12" on="0"/>
        <pt x="357" y="-12" on="1"/>
        <pt x="444" y="-8" on="1"/>
        <pt x="452" y="-119" on="1"/>
        <pt x="414" y="-123" on="0"/>
        <pt x="362" y="-123" on="1"/>
        <pt x="159" y="-123" on="0"/>
        <pt x="159" y="92" on="1"/>
        <pt x="159" y="196" on="1"/>
        <pt x="159" y="248" on="0"/>
        <pt x="113" y="280" on="0"/>
        <pt x="34" y="291" on="1"/>
        <pt x="34" y="394" on="1"/>
        <pt x="111" y="404" on="0"/>
        <pt x="159" y="438" on="0"/>
      </contour>
    </TTGlyph>
    <TTGlyph name="braceright" xMin="12" yMin="-123" xMax="430" yMax="791">
      <contour>
        <pt x="305" y="196" on="1"/>
        <pt x="305" y="92" on="1"/>
        <pt x="305" y="-123" on="0"/>
        <pt x="102" y="-123" on="1"/>
        <pt x="12" y="-119" on="1"/>
        <pt x="20" y="-8" on="1"/>
        <pt x="77" y="-12" on="0"/>
        <pt x="132" y="-12" on="0"/>
        <pt x="150" y="26" on="0"/>
        <pt x="150" y="92" on="1"/>
        <pt x="150" y="193" on="1"/>
        <pt x="150" y="300" on="0"/>
        <pt x="236" y="339" on="1"/>
        <pt x="236" y="345" on="1"/>
        <pt x="150" y="381" on="0"/>
        <pt x="150" y="488" on="1"/>
        <pt x="150" y="581" on="1"/>
        <pt x="150" y="644" on="0"/>
        <pt x="130" y="680" on="0"/>
        <pt x="103" y="680" on="1"/>
        <pt x="20" y="675" on="1"/>
        <pt x="12" y="785" on="1"/>
        <pt x="47" y="791" on="0"/>
        <pt x="105" y="791" on="1"/>
        <pt x="305" y="791" on="0"/>
        <pt x="305" y="583" on="1"/>
        <pt x="305" y="489" on="1"/>
        <pt x="305" y="438" on="0"/>
        <pt x="353" y="404" on="0"/>
        <pt x="430" y="394" on="1"/>
        <pt x="430" y="291" on="1"/>
        <pt x="351" y="280" on="0"/>
        <pt x="305" y="248" on="0"/>
      </contour>
    </TTGlyph>
    <TTGlyph name="bracketleft" xMin="84" yMin="-124" xMax="323" yMax="791">
      <contour>
        <pt x="323" y="-124" on="1"/>
        <pt x="84" y="-124" on="1"/>
        <pt x="84" y="791" on="1"/>
        <pt x="323" y="791" on="1"/>
        <pt x="323" y="676" on="1"/>
        <pt x="228" y="678" on="1"/>
        <pt x="228" y="-11" on="1"/>
        <pt x="323" y="-10" on="1"/>
      </contour>
    </TTGlyph>
    <TTGlyph name="bracketright" xMin="19" yMin="-124" xMax="258" yMax="791">
      <contour>
        <pt x="19" y="791" on="1"/>
        <pt x="258" y="791" on="1"/>
        <pt x="258" y="-124" on="1"/>
        <pt x="19" y="-124" on="1"/>
        <pt x="19" y="-10" on="1"/>
        <pt x="114" y="-11" on="1"/>
        <pt x="114" y="678" on="1"/>
        <pt x="19" y="676" on="1"/>
      </contour>
    </TTGlyph>
    <TTGlyph name="brokenbar" xMin="81" yMin="-94" xMax="199" yMax="774">
      <contour>
        <pt x="199" y="403" on="1"/>
        <pt x="81" y="403" on="1"/>
        <pt x="81" y="774" on="1"/>
        <pt x="199" y="774" on="1"/>
      </contour>
      <contour>
        <pt x="81" y="269" on="1"/>
        <pt x="199" y="269" on="1"/>
        <pt x="199" y="-94" on="1"/>
        <pt x="81" y="-94" on="1"/>
      </contour>
    </TTGlyph>
    <TTGlyph name="bullet" xMin="48" yMin="254" xMax="358" yMax="570">
      <contour>
        <pt x="48" y="495" on="0"/>
        <pt x="138" y="570" on="0"/>
        <pt x="269" y="570" on="0"/>
        <pt x="358" y="494" on="0"/>
        <pt x="358" y="331" on="0"/>
        <pt x="270" y="254" on="0"/>
        <pt x="138" y="254" on="0"/>
        <pt x="48" y="331" on="0"/>
      </contour>
    </TTGlyph>
    <TTGlyph name="c" xMin="48" yMin="-13" xMax="524" yMax="601">
      <contour>
        <pt x="492" y="462" on="1"/>
        <pt x="388" y="478" on="0"/>
        <pt x="267" y="478" on="0"/>
        <pt x="245" y="456" on="1"/>
        <pt x="208" y="417" on="0"/>
        <pt x="208" y="162" on="0"/>
        <pt x="256" y="125" on="1"/>
        <pt x="276" y="110" on="0"/>
        <pt x="306" y="110" on="1"/>
        <pt x="362" y="110" on="0"/>
        <pt x="452" y="146" on="1"/>
        <pt x="482" y="158" on="1"/>
        <pt x="524" y="48" on="1"/>
        <pt x="515" y="41" on="0"/>
        <pt x="481" y="21" on="0"/>
        <pt x="371" y="-13" on="0"/>
        <pt x="314" y="-13" on="1"/>
        <pt x="191" y="-13" on="0"/>
        <pt x="48" y="138" on="0"/>
        <pt x="48" y="296" on="1"/>
        <pt x="48" y="472" on="0"/>
        <pt x="136" y="540" on="1"/>
        <pt x="214" y="601" on="0"/>
        <pt x="340" y="601" on="1"/>
        <pt x="426" y="601" on="0"/>
        <pt x="509" y="579" on="1"/>
      </contour>
    </TTGlyph>
    <TTGlyph name="caron" xMin="-107" yMin="658" xMax="300" yMax="824">
      <contour>
        <pt x="-107" y="763" on="1"/>
        <pt x="-74" y="824" on="1"/>
        <pt x="93" y="760" on="1"/>
        <pt x="100" y="760" on="1"/>
        <pt x="267" y="824" on="1"/>
        <pt x="300" y="763" on="1"/>
        <pt x="133" y="658" on="1"/>
        <pt x="60" y="658" on="1"/>
      </contour>
    </TTGlyph>
    <TTGlyph name="caron.cap" xMin="-8" yMin="754" xMax="399" yMax="915">
      <contour>
        <pt x="-8" y="854" on="1"/>
        <pt x="25" y="915" on="1"/>
        <pt x="192" y="856" on="1"/>
        <pt x="199" y="856" on="1"/>
        <pt x="366" y="915" on="1"/>
        <pt x="399" y="854" on="1"/>
        <pt x="232" y="754" on="1"/>
        <pt x="159" y="754" on="1"/>
      </contour>
    </TTGlyph>
    <TTGlyph name="ccedilla" xMin="48" yMin="-179" xMax="524" yMax="601">
      <contour>
        <pt x="492" y="462" on="1"/>
        <pt x="388" y="478" on="0"/>
        <pt x="267" y="478" on="0"/>
        <pt x="245" y="456" on="1"/>
        <pt x="208" y="417" on="0"/>
        <pt x="208" y="162" on="0"/>
        <pt x="256" y="125" on="1"/>
        <pt x="276" y="110" on="0"/>
        <pt x="306" y="110" on="1"/>
        <pt x="362" y="110" on="0"/>
        <pt x="452" y="146" on="1"/>
        <pt x="482" y="158" on="1"/>
        <pt x="524" y="48" on="1"/>
        <pt x="476" y="13" on="0"/>
        <pt x="399" y="-4" on="1"/>
        <pt x="407" y="-40" on="0"/>
        <pt x="407" y="-68" on="1"/>
        <pt x="407" y="-119" on="0"/>
        <pt x="343" y="-179" on="0"/>
        <pt x="286" y="-179" on="1"/>
        <pt x="251" y="-179" on="0"/>
        <pt x="199" y="-170" on="1"/>
        <pt x="199" y="-83" on="1"/>
        <pt x="244" y="-88" on="0"/>
        <pt x="300" y="-88" on="0"/>
        <pt x="320" y="-77" on="0"/>
        <pt x="320" y="-35" on="0"/>
        <pt x="315" y="-13" on="1"/>
        <pt x="314" y="-13" on="1"/>
        <pt x="191" y="-13" on="0"/>
        <pt x="48" y="138" on="0"/>
        <pt x="48" y="296" on="1"/>
        <pt x="48" y="472" on="0"/>
        <pt x="136" y="540" on="1"/>
        <pt x="214" y="601" on="0"/>
        <pt x="340" y="601" on="1"/>
        <pt x="426" y="601" on="0"/>
        <pt x="509" y="579" on="1"/>
      </contour>
    </TTGlyph>
    <TTGlyph name="cedilla" xMin="177" yMin="-179" xMax="385" yMax="40">
      <contour>
        <pt x="363" y="40" on="1"/>
        <pt x="385" y="-26" on="0"/>
        <pt x="385" y="-119" on="0"/>
        <pt x="321" y="-179" on="0"/>
        <pt x="264" y="-179" on="1"/>
        <pt x="229" y="-179" on="0"/>
        <pt x="177" y="-170" on="1"/>
        <pt x="177" y="-83" on="1"/>
        <pt x="222" y="-88" on="0"/>
        <pt x="278" y="-88" on="0"/>
        <pt x="298" y="-77" on="0"/>
        <pt x="298" y="-35" on="0"/>
        <pt x="287" y="20" on="1"/>
      </contour>
    </TTGlyph>
    <TTGlyph name="cent" xMin="48" yMin="-116" xMax="524" yMax="693">
      <contour>
        <pt x="375" y="-116" on="1"/>
        <pt x="251" y="-116" on="1"/>
        <pt x="251" y="-7" on="1"/>
        <pt x="48" y="31" on="0"/>
        <pt x="48" y="552" on="0"/>
        <pt x="251" y="593" on="1"/>
        <pt x="251" y="693" on="1"/>
        <pt x="375" y="693" on="1"/>
        <pt x="375" y="600" on="1"/>
        <pt x="438" y="597" on="0"/>
        <pt x="509" y="579" on="1"/>
        <pt x="492" y="462" on="1"/>
        <pt x="388" y="478" on="0"/>
        <pt x="268" y="478" on="0"/>
        <pt x="245" y="457" on="1"/>
        <pt x="208" y="423" on="0"/>
        <pt x="208" y="162" on="0"/>
        <pt x="256" y="125" on="1"/>
        <pt x="276" y="110" on="0"/>
        <pt x="306" y="110" on="1"/>
        <pt x="362" y="110" on="0"/>
        <pt x="452" y="146" on="1"/>
        <pt x="482" y="158" on="1"/>
        <pt x="524" y="48" on="1"/>
        <pt x="464" y="5" on="0"/>
        <pt x="375" y="-8" on="1"/>
      </contour>
    </TTGlyph>
    <TTGlyph name="circumflex" xMin="83" yMin="641" xMax="490" yMax="807">
      <contour>
        <pt x="490" y="702" on="1"/>
        <pt x="457" y="641" on="1"/>
        <pt x="290" y="705" on="1"/>
        <pt x="283" y="705" on="1"/>
        <pt x="116" y="641" on="1"/>
        <pt x="83" y="702" on="1"/>
        <pt x="250" y="807" on="1"/>
        <pt x="323" y="807" on="1"/>
      </contour>
    </TTGlyph>
    <TTGlyph name="circumflex.cap" xMin="-26" yMin="744" xMax="381" yMax="905">
      <contour>
        <pt x="381" y="805" on="1"/>
        <pt x="348" y="744" on="1"/>
        <pt x="181" y="803" on="1"/>
        <pt x="174" y="803" on="1"/>
        <pt x="7" y="744" on="1"/>
        <pt x="-26" y="805" on="1"/>
        <pt x="141" y="905" on="1"/>
        <pt x="214" y="905" on="1"/>
      </contour>
    </TTGlyph>
    <TTGlyph name="colon" xMin="81" yMin="0" xMax="256" yMax="553">
      <contour>
        <pt x="81" y="0" on="1"/>
        <pt x="81" y="137" on="1"/>
        <pt x="256" y="137" on="1"/>
        <pt x="256" y="0" on="1"/>
      </contour>
      <contour>
        <pt x="81" y="416" on="1"/>
        <pt x="81" y="553" on="1"/>
        <pt x="256" y="553" on="1"/>
        <pt x="256" y="416" on="1"/>
      </contour>
    </TTGlyph>
    <TTGlyph name="comma" xMin="44" yMin="-175" xMax="226" yMax="132">
      <contour>
        <pt x="76" y="-1" on="1"/>
        <pt x="76" y="132" on="1"/>
        <pt x="226" y="132" on="1"/>
        <pt x="226" y="41" on="1"/>
        <pt x="226" y="-108" on="0"/>
        <pt x="134" y="-175" on="1"/>
        <pt x="44" y="-131" on="1"/>
        <pt x="76" y="-84" on="0"/>
      </contour>
    </TTGlyph>
    <TTGlyph name="commaaccent" xMin="48" yMin="-295" xMax="206" yMax="-55">
      <contour>
        <pt x="76" y="-136" on="1"/>
        <pt x="76" y="-55" on="1"/>
        <pt x="206" y="-55" on="1"/>
        <pt x="206" y="-88" on="1"/>
        <pt x="206" y="-224" on="0"/>
        <pt x="115" y="-295" on="1"/>
        <pt x="48" y="-263" on="1"/>
        <pt x="76" y="-219" on="0"/>
      </contour>
    </TTGlyph>
    <TTGlyph name="copyright" xMin="50" yMin="-49" xMax="782" yMax="689">
      <contour>
        <pt x="255" y="-49" on="0"/>
        <pt x="50" y="159" on="0"/>
        <pt x="50" y="479" on="0"/>
        <pt x="261" y="689" on="0"/>
        <pt x="575" y="689" on="0"/>
        <pt x="782" y="481" on="0"/>
        <pt x="782" y="159" on="0"/>
        <pt x="575" y="-49" on="0"/>
      </contour>
      <contour>
        <pt x="292" y="599" on="0"/>
        <pt x="142" y="448" on="0"/>
        <pt x="142" y="190" on="0"/>
        <pt x="287" y="41" on="0"/>
        <pt x="544" y="41" on="0"/>
        <pt x="690" y="191" on="0"/>
        <pt x="690" y="449" on="0"/>
        <pt x="544" y="599" on="0"/>
      </contour>
      <contour>
        <pt x="459" y="539" on="0"/>
        <pt x="536" y="525" on="0"/>
        <pt x="551" y="516" on="1"/>
        <pt x="535" y="419" on="1"/>
        <pt x="469" y="430" on="0"/>
        <pt x="397" y="430" on="0"/>
        <pt x="385" y="418" on="1"/>
        <pt x="364" y="397" on="0"/>
        <pt x="364" y="248" on="0"/>
        <pt x="385" y="227" on="1"/>
        <pt x="395" y="217" on="0"/>
        <pt x="416" y="217" on="1"/>
        <pt x="468" y="217" on="0"/>
        <pt x="537" y="239" on="1"/>
        <pt x="563" y="140" on="1"/>
        <pt x="533" y="124" on="0"/>
        <pt x="464" y="109" on="0"/>
        <pt x="425" y="109" on="1"/>
        <pt x="336" y="109" on="0"/>
        <pt x="227" y="210" on="0"/>
        <pt x="227" y="319" on="1"/>
        <pt x="227" y="451" on="0"/>
        <pt x="290" y="498" on="1"/>
        <pt x="320" y="521" on="0"/>
        <pt x="390" y="539" on="0"/>
      </contour>
    </TTGlyph>
    <TTGlyph name="currency" xMin="53" yMin="73" xMax="606" yMax="626">
      <contour>
        <pt x="465" y="135" on="1"/>
        <pt x="400" y="98" on="0"/>
        <pt x="259" y="98" on="0"/>
        <pt x="194" y="135" on="1"/>
        <pt x="132" y="73" on="1"/>
        <pt x="53" y="153" on="1"/>
        <pt x="114" y="214" on="1"/>
        <pt x="78" y="274" on="0"/>
        <pt x="78" y="425" on="0"/>
        <pt x="114" y="485" on="1"/>
        <pt x="53" y="547" on="1"/>
        <pt x="133" y="626" on="1"/>
        <pt x="195" y="564" on="1"/>
        <pt x="258" y="601" on="0"/>
        <pt x="398" y="601" on="0"/>
        <pt x="463" y="563" on="1"/>
        <pt x="526" y="626" on="1"/>
        <pt x="605" y="546" on="1"/>
        <pt x="544" y="485" on="1"/>
        <pt x="581" y="426" on="0"/>
        <pt x="581" y="274" on="0"/>
        <pt x="545" y="214" on="1"/>
        <pt x="606" y="153" on="1"/>
        <pt x="526" y="74" on="1"/>
      </contour>
      <contour>
        <pt x="459" y="417" on="0"/>
        <pt x="389" y="484" on="0"/>
        <pt x="270" y="484" on="0"/>
        <pt x="199" y="417" on="0"/>
        <pt x="199" y="282" on="0"/>
        <pt x="270" y="215" on="0"/>
        <pt x="397" y="215" on="0"/>
        <pt x="459" y="279" on="0"/>
      </contour>
    </TTGlyph>
    <TTGlyph name="d" xMin="48" yMin="-13" xMax="554" yMax="761">
      <contour>
        <pt x="554" y="761" on="1"/>
        <pt x="554" y="0" on="1"/>
        <pt x="454" y="0" on="1"/>
        <pt x="438" y="57" on="1"/>
        <pt x="432" y="57" on="1"/>
        <pt x="328" y="-13" on="0"/>
        <pt x="161" y="-13" on="0"/>
        <pt x="48" y="139" on="0"/>
        <pt x="48" y="290" on="1"/>
        <pt x="48" y="381" on="0"/>
        <pt x="91" y="509" on="0"/>
        <pt x="128" y="542" on="1"/>
        <pt x="194" y="601" on="0"/>
        <pt x="285" y="601" on="1"/>
        <pt x="337" y="601" on="0"/>
        <pt x="399" y="586" on="1"/>
        <pt x="399" y="761" on="1"/>
      </contour>
      <contour>
        <pt x="399" y="455" on="1"/>
        <pt x="342" y="476" on="0"/>
        <pt x="252" y="476" on="0"/>
        <pt x="237" y="460" on="1"/>
        <pt x="208" y="429" on="0"/>
        <pt x="208" y="153" on="0"/>
        <pt x="236" y="130" on="1"/>
        <pt x="251" y="118" on="0"/>
        <pt x="274" y="118" on="1"/>
        <pt x="321" y="118" on="0"/>
        <pt x="399" y="151" on="1"/>
      </contour>
    </TTGlyph>
    <TTGlyph name="degree" xMin="6" yMin="390" xMax="346" yMax="730">
      <contour>
        <pt x="6" y="647" on="0"/>
        <pt x="104" y="730" on="0"/>
        <pt x="247" y="730" on="0"/>
        <pt x="346" y="647" on="0"/>
        <pt x="346" y="474" on="0"/>
        <pt x="247" y="390" on="0"/>
        <pt x="105" y="390" on="0"/>
        <pt x="6" y="474" on="0"/>
      </contour>
      <contour>
        <pt x="228" y="614" on="0"/>
        <pt x="124" y="614" on="0"/>
        <pt x="124" y="506" on="0"/>
        <pt x="228" y="506" on="0"/>
      </contour>
    </TTGlyph>
    <TTGlyph name="dieresis" xMin="113" yMin="668" xMax="505" yMax="776">
      <contour>
        <pt x="260" y="668" on="1"/>
        <pt x="113" y="668" on="1"/>
        <pt x="113" y="776" on="1"/>
        <pt x="260" y="776" on="1"/>
      </contour>
      <contour>
        <pt x="505" y="668" on="1"/>
        <pt x="358" y="668" on="1"/>
        <pt x="358" y="776" on="1"/>
        <pt x="505" y="776" on="1"/>
      </contour>
    </TTGlyph>
    <TTGlyph name="dieresis.cap" xMin="46" yMin="766" xMax="438" yMax="874">
      <contour>
        <pt x="193" y="766" on="1"/>
        <pt x="46" y="766" on="1"/>
        <pt x="46" y="874" on="1"/>
        <pt x="193" y="874" on="1"/>
      </contour>
      <contour>
        <pt x="438" y="766" on="1"/>
        <pt x="291" y="766" on="1"/>
        <pt x="291" y="874" on="1"/>
        <pt x="438" y="874" on="1"/>
      </contour>
    </TTGlyph>
    <TTGlyph name="divide" xMin="30" yMin="0" xMax="617" yMax="588">
      <contour>
        <pt x="30" y="227" on="1"/>
        <pt x="30" y="360" on="1"/>
        <pt x="617" y="360" on="1"/>
        <pt x="617" y="227" on="1"/>
      </contour>
      <contour>
        <pt x="234" y="0" on="1"/>
        <pt x="234" y="134" on="1"/>
        <pt x="409" y="134" on="1"/>
        <pt x="409" y="0" on="1"/>
      </contour>
      <contour>
        <pt x="234" y="454" on="1"/>
        <pt x="234" y="588" on="1"/>
        <pt x="409" y="588" on="1"/>
        <pt x="409" y="454" on="1"/>
      </contour>
    </TTGlyph>
    <TTGlyph name="dollar" xMin="14" yMin="-116" xMax="510" yMax="803">
      <contour>
        <pt x="326" y="-116" on="1"/>
        <pt x="202" y="-116" on="1"/>
        <pt x="202" y="-9" on="1"/>
        <pt x="156" y="-3" on="0"/>
        <pt x="62" y="26" on="0"/>
        <pt x="14" y="49" on="1"/>
        <pt x="16" y="57" on="0"/>
        <pt x="20" y="70" on="1"/>
        <pt x="27" y="88" on="0"/>
        <pt x="53" y="174" on="1"/>
        <pt x="176" y="125" on="0"/>
        <pt x="279" y="125" on="1"/>
        <pt x="308" y="125" on="0"/>
        <pt x="350" y="151" on="0"/>
        <pt x="350" y="233" on="0"/>
        <pt x="291" y="277" on="0"/>
        <pt x="182" y="321" on="0"/>
        <pt x="125" y="351" on="0"/>
        <pt x="93" y="376" on="1"/>
        <pt x="29" y="428" on="0"/>
        <pt x="29" y="519" on="1"/>
        <pt x="29" y="590" on="0"/>
        <pt x="118" y="693" on="0"/>
        <pt x="202" y="709" on="1"/>
        <pt x="202" y="803" on="1"/>
        <pt x="326" y="803" on="1"/>
        <pt x="326" y="713" on="1"/>
        <pt x="399" y="707" on="0"/>
        <pt x="485" y="683" on="1"/>
        <pt x="460" y="555" on="1"/>
        <pt x="340" y="578" on="0"/>
        <pt x="259" y="578" on="1"/>
        <pt x="226" y="578" on="0"/>
        <pt x="190" y="553" on="0"/>
        <pt x="190" y="498" on="0"/>
        <pt x="225" y="463" on="0"/>
        <pt x="265" y="444" on="0"/>
        <pt x="356" y="406" on="0"/>
        <pt x="410" y="378" on="0"/>
        <pt x="444" y="352" on="1"/>
        <pt x="510" y="300" on="0"/>
        <pt x="510" y="122" on="0"/>
        <pt x="410" y="11" on="0"/>
        <pt x="326" y="-6" on="1"/>
      </contour>
    </TTGlyph>
    <TTGlyph name="dotaccentcmb" xMin="48" yMin="668" xMax="195" yMax="776">
      <contour>
        <pt x="195" y="668" on="1"/>
        <pt x="48" y="668" on="1"/>
        <pt x="48" y="776" on="1"/>
        <pt x="195" y="776" on="1"/>
      </contour>
    </TTGlyph>
    <TTGlyph name="dotaccentcmb.cap" xMin="115" yMin="746" xMax="262" yMax="854">
      <contour>
        <pt x="262" y="746" on="1"/>
        <pt x="115" y="746" on="1"/>
        <pt x="115" y="854" on="1"/>
        <pt x="262" y="854" on="1"/>
      </contour>
    </TTGlyph>
    <TTGlyph name="dotlessi" xMin="84" yMin="0" xMax="239" yMax="588">
      <contour>
        <pt x="239" y="0" on="1"/>
        <pt x="84" y="0" on="1"/>
        <pt x="84" y="588" on="1"/>
        <pt x="239" y="588" on="1"/>
      </contour>
    </TTGlyph>
    <TTGlyph name="dotlessj" xMin="-38" yMin="-179" xMax="262" yMax="588">
      <contour>
        <pt x="262" y="588" on="1"/>
        <pt x="262" y="69" on="1"/>
        <pt x="262" y="-61" on="0"/>
        <pt x="153" y="-179" on="0"/>
        <pt x="69" y="-179" on="1"/>
        <pt x="32" y="-179" on="0"/>
        <pt x="-38" y="-169" on="1"/>
        <pt x="-22" y="-43" on="1"/>
        <pt x="32" y="-51" on="0"/>
        <pt x="92" y="-51" on="0"/>
        <pt x="107" y="-10" on="0"/>
        <pt x="107" y="70" on="1"/>
        <pt x="107" y="588" on="1"/>
      </contour>
    </TTGlyph>
    <TTGlyph name="e" xMin="48" yMin="-13" xMax="561" yMax="601">
      <contour>
        <pt x="320" y="-13" on="1"/>
        <pt x="48" y="-13" on="0"/>
        <pt x="48" y="601" on="0"/>
        <pt x="318" y="601" on="1"/>
        <pt x="439" y="601" on="0"/>
        <pt x="561" y="472" on="0"/>
        <pt x="561" y="323" on="1"/>
        <pt x="561" y="240" on="1"/>
        <pt x="209" y="240" on="1"/>
        <pt x="209" y="156" on="0"/>
        <pt x="240" y="129" on="1"/>
        <pt x="261" y="110" on="0"/>
        <pt x="299" y="110" on="1"/>
        <pt x="369" y="110" on="0"/>
        <pt x="477" y="142" on="1"/>
        <pt x="512" y="153" on="1"/>
        <pt x="550" y="41" on="1"/>
        <pt x="505" y="20" on="0"/>
        <pt x="371" y="-13" on="0"/>
      </contour>
      <contour>
        <pt x="385" y="457" on="1"/>
        <pt x="367" y="479" on="0"/>
        <pt x="259" y="479" on="0"/>
        <pt x="213" y="427" on="0"/>
        <pt x="210" y="352" on="1"/>
        <pt x="403" y="356" on="1"/>
        <pt x="401" y="435" on="0"/>
      </contour>
    </TTGlyph>
    <TTGlyph name="eacute" xMin="48" yMin="-13" xMax="561" yMax="816">
      <contour>
        <pt x="320" y="-13" on="1"/>
        <pt x="48" y="-13" on="0"/>
        <pt x="48" y="601" on="0"/>
        <pt x="318" y="601" on="1"/>
        <pt x="439" y="601" on="0"/>
        <pt x="561" y="472" on="0"/>
        <pt x="561" y="323" on="1"/>
        <pt x="561" y="240" on="1"/>
        <pt x="209" y="240" on="1"/>
        <pt x="209" y="156" on="0"/>
        <pt x="240" y="129" on="1"/>
        <pt x="261" y="110" on="0"/>
        <pt x="299" y="110" on="1"/>
        <pt x="369" y="110" on="0"/>
        <pt x="477" y="142" on="1"/>
        <pt x="512" y="153" on="1"/>
        <pt x="550" y="41" on="1"/>
        <pt x="505" y="20" on="0"/>
        <pt x="371" y="-13" on="0"/>
      </contour>
      <contour>
        <pt x="385" y="457" on="1"/>
        <pt x="367" y="479" on="0"/>
        <pt x="259" y="479" on="0"/>
        <pt x="213" y="427" on="0"/>
        <pt x="210" y="352" on="1"/>
        <pt x="403" y="356" on="1"/>
        <pt x="401" y="435" on="0"/>
      </contour>
      <contour>
        <pt x="451" y="816" on="1"/>
        <pt x="482" y="704" on="1"/>
        <pt x="180" y="646" on="1"/>
        <pt x="158" y="729" on="1"/>
      </contour>
    </TTGlyph>
    <TTGlyph name="ecircumflex" xMin="48" yMin="-13" xMax="561" yMax="807">
      <contour>
        <pt x="320" y="-13" on="1"/>
        <pt x="48" y="-13" on="0"/>
        <pt x="48" y="601" on="0"/>
        <pt x="318" y="601" on="1"/>
        <pt x="439" y="601" on="0"/>
        <pt x="561" y="472" on="0"/>
        <pt x="561" y="323" on="1"/>
        <pt x="561" y="240" on="1"/>
        <pt x="209" y="240" on="1"/>
        <pt x="209" y="156" on="0"/>
        <pt x="240" y="129" on="1"/>
        <pt x="261" y="110" on="0"/>
        <pt x="299" y="110" on="1"/>
        <pt x="369" y="110" on="0"/>
        <pt x="477" y="142" on="1"/>
        <pt x="512" y="153" on="1"/>
        <pt x="550" y="41" on="1"/>
        <pt x="505" y="20" on="0"/>
        <pt x="371" y="-13" on="0"/>
      </contour>
      <contour>
        <pt x="385" y="457" on="1"/>
        <pt x="367" y="479" on="0"/>
        <pt x="259" y="479" on="0"/>
        <pt x="213" y="427" on="0"/>
        <pt x="210" y="352" on="1"/>
        <pt x="403" y="356" on="1"/>
        <pt x="401" y="435" on="0"/>
      </contour>
      <contour>
        <pt x="519" y="702" on="1"/>
        <pt x="486" y="641" on="1"/>
        <pt x="319" y="705" on="1"/>
        <pt x="312" y="705" on="1"/>
        <pt x="145" y="641" on="1"/>
        <pt x="112" y="702" on="1"/>
        <pt x="279" y="807" on="1"/>
        <pt x="352" y="807" on="1"/>
      </contour>
    </TTGlyph>
    <TTGlyph name="edieresis" xMin="48" yMin="-13" xMax="561" yMax="776">
      <contour>
        <pt x="320" y="-13" on="1"/>
        <pt x="48" y="-13" on="0"/>
        <pt x="48" y="601" on="0"/>
        <pt x="318" y="601" on="1"/>
        <pt x="439" y="601" on="0"/>
        <pt x="561" y="472" on="0"/>
        <pt x="561" y="323" on="1"/>
        <pt x="561" y="240" on="1"/>
        <pt x="209" y="240" on="1"/>
        <pt x="209" y="156" on="0"/>
        <pt x="240" y="129" on="1"/>
        <pt x="261" y="110" on="0"/>
        <pt x="299" y="110" on="1"/>
        <pt x="369" y="110" on="0"/>
        <pt x="477" y="142" on="1"/>
        <pt x="512" y="153" on="1"/>
        <pt x="550" y="41" on="1"/>
        <pt x="505" y="20" on="0"/>
        <pt x="371" y="-13" on="0"/>
      </contour>
      <contour>
        <pt x="385" y="457" on="1"/>
        <pt x="367" y="479" on="0"/>
        <pt x="259" y="479" on="0"/>
        <pt x="213" y="427" on="0"/>
        <pt x="210" y="352" on="1"/>
        <pt x="403" y="356" on="1"/>
        <pt x="401" y="435" on="0"/>
      </contour>
      <contour>
        <pt x="259" y="668" on="1"/>
        <pt x="112" y="668" on="1"/>
        <pt x="112" y="776" on="1"/>
        <pt x="259" y="776" on="1"/>
      </contour>
      <contour>
        <pt x="504" y="668" on="1"/>
        <pt x="357" y="668" on="1"/>
        <pt x="357" y="776" on="1"/>
        <pt x="504" y="776" on="1"/>
      </contour>
    </TTGlyph>
    <TTGlyph name="egrave" xMin="48" yMin="-13" xMax="561" yMax="812">
      <contour>
        <pt x="320" y="-13" on="1"/>
        <pt x="48" y="-13" on="0"/>
        <pt x="48" y="601" on="0"/>
        <pt x="318" y="601" on="1"/>
        <pt x="439" y="601" on="0"/>
        <pt x="561" y="472" on="0"/>
        <pt x="561" y="323" on="1"/>
        <pt x="561" y="240" on="1"/>
        <pt x="209" y="240" on="1"/>
        <pt x="209" y="156" on="0"/>
        <pt x="240" y="129" on="1"/>
        <pt x="261" y="110" on="0"/>
        <pt x="299" y="110" on="1"/>
        <pt x="369" y="110" on="0"/>
        <pt x="477" y="142" on="1"/>
        <pt x="512" y="153" on="1"/>
        <pt x="550" y="41" on="1"/>
        <pt x="505" y="20" on="0"/>
        <pt x="371" y="-13" on="0"/>
      </contour>
      <contour>
        <pt x="385" y="457" on="1"/>
        <pt x="367" y="479" on="0"/>
        <pt x="259" y="479" on="0"/>
        <pt x="213" y="427" on="0"/>
        <pt x="210" y="352" on="1"/>
        <pt x="403" y="356" on="1"/>
        <pt x="401" y="435" on="0"/>
      </contour>
      <contour>
        <pt x="148" y="704" on="1"/>
        <pt x="174" y="812" on="1"/>
        <pt x="472" y="729" on="1"/>
        <pt x="453" y="646" on="1"/>
      </contour>
    </TTGlyph>
    <TTGlyph name="eight" xMin="25" yMin="-13" xMax="555" yMax="716">
      <contour>
        <pt x="54" y="612" on="0"/>
        <pt x="177" y="716" on="0"/>
        <pt x="404" y="716" on="0"/>
        <pt x="526" y="610" on="0"/>
        <pt x="526" y="526" on="1"/>
        <pt x="526" y="425" on="0"/>
        <pt x="437" y="364" on="1"/>
        <pt x="485" y="342" on="0"/>
        <pt x="555" y="255" on="0"/>
        <pt x="555" y="196" on="1"/>
        <pt x="555" y="110" on="0"/>
        <pt x="409" y="-13" on="0"/>
        <pt x="164" y="-13" on="0"/>
        <pt x="25" y="116" on="0"/>
        <pt x="25" y="204" on="1"/>
        <pt x="25" y="257" on="0"/>
        <pt x="83" y="345" on="0"/>
        <pt x="127" y="373" on="1"/>
        <pt x="54" y="427" on="0"/>
      </contour>
      <contour>
        <pt x="397" y="195" on="1"/>
        <pt x="397" y="234" on="0"/>
        <pt x="339" y="282" on="0"/>
        <pt x="262" y="305" on="1"/>
        <pt x="223" y="291" on="0"/>
        <pt x="183" y="245" on="0"/>
        <pt x="183" y="204" on="1"/>
        <pt x="183" y="119" on="0"/>
        <pt x="397" y="119" on="0"/>
      </contour>
      <contour>
        <pt x="372" y="516" on="1"/>
        <pt x="372" y="593" on="0"/>
        <pt x="207" y="593" on="0"/>
        <pt x="207" y="526" on="1"/>
        <pt x="207" y="491" on="0"/>
        <pt x="251" y="443" on="0"/>
        <pt x="303" y="423" on="1"/>
        <pt x="372" y="452" on="0"/>
      </contour>
    </TTGlyph>
    <TTGlyph name="emdash" xMin="48" yMin="261" xMax="794" yMax="393">
      <contour>
        <pt x="48" y="261" on="1"/>
        <pt x="48" y="393" on="1"/>
        <pt x="794" y="393" on="1"/>
        <pt x="794" y="261" on="1"/>
      </contour>
    </TTGlyph>
    <TTGlyph name="endash" xMin="28" yMin="261" xMax="566" yMax="393">
      <contour>
        <pt x="566" y="393" on="1"/>
        <pt x="566" y="261" on="1"/>
        <pt x="28" y="261" on="1"/>
        <pt x="29" y="393" on="1"/>
      </contour>
    </TTGlyph>
    <TTGlyph name="equal" xMin="30" yMin="79" xMax="619" yMax="504">
      <contour>
        <pt x="30" y="371" on="1"/>
        <pt x="30" y="504" on="1"/>
        <pt x="619" y="504" on="1"/>
        <pt x="619" y="371" on="1"/>
      </contour>
      <contour>
        <pt x="30" y="79" on="1"/>
        <pt x="30" y="212" on="1"/>
        <pt x="619" y="212" on="1"/>
        <pt x="619" y="79" on="1"/>
      </contour>
    </TTGlyph>
    <TTGlyph name="eth" xMin="54" yMin="-13" xMax="570" yMax="774">
      <contour>
        <pt x="292" y="522" on="1"/>
        <pt x="375" y="522" on="0"/>
        <pt x="438" y="481" on="1"/>
        <pt x="444" y="484" on="1"/>
        <pt x="425" y="538" on="0"/>
        <pt x="375" y="594" on="1"/>
        <pt x="245" y="549" on="1"/>
        <pt x="237" y="639" on="1"/>
        <pt x="305" y="663" on="1"/>
        <pt x="253" y="705" on="1"/>
        <pt x="342" y="774" on="1"/>
        <pt x="394" y="746" on="0"/>
        <pt x="435" y="711" on="1"/>
        <pt x="532" y="746" on="1"/>
        <pt x="539" y="652" on="1"/>
        <pt x="497" y="637" on="1"/>
        <pt x="570" y="528" on="0"/>
        <pt x="570" y="317" on="1"/>
        <pt x="570" y="157" on="0"/>
        <pt x="451" y="-13" on="0"/>
        <pt x="176" y="-13" on="0"/>
        <pt x="54" y="135" on="0"/>
        <pt x="54" y="373" on="0"/>
        <pt x="170" y="522" on="0"/>
      </contour>
      <contour>
        <pt x="370" y="404" on="0"/>
        <pt x="256" y="404" on="0"/>
        <pt x="212" y="338" on="0"/>
        <pt x="212" y="170" on="0"/>
        <pt x="255" y="105" on="0"/>
        <pt x="370" y="105" on="0"/>
        <pt x="412" y="170" on="0"/>
        <pt x="412" y="339" on="0"/>
      </contour>
    </TTGlyph>
    <TTGlyph name="exclam" xMin="60" yMin="0" xMax="235" yMax="703">
      <contour>
        <pt x="213" y="203" on="1"/>
        <pt x="79" y="203" on="1"/>
        <pt x="63" y="703" on="1"/>
        <pt x="231" y="703" on="1"/>
      </contour>
      <contour>
        <pt x="60" y="0" on="1"/>
        <pt x="60" y="134" on="1"/>
        <pt x="235" y="134" on="1"/>
        <pt x="235" y="0" on="1"/>
      </contour>
    </TTGlyph>
    <TTGlyph name="exclamdown" xMin="58" yMin="-114" xMax="233" yMax="588">
      <contour>
        <pt x="79" y="385" on="1"/>
        <pt x="214" y="385" on="1"/>
        <pt x="231" y="-114" on="1"/>
        <pt x="63" y="-114" on="1"/>
      </contour>
      <contour>
        <pt x="58" y="454" on="1"/>
        <pt x="58" y="588" on="1"/>
        <pt x="233" y="588" on="1"/>
        <pt x="233" y="454" on="1"/>
      </contour>
    </TTGlyph>
    <TTGlyph name="f" xMin="28" yMin="0" xMax="404" yMax="774">
      <contour>
        <pt x="383" y="559" on="1"/>
        <pt x="383" y="440" on="1"/>
        <pt x="251" y="440" on="1"/>
        <pt x="251" y="0" on="1"/>
        <pt x="96" y="0" on="1"/>
        <pt x="96" y="443" on="1"/>
        <pt x="28" y="443" on="1"/>
        <pt x="28" y="540" on="1"/>
        <pt x="97" y="554" on="1"/>
        <pt x="106" y="676" on="0"/>
        <pt x="217" y="774" on="0"/>
        <pt x="313" y="774" on="1"/>
        <pt x="404" y="770" on="1"/>
        <pt x="393" y="647" on="1"/>
        <pt x="346" y="651" on="0"/>
        <pt x="276" y="651" on="0"/>
        <pt x="252" y="619" on="0"/>
        <pt x="251" y="559" on="1"/>
      </contour>
    </TTGlyph>
    <TTGlyph name="five" xMin="5" yMin="-13" xMax="517" yMax="703">
      <contour>
        <pt x="486" y="703" on="1"/>
        <pt x="486" y="573" on="1"/>
        <pt x="247" y="577" on="1"/>
        <pt x="227" y="444" on="1"/>
        <pt x="444" y="431" on="0"/>
        <pt x="496" y="325" on="1"/>
        <pt x="517" y="282" on="0"/>
        <pt x="517" y="221" on="1"/>
        <pt x="517" y="111" on="0"/>
        <pt x="383" y="-13" on="0"/>
        <pt x="266" y="-13" on="1"/>
        <pt x="203" y="-13" on="0"/>
        <pt x="73" y="26" on="0"/>
        <pt x="39" y="46" on="1"/>
        <pt x="5" y="66" on="1"/>
        <pt x="51" y="180" on="1"/>
        <pt x="195" y="123" on="0"/>
        <pt x="280" y="123" on="1"/>
        <pt x="315" y="123" on="0"/>
        <pt x="356" y="153" on="0"/>
        <pt x="356" y="275" on="0"/>
        <pt x="334" y="292" on="1"/>
        <pt x="305" y="316" on="0"/>
        <pt x="174" y="316" on="1"/>
        <pt x="56" y="314" on="1"/>
        <pt x="117" y="703" on="1"/>
      </contour>
    </TTGlyph>
    <TTGlyph name="four" xMin="7" yMin="0" xMax="551" yMax="717">
      <contour>
        <pt x="485" y="517" on="1"/>
        <pt x="485" y="273" on="1"/>
        <pt x="551" y="275" on="1"/>
        <pt x="551" y="140" on="1"/>
        <pt x="485" y="140" on="1"/>
        <pt x="486" y="0" on="1"/>
        <pt x="331" y="0" on="1"/>
        <pt x="331" y="140" on="1"/>
        <pt x="7" y="140" on="1"/>
        <pt x="7" y="240" on="1"/>
        <pt x="179" y="717" on="1"/>
        <pt x="328" y="698" on="1"/>
        <pt x="172" y="269" on="1"/>
        <pt x="172" y="263" on="1"/>
        <pt x="332" y="269" on="1"/>
        <pt x="366" y="517" on="1"/>
      </contour>
    </TTGlyph>
    <TTGlyph name="g" xMin="25" yMin="-179" xMax="554" yMax="601">
      <contour>
        <pt x="517" y="377" on="1"/>
        <pt x="517" y="290" on="0"/>
        <pt x="380" y="175" on="0"/>
        <pt x="261" y="174" on="1"/>
        <pt x="259" y="156" on="0"/>
        <pt x="259" y="150" on="0"/>
        <pt x="279" y="142" on="0"/>
        <pt x="309" y="132" on="1"/>
        <pt x="451" y="82" on="0"/>
        <pt x="534" y="9" on="0"/>
        <pt x="534" y="-35" on="1"/>
        <pt x="534" y="-104" on="0"/>
        <pt x="392" y="-179" on="0"/>
        <pt x="277" y="-179" on="1"/>
        <pt x="222" y="-179" on="0"/>
        <pt x="102" y="-162" on="0"/>
        <pt x="37" y="-145" on="1"/>
        <pt x="54" y="-27" on="1"/>
        <pt x="240" y="-56" on="0"/>
        <pt x="391" y="-56" on="0"/>
        <pt x="391" y="-40" on="1"/>
        <pt x="391" y="-29" on="0"/>
        <pt x="220" y="31" on="1"/>
        <pt x="145" y="58" on="0"/>
        <pt x="130" y="70" on="0"/>
        <pt x="130" y="78" on="1"/>
        <pt x="130" y="94" on="0"/>
        <pt x="169" y="190" on="1"/>
        <pt x="25" y="240" on="0"/>
        <pt x="25" y="386" on="1"/>
        <pt x="25" y="444" on="0"/>
        <pt x="69" y="530" on="0"/>
        <pt x="108" y="554" on="1"/>
        <pt x="184" y="601" on="0"/>
        <pt x="300" y="601" on="1"/>
        <pt x="554" y="589" on="1"/>
        <pt x="554" y="499" on="1"/>
        <pt x="492" y="489" on="1"/>
        <pt x="517" y="435" on="0"/>
      </contour>
      <contour>
        <pt x="337" y="287" on="0"/>
        <pt x="378" y="331" on="0"/>
        <pt x="378" y="469" on="0"/>
        <pt x="356" y="491" on="0"/>
        <pt x="217" y="491" on="0"/>
        <pt x="170" y="454" on="0"/>
        <pt x="170" y="329" on="0"/>
        <pt x="213" y="287" on="0"/>
      </contour>
    </TTGlyph>
    <TTGlyph name="germandbls" xMin="83" yMin="-13" xMax="609" yMax="716">
      <contour>
        <pt x="239" y="0" on="1"/>
        <pt x="83" y="0" on="1"/>
        <pt x="83" y="455" on="1"/>
        <pt x="83" y="523" on="0"/>
        <pt x="125" y="627" on="0"/>
        <pt x="161" y="657" on="1"/>
        <pt x="232" y="716" on="0"/>
        <pt x="433" y="716" on="0"/>
        <pt x="579" y="614" on="0"/>
        <pt x="579" y="514" on="1"/>
        <pt x="579" y="464" on="0"/>
        <pt x="530" y="389" on="0"/>
        <pt x="498" y="373" on="1"/>
        <pt x="498" y="367" on="1"/>
        <pt x="609" y="325" on="0"/>
        <pt x="609" y="203" on="1"/>
        <pt x="609" y="144" on="0"/>
        <pt x="569" y="56" on="0"/>
        <pt x="535" y="32" on="1"/>
        <pt x="469" y="-13" on="0"/>
        <pt x="385" y="-13" on="1"/>
        <pt x="310" y="-7" on="1"/>
        <pt x="323" y="114" on="1"/>
        <pt x="343" y="113" on="0"/>
        <pt x="412" y="113" on="0"/>
        <pt x="446" y="159" on="0"/>
        <pt x="446" y="262" on="0"/>
        <pt x="397" y="304" on="0"/>
        <pt x="349" y="304" on="1"/>
        <pt x="329" y="304" on="1"/>
        <pt x="329" y="422" on="1"/>
        <pt x="389" y="426" on="0"/>
        <pt x="429" y="463" on="0"/>
        <pt x="429" y="506" on="1"/>
        <pt x="429" y="593" on="0"/>
        <pt x="331" y="593" on="1"/>
        <pt x="239" y="593" on="0"/>
        <pt x="239" y="467" on="1"/>
      </contour>
    </TTGlyph>
    <TTGlyph name="grave" xMin="148" yMin="646" xMax="472" yMax="812">
      <contour>
        <pt x="148" y="704" on="1"/>
        <pt x="174" y="812" on="1"/>
        <pt x="472" y="729" on="1"/>
        <pt x="453" y="646" on="1"/>
      </contour>
    </TTGlyph>
    <TTGlyph name="grave.cap" xMin="97" yMin="752" xMax="421" yMax="909">
      <contour>
        <pt x="97" y="799" on="1"/>
        <pt x="122" y="909" on="1"/>
        <pt x="421" y="835" on="1"/>
        <pt x="404" y="752" on="1"/>
      </contour>
    </TTGlyph>
    <TTGlyph name="greater" xMin="53" yMin="4" xMax="636" yMax="588">
      <contour>
        <pt x="53" y="588" on="1"/>
        <pt x="636" y="349" on="1"/>
        <pt x="636" y="243" on="1"/>
        <pt x="53" y="4" on="1"/>
        <pt x="53" y="150" on="1"/>
        <pt x="419" y="293" on="1"/>
        <pt x="419" y="299" on="1"/>
        <pt x="53" y="442" on="1"/>
      </contour>
    </TTGlyph>
    <TTGlyph name="guillemotleft" xMin="18" yMin="74" xMax="568" yMax="616">
      <contour>
        <pt x="294" y="141" on="1"/>
        <pt x="179" y="74" on="1"/>
        <pt x="18" y="345" on="1"/>
        <pt x="179" y="616" on="1"/>
        <pt x="294" y="549" on="1"/>
        <pt x="170" y="348" on="1"/>
        <pt x="170" y="342" on="1"/>
      </contour>
      <contour>
        <pt x="568" y="145" on="1"/>
        <pt x="454" y="78" on="1"/>
        <pt x="295" y="345" on="1"/>
        <pt x="454" y="612" on="1"/>
        <pt x="568" y="545" on="1"/>
        <pt x="447" y="348" on="1"/>
        <pt x="447" y="342" on="1"/>
      </contour>
    </TTGlyph>
    <TTGlyph name="guillemotright" xMin="17" yMin="74" xMax="567" yMax="616">
      <contour>
        <pt x="406" y="74" on="1"/>
        <pt x="291" y="141" on="1"/>
        <pt x="415" y="342" on="1"/>
        <pt x="415" y="348" on="1"/>
        <pt x="291" y="549" on="1"/>
        <pt x="406" y="616" on="1"/>
        <pt x="567" y="345" on="1"/>
      </contour>
      <contour>
        <pt x="131" y="78" on="1"/>
        <pt x="17" y="145" on="1"/>
        <pt x="138" y="342" on="1"/>
        <pt x="138" y="348" on="1"/>
        <pt x="17" y="545" on="1"/>
        <pt x="131" y="612" on="1"/>
        <pt x="290" y="345" on="1"/>
      </contour>
    </TTGlyph>
    <TTGlyph name="guilsinglleft" xMin="18" yMin="78" xMax="295" yMax="612">
      <contour>
        <pt x="295" y="148" on="1"/>
        <pt x="177" y="78" on="1"/>
        <pt x="18" y="345" on="1"/>
        <pt x="177" y="612" on="1"/>
        <pt x="295" y="542" on="1"/>
        <pt x="172" y="348" on="1"/>
        <pt x="172" y="342" on="1"/>
      </contour>
    </TTGlyph>
    <TTGlyph name="guilsinglright" xMin="17" yMin="78" xMax="294" yMax="612">
      <contour>
        <pt x="135" y="78" on="1"/>
        <pt x="17" y="148" on="1"/>
        <pt x="140" y="342" on="1"/>
        <pt x="140" y="348" on="1"/>
        <pt x="17" y="542" on="1"/>
        <pt x="135" y="612" on="1"/>
        <pt x="294" y="345" on="1"/>
      </contour>
    </TTGlyph>
    <TTGlyph name="h" xMin="74" yMin="0" xMax="561" yMax="761">
      <contour>
        <pt x="74" y="0" on="1"/>
        <pt x="74" y="761" on="1"/>
        <pt x="229" y="761" on="1"/>
        <pt x="229" y="551" on="1"/>
        <pt x="333" y="603" on="0"/>
        <pt x="495" y="603" on="0"/>
        <pt x="561" y="488" on="0"/>
        <pt x="561" y="385" on="1"/>
        <pt x="561" y="0" on="1"/>
        <pt x="406" y="0" on="1"/>
        <pt x="406" y="358" on="1"/>
        <pt x="406" y="432" on="0"/>
        <pt x="378" y="468" on="0"/>
        <pt x="356" y="468" on="1"/>
        <pt x="317" y="468" on="0"/>
        <pt x="229" y="432" on="1"/>
        <pt x="229" y="0" on="1"/>
      </contour>
    </TTGlyph>
    <TTGlyph name="hbar" xMin="-6" yMin="0" xMax="566" yMax="761">
      <contour>
        <pt x="-6" y="633" on="1"/>
        <pt x="-6" y="731" on="1"/>
        <pt x="75" y="731" on="1"/>
        <pt x="75" y="761" on="1"/>
        <pt x="232" y="761" on="1"/>
        <pt x="232" y="731" on="1"/>
        <pt x="422" y="731" on="1"/>
        <pt x="422" y="633" on="1"/>
        <pt x="232" y="633" on="1"/>
        <pt x="232" y="551" on="1"/>
        <pt x="336" y="603" on="0"/>
        <pt x="413" y="603" on="1"/>
        <pt x="503" y="603" on="0"/>
        <pt x="536" y="540" on="1"/>
        <pt x="566" y="485" on="0"/>
        <pt x="566" y="385" on="1"/>
        <pt x="566" y="0" on="1"/>
        <pt x="417" y="0" on="1"/>
        <pt x="417" y="358" on="1"/>
        <pt x="417" y="430" on="0"/>
        <pt x="400" y="453" on="1"/>
        <pt x="388" y="468" on="0"/>
        <pt x="365" y="468" on="1"/>
        <pt x="324" y="468" on="0"/>
        <pt x="232" y="432" on="1"/>
        <pt x="232" y="0" on="1"/>
        <pt x="75" y="0" on="1"/>
        <pt x="75" y="633" on="1"/>
      </contour>
    </TTGlyph>
    <TTGlyph name="hyphen" xMin="24" yMin="261" xMax="282" yMax="393">
      <contour>
        <pt x="24" y="261" on="1"/>
        <pt x="24" y="393" on="1"/>
        <pt x="282" y="393" on="1"/>
        <pt x="282" y="261" on="1"/>
      </contour>
    </TTGlyph>
    <TTGlyph name="i" xMin="74" yMin="0" xMax="249" yMax="761">
      <contour>
        <pt x="239" y="0" on="1"/>
        <pt x="84" y="0" on="1"/>
        <pt x="84" y="588" on="1"/>
        <pt x="239" y="588" on="1"/>
      </contour>
      <contour>
        <pt x="249" y="657" on="1"/>
        <pt x="74" y="657" on="1"/>
        <pt x="74" y="761" on="1"/>
        <pt x="249" y="761" on="1"/>
      </contour>
    </TTGlyph>
    <TTGlyph name="iacute" xMin="22" yMin="0" xMax="326" yMax="816">
      <contour>
        <pt x="295" y="816" on="1"/>
        <pt x="326" y="704" on="1"/>
        <pt x="44" y="646" on="1"/>
        <pt x="22" y="729" on="1"/>
      </contour>
      <contour>
        <pt x="239" y="0" on="1"/>
        <pt x="84" y="0" on="1"/>
        <pt x="84" y="588" on="1"/>
        <pt x="239" y="588" on="1"/>
      </contour>
    </TTGlyph>
    <TTGlyph name="icircumflex" xMin="-22" yMin="0" xMax="345" yMax="807">
      <contour>
        <pt x="345" y="706" on="1"/>
        <pt x="312" y="644" on="1"/>
        <pt x="165" y="705" on="1"/>
        <pt x="158" y="705" on="1"/>
        <pt x="11" y="644" on="1"/>
        <pt x="-22" y="706" on="1"/>
        <pt x="125" y="807" on="1"/>
        <pt x="198" y="807" on="1"/>
      </contour>
      <contour>
        <pt x="239" y="0" on="1"/>
        <pt x="84" y="0" on="1"/>
        <pt x="84" y="588" on="1"/>
        <pt x="239" y="588" on="1"/>
      </contour>
    </TTGlyph>
    <TTGlyph name="idieresis" xMin="-15" yMin="0" xMax="337" yMax="776">
      <contour>
        <pt x="132" y="668" on="1"/>
        <pt x="-15" y="668" on="1"/>
        <pt x="-15" y="776" on="1"/>
        <pt x="132" y="776" on="1"/>
      </contour>
      <contour>
        <pt x="337" y="668" on="1"/>
        <pt x="190" y="668" on="1"/>
        <pt x="190" y="776" on="1"/>
        <pt x="337" y="776" on="1"/>
      </contour>
      <contour>
        <pt x="239" y="0" on="1"/>
        <pt x="84" y="0" on="1"/>
        <pt x="84" y="588" on="1"/>
        <pt x="239" y="588" on="1"/>
      </contour>
    </TTGlyph>
    <TTGlyph name="igrave" xMin="-14" yMin="0" xMax="290" yMax="811">
      <contour>
        <pt x="-14" y="703" on="1"/>
        <pt x="12" y="811" on="1"/>
        <pt x="290" y="729" on="1"/>
        <pt x="271" y="646" on="1"/>
      </contour>
      <contour>
        <pt x="239" y="0" on="1"/>
        <pt x="84" y="0" on="1"/>
        <pt x="84" y="588" on="1"/>
        <pt x="239" y="588" on="1"/>
      </contour>
    </TTGlyph>
    <TTGlyph name="ij" xMin="74" yMin="-179" xMax="581" yMax="761">
      <contour>
        <pt x="241" y="0" on="1"/>
        <pt x="86" y="0" on="1"/>
        <pt x="86" y="588" on="1"/>
        <pt x="241" y="588" on="1"/>
      </contour>
      <contour>
        <pt x="571" y="582" on="1"/>
        <pt x="571" y="69" on="1"/>
        <pt x="571" y="-63" on="0"/>
        <pt x="462" y="-179" on="0"/>
        <pt x="371" y="-179" on="1"/>
        <pt x="271" y="-169" on="1"/>
        <pt x="287" y="-43" on="1"/>
        <pt x="341" y="-51" on="0"/>
        <pt x="401" y="-51" on="0"/>
        <pt x="416" y="-10" on="0"/>
        <pt x="416" y="70" on="1"/>
        <pt x="416" y="582" on="1"/>
      </contour>
      <contour>
        <pt x="249" y="657" on="1"/>
        <pt x="74" y="657" on="1"/>
        <pt x="74" y="761" on="1"/>
        <pt x="249" y="761" on="1"/>
      </contour>
      <contour>
        <pt x="581" y="657" on="1"/>
        <pt x="406" y="657" on="1"/>
        <pt x="406" y="761" on="1"/>
        <pt x="581" y="761" on="1"/>
      </contour>
    </TTGlyph>
    <TTGlyph name="itilde" xMin="-17" yMin="0" xMax="340" yMax="798">
      <contour>
        <pt x="80" y="798" on="1"/>
        <pt x="108" y="798" on="0"/>
        <pt x="223" y="755" on="0"/>
        <pt x="232" y="755" on="1"/>
        <pt x="249" y="755" on="0"/>
        <pt x="261" y="785" on="1"/>
        <pt x="265" y="795" on="1"/>
        <pt x="340" y="783" on="1"/>
        <pt x="337" y="656" on="0"/>
        <pt x="245" y="656" on="1"/>
        <pt x="218" y="656" on="0"/>
        <pt x="102" y="701" on="0"/>
        <pt x="93" y="701" on="1"/>
        <pt x="77" y="701" on="0"/>
        <pt x="64" y="670" on="1"/>
        <pt x="59" y="660" on="1"/>
        <pt x="-17" y="670" on="1"/>
        <pt x="-14" y="798" on="0"/>
      </contour>
      <contour>
        <pt x="239" y="0" on="1"/>
        <pt x="84" y="0" on="1"/>
        <pt x="84" y="588" on="1"/>
        <pt x="239" y="588" on="1"/>
      </contour>
    </TTGlyph>
    <TTGlyph name="j" xMin="-38" yMin="-179" xMax="272" yMax="761">
      <contour>
        <pt x="262" y="588" on="1"/>
        <pt x="262" y="69" on="1"/>
        <pt x="262" y="-61" on="0"/>
        <pt x="153" y="-179" on="0"/>
        <pt x="69" y="-179" on="1"/>
        <pt x="32" y="-179" on="0"/>
        <pt x="-38" y="-169" on="1"/>
        <pt x="-22" y="-43" on="1"/>
        <pt x="32" y="-51" on="0"/>
        <pt x="92" y="-51" on="0"/>
        <pt x="107" y="-10" on="0"/>
        <pt x="107" y="70" on="1"/>
        <pt x="107" y="588" on="1"/>
      </contour>
      <contour>
        <pt x="272" y="657" on="1"/>
        <pt x="97" y="657" on="1"/>
        <pt x="97" y="761" on="1"/>
        <pt x="272" y="761" on="1"/>
      </contour>
    </TTGlyph>
    <TTGlyph name="jcircumflex" xMin="-38" yMin="-179" xMax="363" yMax="807">
      <contour>
        <pt x="363" y="706" on="1"/>
        <pt x="330" y="644" on="1"/>
        <pt x="183" y="705" on="1"/>
        <pt x="176" y="705" on="1"/>
        <pt x="29" y="644" on="1"/>
        <pt x="-4" y="706" on="1"/>
        <pt x="143" y="807" on="1"/>
        <pt x="216" y="807" on="1"/>
      </contour>
      <contour>
        <pt x="262" y="588" on="1"/>
        <pt x="262" y="69" on="1"/>
        <pt x="262" y="-61" on="0"/>
        <pt x="153" y="-179" on="0"/>
        <pt x="69" y="-179" on="1"/>
        <pt x="32" y="-179" on="0"/>
        <pt x="-38" y="-169" on="1"/>
        <pt x="-22" y="-43" on="1"/>
        <pt x="32" y="-51" on="0"/>
        <pt x="92" y="-51" on="0"/>
        <pt x="107" y="-10" on="0"/>
        <pt x="107" y="70" on="1"/>
        <pt x="107" y="588" on="1"/>
      </contour>
    </TTGlyph>
    <TTGlyph name="k" xMin="74" yMin="0" xMax="631" yMax="761">
      <contour>
        <pt x="229" y="761" on="1"/>
        <pt x="229" y="319" on="1"/>
        <pt x="420" y="588" on="1"/>
        <pt x="607" y="588" on="1"/>
        <pt x="385" y="319" on="1"/>
        <pt x="385" y="314" on="1"/>
        <pt x="631" y="0" on="1"/>
        <pt x="441" y="0" on="1"/>
        <pt x="229" y="308" on="1"/>
        <pt x="229" y="0" on="1"/>
        <pt x="74" y="0" on="1"/>
        <pt x="78" y="321" on="1"/>
        <pt x="74" y="761" on="1"/>
      </contour>
    </TTGlyph>
    <TTGlyph name="kcommaaccent" xMin="68" yMin="-295" xMax="625" yMax="761">
      <contour>
        <pt x="243" y="-136" on="1"/>
        <pt x="243" y="-55" on="1"/>
        <pt x="373" y="-55" on="1"/>
        <pt x="373" y="-88" on="1"/>
        <pt x="373" y="-224" on="0"/>
        <pt x="282" y="-295" on="1"/>
        <pt x="215" y="-263" on="1"/>
        <pt x="243" y="-219" on="0"/>
      </contour>
      <contour>
        <pt x="223" y="761" on="1"/>
        <pt x="223" y="319" on="1"/>
        <pt x="414" y="588" on="1"/>
        <pt x="601" y="588" on="1"/>
        <pt x="379" y="319" on="1"/>
        <pt x="379" y="314" on="1"/>
        <pt x="625" y="0" on="1"/>
        <pt x="435" y="0" on="1"/>
        <pt x="223" y="308" on="1"/>
        <pt x="223" y="0" on="1"/>
        <pt x="68" y="0" on="1"/>
        <pt x="72" y="321" on="1"/>
        <pt x="68" y="761" on="1"/>
      </contour>
    </TTGlyph>
    <TTGlyph name="kgreenlandic" xMin="79" yMin="0" xMax="636" yMax="588">
      <contour>
        <pt x="234" y="0" on="1"/>
        <pt x="79" y="0" on="1"/>
        <pt x="83" y="321" on="1"/>
        <pt x="79" y="588" on="1"/>
        <pt x="182" y="588" on="1"/>
        <pt x="234" y="476" on="1"/>
        <pt x="234" y="319" on="1"/>
        <pt x="425" y="588" on="1"/>
        <pt x="612" y="588" on="1"/>
        <pt x="390" y="319" on="1"/>
        <pt x="390" y="314" on="1"/>
        <pt x="636" y="0" on="1"/>
        <pt x="446" y="0" on="1"/>
        <pt x="234" y="308" on="1"/>
      </contour>
    </TTGlyph>
    <TTGlyph name="l" xMin="74" yMin="0" xMax="229" yMax="761">
      <contour>
        <pt x="229" y="0" on="1"/>
        <pt x="74" y="0" on="1"/>
        <pt x="74" y="761" on="1"/>
        <pt x="229" y="761" on="1"/>
      </contour>
    </TTGlyph>
    <TTGlyph name="ldot" xMin="68" yMin="0" xMax="468" yMax="761">
      <contour>
        <pt x="223" y="0" on="1"/>
        <pt x="68" y="0" on="1"/>
        <pt x="68" y="761" on="1"/>
        <pt x="223" y="761" on="1"/>
      </contour>
      <contour>
        <pt x="305" y="340" on="1"/>
        <pt x="305" y="484" on="1"/>
        <pt x="468" y="484" on="1"/>
        <pt x="468" y="340" on="1"/>
      </contour>
    </TTGlyph>
    <TTGlyph name="less" xMin="53" yMin="4" xMax="636" yMax="588">
      <contour>
        <pt x="53" y="349" on="1"/>
        <pt x="636" y="588" on="1"/>
        <pt x="636" y="442" on="1"/>
        <pt x="270" y="299" on="1"/>
        <pt x="270" y="293" on="1"/>
        <pt x="636" y="150" on="1"/>
        <pt x="636" y="4" on="1"/>
        <pt x="53" y="243" on="1"/>
      </contour>
    </TTGlyph>
    <TTGlyph name="logicalnot" xMin="6" yMin="119" xMax="578" yMax="359">
      <contour>
        <pt x="578" y="119" on="1"/>
        <pt x="441" y="119" on="1"/>
        <pt x="441" y="226" on="1"/>
        <pt x="6" y="226" on="1"/>
        <pt x="6" y="359" on="1"/>
        <pt x="578" y="359" on="1"/>
      </contour>
    </TTGlyph>
    <TTGlyph name="lslash" xMin="7" yMin="0" xMax="358" yMax="761">
      <contour>
        <pt x="105" y="761" on="1"/>
        <pt x="260" y="761" on="1"/>
        <pt x="260" y="509" on="1"/>
        <pt x="358" y="569" on="1"/>
        <pt x="358" y="454" on="1"/>
        <pt x="260" y="395" on="1"/>
        <pt x="260" y="0" on="1"/>
        <pt x="105" y="0" on="1"/>
        <pt x="105" y="302" on="1"/>
        <pt x="7" y="243" on="1"/>
        <pt x="7" y="357" on="1"/>
        <pt x="105" y="416" on="1"/>
      </contour>
    </TTGlyph>
    <TTGlyph name="m" xMin="79" yMin="0" xMax="890" yMax="603">
      <contour>
        <pt x="234" y="0" on="1"/>
        <pt x="79" y="0" on="1"/>
        <pt x="79" y="588" on="1"/>
        <pt x="178" y="588" on="1"/>
        <pt x="196" y="529" on="1"/>
        <pt x="202" y="529" on="1"/>
        <pt x="239" y="551" on="0"/>
        <pt x="281" y="574" on="0"/>
        <pt x="367" y="603" on="0"/>
        <pt x="405" y="603" on="1"/>
        <pt x="496" y="603" on="0"/>
        <pt x="534" y="527" on="1"/>
        <pt x="570" y="550" on="0"/>
        <pt x="616" y="576" on="0"/>
        <pt x="696" y="603" on="0"/>
        <pt x="733" y="603" on="1"/>
        <pt x="819" y="603" on="0"/>
        <pt x="890" y="488" on="0"/>
        <pt x="890" y="385" on="1"/>
        <pt x="890" y="0" on="1"/>
        <pt x="733" y="0" on="1"/>
        <pt x="733" y="358" on="1"/>
        <pt x="733" y="435" on="0"/>
        <pt x="706" y="468" on="0"/>
        <pt x="677" y="468" on="1"/>
        <pt x="622" y="468" on="0"/>
        <pt x="559" y="425" on="1"/>
        <pt x="561" y="393" on="0"/>
        <pt x="561" y="375" on="1"/>
        <pt x="561" y="0" on="1"/>
        <pt x="406" y="0" on="1"/>
        <pt x="406" y="358" on="1"/>
        <pt x="406" y="436" on="0"/>
        <pt x="380" y="468" on="0"/>
        <pt x="326" y="468" on="0"/>
        <pt x="258" y="443" on="0"/>
        <pt x="234" y="426" on="1"/>
      </contour>
    </TTGlyph>
    <TTGlyph name="macron" xMin="123" yMin="665" xMax="479" yMax="761">
      <contour>
        <pt x="123" y="665" on="1"/>
        <pt x="123" y="761" on="1"/>
        <pt x="479" y="761" on="1"/>
        <pt x="479" y="665" on="1"/>
      </contour>
    </TTGlyph>
    <TTGlyph name="mu" xMin="66" yMin="-166" xMax="553" yMax="588">
      <contour>
        <pt x="347" y="14" on="0"/>
        <pt x="270" y="-13" on="0"/>
        <pt x="219" y="-13" on="0"/>
        <pt x="195" y="-5" on="1"/>
        <pt x="190" y="-9" on="1"/>
        <pt x="202" y="-166" on="1"/>
        <pt x="66" y="-166" on="1"/>
        <pt x="66" y="588" on="1"/>
        <pt x="221" y="588" on="1"/>
        <pt x="221" y="242" on="1"/>
        <pt x="221" y="146" on="0"/>
        <pt x="248" y="122" on="0"/>
        <pt x="276" y="122" on="1"/>
        <pt x="337" y="122" on="0"/>
        <pt x="398" y="164" on="1"/>
        <pt x="398" y="588" on="1"/>
        <pt x="553" y="588" on="1"/>
        <pt x="553" y="0" on="1"/>
        <pt x="454" y="0" on="1"/>
        <pt x="435" y="61" on="1"/>
        <pt x="429" y="61" on="1"/>
        <pt x="389" y="38" on="0"/>
      </contour>
    </TTGlyph>
    <TTGlyph name="multiply" xMin="32" yMin="29" xMax="559" yMax="555">
      <contour>
        <pt x="556" y="122" on="1"/>
        <pt x="463" y="30" on="1"/>
        <pt x="295" y="198" on="1"/>
        <pt x="126" y="29" on="1"/>
        <pt x="33" y="122" on="1"/>
        <pt x="202" y="291" on="1"/>
        <pt x="32" y="460" on="1"/>
        <pt x="125" y="553" on="1"/>
        <pt x="295" y="383" on="1"/>
        <pt x="466" y="555" on="1"/>
        <pt x="559" y="462" on="1"/>
        <pt x="387" y="291" on="1"/>
      </contour>
    </TTGlyph>
    <TTGlyph name="n" xMin="79" yMin="0" xMax="566" yMax="601">
      <contour>
        <pt x="234" y="0" on="1"/>
        <pt x="79" y="0" on="1"/>
        <pt x="79" y="588" on="1"/>
        <pt x="178" y="588" on="1"/>
        <pt x="196" y="529" on="1"/>
        <pt x="202" y="529" on="1"/>
        <pt x="324" y="601" on="0"/>
        <pt x="502" y="601" on="0"/>
        <pt x="566" y="489" on="0"/>
        <pt x="566" y="385" on="1"/>
        <pt x="566" y="0" on="1"/>
        <pt x="411" y="0" on="1"/>
        <pt x="411" y="356" on="1"/>
        <pt x="411" y="434" on="0"/>
        <pt x="385" y="466" on="0"/>
        <pt x="357" y="466" on="1"/>
        <pt x="295" y="466" on="0"/>
        <pt x="234" y="424" on="1"/>
      </contour>
    </TTGlyph>
    <TTGlyph name="nacute" xMin="79" yMin="0" xMax="566" yMax="816">
      <contour>
        <pt x="234" y="0" on="1"/>
        <pt x="79" y="0" on="1"/>
        <pt x="79" y="588" on="1"/>
        <pt x="178" y="588" on="1"/>
        <pt x="196" y="529" on="1"/>
        <pt x="202" y="529" on="1"/>
        <pt x="324" y="601" on="0"/>
        <pt x="502" y="601" on="0"/>
        <pt x="566" y="489" on="0"/>
        <pt x="566" y="385" on="1"/>
        <pt x="566" y="0" on="1"/>
        <pt x="411" y="0" on="1"/>
        <pt x="411" y="356" on="1"/>
        <pt x="411" y="434" on="0"/>
        <pt x="385" y="466" on="0"/>
        <pt x="357" y="466" on="1"/>
        <pt x="295" y="466" on="0"/>
        <pt x="234" y="424" on="1"/>
      </contour>
      <contour>
        <pt x="490" y="816" on="1"/>
        <pt x="521" y="704" on="1"/>
        <pt x="219" y="646" on="1"/>
        <pt x="197" y="729" on="1"/>
      </contour>
    </TTGlyph>
    <TTGlyph name="nine" xMin="38" yMin="-13" xMax="552" yMax="716">
      <contour>
        <pt x="286" y="258" on="1"/>
        <pt x="170" y="258" on="0"/>
        <pt x="38" y="367" on="0"/>
        <pt x="38" y="591" on="0"/>
        <pt x="170" y="716" on="0"/>
        <pt x="416" y="716" on="0"/>
        <pt x="552" y="553" on="0"/>
        <pt x="552" y="175" on="0"/>
        <pt x="425" y="-13" on="0"/>
        <pt x="282" y="-13" on="1"/>
        <pt x="234" y="-13" on="0"/>
        <pt x="119" y="20" on="0"/>
        <pt x="86" y="36" on="1"/>
        <pt x="53" y="52" on="1"/>
        <pt x="96" y="169" on="1"/>
        <pt x="216" y="121" on="0"/>
        <pt x="335" y="121" on="0"/>
        <pt x="353" y="136" on="1"/>
        <pt x="383" y="161" on="0"/>
        <pt x="389" y="266" on="1"/>
        <pt x="331" y="258" on="0"/>
      </contour>
      <contour>
        <pt x="354" y="572" on="1"/>
        <pt x="334" y="585" on="0"/>
        <pt x="229" y="585" on="0"/>
        <pt x="193" y="536" on="0"/>
        <pt x="193" y="432" on="0"/>
        <pt x="226" y="390" on="0"/>
        <pt x="282" y="390" on="1"/>
        <pt x="322" y="390" on="0"/>
        <pt x="390" y="404" on="1"/>
        <pt x="389" y="549" on="0"/>
      </contour>
    </TTGlyph>
    <TTGlyph name="ntilde" xMin="79" yMin="0" xMax="566" yMax="788">
      <contour>
        <pt x="234" y="0" on="1"/>
        <pt x="79" y="0" on="1"/>
        <pt x="79" y="588" on="1"/>
        <pt x="178" y="588" on="1"/>
        <pt x="196" y="529" on="1"/>
        <pt x="202" y="529" on="1"/>
        <pt x="324" y="601" on="0"/>
        <pt x="502" y="601" on="0"/>
        <pt x="566" y="489" on="0"/>
        <pt x="566" y="385" on="1"/>
        <pt x="566" y="0" on="1"/>
        <pt x="411" y="0" on="1"/>
        <pt x="411" y="356" on="1"/>
        <pt x="411" y="434" on="0"/>
        <pt x="385" y="466" on="0"/>
        <pt x="357" y="466" on="1"/>
        <pt x="295" y="466" on="0"/>
        <pt x="234" y="424" on="1"/>
      </contour>
      <contour>
        <pt x="224" y="788" on="1"/>
        <pt x="258" y="788" on="0"/>
        <pt x="418" y="745" on="0"/>
        <pt x="435" y="745" on="0"/>
        <pt x="451" y="765" on="0"/>
        <pt x="459" y="785" on="1"/>
        <pt x="534" y="773" on="1"/>
        <pt x="531" y="646" on="0"/>
        <pt x="439" y="646" on="1"/>
        <pt x="406" y="646" on="0"/>
        <pt x="244" y="691" on="0"/>
        <pt x="236" y="691" on="1"/>
        <pt x="221" y="691" on="0"/>
        <pt x="208" y="660" on="1"/>
        <pt x="203" y="650" on="1"/>
        <pt x="127" y="660" on="1"/>
        <pt x="130" y="788" on="0"/>
      </contour>
    </TTGlyph>
    <TTGlyph name="numbersign" xMin="3" yMin="0" xMax="577" yMax="695">
      <contour>
        <pt x="3" y="164" on="1"/>
        <pt x="3" y="296" on="1"/>
        <pt x="102" y="296" on="1"/>
        <pt x="118" y="400" on="1"/>
        <pt x="38" y="400" on="1"/>
        <pt x="38" y="532" on="1"/>
        <pt x="138" y="532" on="1"/>
        <pt x="164" y="695" on="1"/>
        <pt x="294" y="695" on="1"/>
        <pt x="268" y="532" on="1"/>
        <pt x="368" y="532" on="1"/>
        <pt x="394" y="695" on="1"/>
        <pt x="524" y="695" on="1"/>
        <pt x="498" y="532" on="1"/>
        <pt x="577" y="532" on="1"/>
        <pt x="577" y="400" on="1"/>
        <pt x="478" y="400" on="1"/>
        <pt x="461" y="296" on="1"/>
        <pt x="542" y="296" on="1"/>
        <pt x="542" y="164" on="1"/>
        <pt x="440" y="164" on="1"/>
        <pt x="415" y="0" on="1"/>
        <pt x="286" y="0" on="1"/>
        <pt x="311" y="164" on="1"/>
        <pt x="210" y="164" on="1"/>
        <pt x="185" y="0" on="1"/>
        <pt x="56" y="0" on="1"/>
        <pt x="81" y="164" on="1"/>
      </contour>
      <contour>
        <pt x="248" y="400" on="1"/>
        <pt x="231" y="296" on="1"/>
        <pt x="332" y="296" on="1"/>
        <pt x="348" y="400" on="1"/>
      </contour>
    </TTGlyph>
    <TTGlyph name="o" xMin="48" yMin="-13" xMax="564" yMax="601">
      <contour>
        <pt x="167" y="601" on="0"/>
        <pt x="447" y="601" on="0"/>
        <pt x="564" y="445" on="0"/>
        <pt x="564" y="143" on="0"/>
        <pt x="447" y="-13" on="0"/>
        <pt x="167" y="-13" on="0"/>
        <pt x="48" y="144" on="0"/>
        <pt x="48" y="444" on="0"/>
      </contour>
      <contour>
        <pt x="406" y="408" on="0"/>
        <pt x="365" y="483" on="0"/>
        <pt x="248" y="483" on="0"/>
        <pt x="206" y="407" on="0"/>
        <pt x="206" y="181" on="0"/>
        <pt x="248" y="105" on="0"/>
        <pt x="365" y="105" on="0"/>
        <pt x="406" y="180" on="0"/>
      </contour>
    </TTGlyph>
    <TTGlyph name="oacute" xMin="48" yMin="-13" xMax="564" yMax="816">
      <contour>
        <pt x="167" y="601" on="0"/>
        <pt x="447" y="601" on="0"/>
        <pt x="564" y="445" on="0"/>
        <pt x="564" y="143" on="0"/>
        <pt x="447" y="-13" on="0"/>
        <pt x="167" y="-13" on="0"/>
        <pt x="48" y="144" on="0"/>
        <pt x="48" y="444" on="0"/>
      </contour>
      <contour>
        <pt x="406" y="408" on="0"/>
        <pt x="365" y="483" on="0"/>
        <pt x="248" y="483" on="0"/>
        <pt x="206" y="407" on="0"/>
        <pt x="206" y="181" on="0"/>
        <pt x="248" y="105" on="0"/>
        <pt x="365" y="105" on="0"/>
        <pt x="406" y="180" on="0"/>
      </contour>
      <contour>
        <pt x="442" y="816" on="1"/>
        <pt x="473" y="704" on="1"/>
        <pt x="171" y="646" on="1"/>
        <pt x="149" y="729" on="1"/>
      </contour>
    </TTGlyph>
    <TTGlyph name="ocircumflex" xMin="48" yMin="-13" xMax="564" yMax="807">
      <contour>
        <pt x="167" y="601" on="0"/>
        <pt x="447" y="601" on="0"/>
        <pt x="564" y="445" on="0"/>
        <pt x="564" y="143" on="0"/>
        <pt x="447" y="-13" on="0"/>
        <pt x="167" y="-13" on="0"/>
        <pt x="48" y="144" on="0"/>
        <pt x="48" y="444" on="0"/>
      </contour>
      <contour>
        <pt x="406" y="408" on="0"/>
        <pt x="365" y="483" on="0"/>
        <pt x="248" y="483" on="0"/>
        <pt x="206" y="407" on="0"/>
        <pt x="206" y="181" on="0"/>
        <pt x="248" y="105" on="0"/>
        <pt x="365" y="105" on="0"/>
        <pt x="406" y="180" on="0"/>
      </contour>
      <contour>
        <pt x="512" y="702" on="1"/>
        <pt x="479" y="641" on="1"/>
        <pt x="312" y="705" on="1"/>
        <pt x="305" y="705" on="1"/>
        <pt x="138" y="641" on="1"/>
        <pt x="105" y="702" on="1"/>
        <pt x="272" y="807" on="1"/>
        <pt x="345" y="807" on="1"/>
      </contour>
    </TTGlyph>
    <TTGlyph name="odieresis" xMin="48" yMin="-13" xMax="564" yMax="776">
      <contour>
        <pt x="167" y="601" on="0"/>
        <pt x="447" y="601" on="0"/>
        <pt x="564" y="445" on="0"/>
        <pt x="564" y="143" on="0"/>
        <pt x="447" y="-13" on="0"/>
        <pt x="167" y="-13" on="0"/>
        <pt x="48" y="144" on="0"/>
        <pt x="48" y="444" on="0"/>
      </contour>
      <contour>
        <pt x="406" y="408" on="0"/>
        <pt x="365" y="483" on="0"/>
        <pt x="248" y="483" on="0"/>
        <pt x="206" y="407" on="0"/>
        <pt x="206" y="181" on="0"/>
        <pt x="248" y="105" on="0"/>
        <pt x="365" y="105" on="0"/>
        <pt x="406" y="180" on="0"/>
      </contour>
      <contour>
        <pt x="259" y="668" on="1"/>
        <pt x="112" y="668" on="1"/>
        <pt x="112" y="776" on="1"/>
        <pt x="259" y="776" on="1"/>
      </contour>
      <contour>
        <pt x="504" y="668" on="1"/>
        <pt x="357" y="668" on="1"/>
        <pt x="357" y="776" on="1"/>
        <pt x="504" y="776" on="1"/>
      </contour>
    </TTGlyph>
    <TTGlyph name="oe" xMin="48" yMin="-13" xMax="923" yMax="601">
      <contour>
        <pt x="682" y="-13" on="1"/>
        <pt x="560" y="-13" on="0"/>
        <pt x="493" y="50" on="1"/>
        <pt x="489" y="50" on="1"/>
        <pt x="428" y="-13" on="0"/>
        <pt x="307" y="-13" on="1"/>
        <pt x="167" y="-13" on="0"/>
        <pt x="48" y="144" on="0"/>
        <pt x="48" y="444" on="0"/>
        <pt x="167" y="601" on="0"/>
        <pt x="307" y="601" on="1"/>
        <pt x="426" y="601" on="0"/>
        <pt x="489" y="538" on="1"/>
        <pt x="493" y="538" on="1"/>
        <pt x="560" y="601" on="0"/>
        <pt x="801" y="601" on="0"/>
        <pt x="923" y="472" on="0"/>
        <pt x="923" y="323" on="1"/>
        <pt x="923" y="240" on="1"/>
        <pt x="571" y="240" on="1"/>
        <pt x="571" y="236" on="1"/>
        <pt x="574" y="153" on="0"/>
        <pt x="602" y="129" on="1"/>
        <pt x="623" y="110" on="0"/>
        <pt x="661" y="110" on="1"/>
        <pt x="731" y="110" on="0"/>
        <pt x="839" y="142" on="1"/>
        <pt x="874" y="153" on="1"/>
        <pt x="912" y="41" on="1"/>
        <pt x="867" y="20" on="0"/>
        <pt x="733" y="-13" on="0"/>
      </contour>
      <contour>
        <pt x="406" y="408" on="0"/>
        <pt x="365" y="483" on="0"/>
        <pt x="248" y="483" on="0"/>
        <pt x="206" y="407" on="0"/>
        <pt x="206" y="181" on="0"/>
        <pt x="248" y="105" on="0"/>
        <pt x="365" y="105" on="0"/>
        <pt x="406" y="180" on="0"/>
      </contour>
      <contour>
        <pt x="747" y="457" on="1"/>
        <pt x="729" y="479" on="0"/>
        <pt x="621" y="479" on="0"/>
        <pt x="575" y="427" on="0"/>
        <pt x="572" y="352" on="1"/>
        <pt x="765" y="356" on="1"/>
        <pt x="763" y="435" on="0"/>
      </contour>
    </TTGlyph>
    <TTGlyph name="ograve" xMin="48" yMin="-13" xMax="564" yMax="812">
      <contour>
        <pt x="167" y="601" on="0"/>
        <pt x="447" y="601" on="0"/>
        <pt x="564" y="445" on="0"/>
        <pt x="564" y="143" on="0"/>
        <pt x="447" y="-13" on="0"/>
        <pt x="167" y="-13" on="0"/>
        <pt x="48" y="144" on="0"/>
        <pt x="48" y="444" on="0"/>
      </contour>
      <contour>
        <pt x="406" y="408" on="0"/>
        <pt x="365" y="483" on="0"/>
        <pt x="248" y="483" on="0"/>
        <pt x="206" y="407" on="0"/>
        <pt x="206" y="181" on="0"/>
        <pt x="248" y="105" on="0"/>
        <pt x="365" y="105" on="0"/>
        <pt x="406" y="180" on="0"/>
      </contour>
      <contour>
        <pt x="140" y="704" on="1"/>
        <pt x="166" y="812" on="1"/>
        <pt x="464" y="729" on="1"/>
        <pt x="445" y="646" on="1"/>
      </contour>
    </TTGlyph>
    <TTGlyph name="one" xMin="21" yMin="0" xMax="545" yMax="711">
      <contour>
        <pt x="63" y="0" on="1"/>
        <pt x="63" y="134" on="1"/>
        <pt x="236" y="133" on="1"/>
        <pt x="242" y="535" on="1"/>
        <pt x="236" y="535" on="1"/>
        <pt x="120" y="418" on="1"/>
        <pt x="21" y="521" on="1"/>
        <pt x="244" y="711" on="1"/>
        <pt x="393" y="701" on="1"/>
        <pt x="393" y="132" on="1"/>
        <pt x="545" y="134" on="1"/>
        <pt x="545" y="0" on="1"/>
      </contour>
    </TTGlyph>
    <TTGlyph name="onehalf" xMin="27" yMin="-9" xMax="975" yMax="733">
      <contour>
        <pt x="412" y="-9" on="1"/>
        <pt x="267" y="-9" on="1"/>
        <pt x="496" y="406" on="1"/>
        <pt x="654" y="733" on="1"/>
        <pt x="798" y="733" on="1"/>
        <pt x="591" y="343" on="1"/>
      </contour>
      <contour>
        <pt x="65" y="298" on="1"/>
        <pt x="65" y="404" on="1"/>
        <pt x="164" y="404" on="1"/>
        <pt x="164" y="581" on="1"/>
        <pt x="160" y="581" on="1"/>
        <pt x="86" y="527" on="1"/>
        <pt x="27" y="613" on="1"/>
        <pt x="189" y="713" on="1"/>
        <pt x="283" y="706" on="1"/>
        <pt x="283" y="404" on="1"/>
        <pt x="368" y="404" on="1"/>
        <pt x="368" y="298" on="1"/>
      </contour>
      <contour>
        <pt x="830" y="416" on="1"/>
        <pt x="885" y="416" on="0"/>
        <pt x="962" y="351" on="0"/>
        <pt x="962" y="240" on="0"/>
        <pt x="890" y="155" on="1"/>
        <pt x="842" y="102" on="1"/>
        <pt x="975" y="106" on="1"/>
        <pt x="975" y="0" on="1"/>
        <pt x="671" y="0" on="1"/>
        <pt x="671" y="78" on="1"/>
        <pt x="736" y="151" on="0"/>
        <pt x="776" y="197" on="1"/>
        <pt x="842" y="271" on="0"/>
        <pt x="842" y="293" on="1"/>
        <pt x="842" y="309" on="0"/>
        <pt x="821" y="309" on="1"/>
        <pt x="776" y="309" on="0"/>
        <pt x="698" y="265" on="1"/>
        <pt x="654" y="367" on="1"/>
        <pt x="743" y="416" on="0"/>
      </contour>
    </TTGlyph>
    <TTGlyph name="onequarter" xMin="27" yMin="-9" xMax="986" yMax="733">
      <contour>
        <pt x="415" y="-9" on="1"/>
        <pt x="270" y="-9" on="1"/>
        <pt x="499" y="406" on="1"/>
        <pt x="657" y="733" on="1"/>
        <pt x="801" y="733" on="1"/>
        <pt x="594" y="343" on="1"/>
      </contour>
      <contour>
        <pt x="628" y="75" on="1"/>
        <pt x="628" y="161" on="1"/>
        <pt x="735" y="432" on="1"/>
        <pt x="842" y="421" on="1"/>
        <pt x="748" y="178" on="1"/>
        <pt x="827" y="179" on="1"/>
        <pt x="841" y="319" on="1"/>
        <pt x="942" y="319" on="1"/>
        <pt x="942" y="179" on="1"/>
        <pt x="986" y="180" on="1"/>
        <pt x="986" y="75" on="1"/>
        <pt x="942" y="75" on="1"/>
        <pt x="942" y="0" on="1"/>
        <pt x="825" y="0" on="1"/>
        <pt x="826" y="75" on="1"/>
      </contour>
      <contour>
        <pt x="65" y="298" on="1"/>
        <pt x="65" y="404" on="1"/>
        <pt x="164" y="404" on="1"/>
        <pt x="164" y="581" on="1"/>
        <pt x="160" y="581" on="1"/>
        <pt x="86" y="527" on="1"/>
        <pt x="27" y="613" on="1"/>
        <pt x="189" y="713" on="1"/>
        <pt x="283" y="706" on="1"/>
        <pt x="283" y="404" on="1"/>
        <pt x="368" y="404" on="1"/>
        <pt x="368" y="298" on="1"/>
      </contour>
    </TTGlyph>
    <TTGlyph name="onesuperior" xMin="27" yMin="298" xMax="368" yMax="713">
      <contour>
        <pt x="65" y="298" on="1"/>
        <pt x="65" y="404" on="1"/>
        <pt x="164" y="404" on="1"/>
        <pt x="164" y="581" on="1"/>
        <pt x="160" y="581" on="1"/>
        <pt x="86" y="527" on="1"/>
        <pt x="27" y="613" on="1"/>
        <pt x="189" y="713" on="1"/>
        <pt x="283" y="706" on="1"/>
        <pt x="283" y="404" on="1"/>
        <pt x="368" y="404" on="1"/>
        <pt x="368" y="298" on="1"/>
      </contour>
    </TTGlyph>
    <TTGlyph name="ordfeminine" xMin="27" yMin="289" xMax="381" yMax="713">
      <contour>
        <pt x="192" y="555" on="1"/>
        <pt x="266" y="555" on="1"/>
        <pt x="266" y="591" on="0"/>
        <pt x="241" y="613" on="0"/>
        <pt x="206" y="613" on="1"/>
        <pt x="147" y="613" on="0"/>
        <pt x="66" y="588" on="1"/>
        <pt x="40" y="683" on="1"/>
        <pt x="139" y="713" on="0"/>
        <pt x="204" y="713" on="1"/>
        <pt x="381" y="713" on="0"/>
        <pt x="381" y="557" on="1"/>
        <pt x="381" y="298" on="1"/>
        <pt x="297" y="298" on="1"/>
        <pt x="278" y="336" on="1"/>
        <pt x="274" y="336" on="1"/>
        <pt x="201" y="289" on="0"/>
        <pt x="89" y="289" on="0"/>
        <pt x="27" y="358" on="0"/>
        <pt x="27" y="493" on="0"/>
        <pt x="116" y="555" on="0"/>
      </contour>
      <contour>
        <pt x="266" y="462" on="1"/>
        <pt x="244" y="463" on="0"/>
        <pt x="171" y="463" on="0"/>
        <pt x="143" y="449" on="0"/>
        <pt x="143" y="426" on="1"/>
        <pt x="143" y="389" on="0"/>
        <pt x="178" y="389" on="1"/>
        <pt x="216" y="389" on="0"/>
        <pt x="266" y="411" on="1"/>
      </contour>
    </TTGlyph>
    <TTGlyph name="ordmasculine" xMin="1" yMin="289" xMax="377" yMax="714">
      <contour>
        <pt x="1" y="606" on="0"/>
        <pt x="87" y="714" on="0"/>
        <pt x="292" y="714" on="0"/>
        <pt x="377" y="606" on="0"/>
        <pt x="377" y="397" on="0"/>
        <pt x="292" y="289" on="0"/>
        <pt x="87" y="289" on="0"/>
        <pt x="1" y="398" on="0"/>
      </contour>
      <contour>
        <pt x="251" y="566" on="0"/>
        <pt x="224" y="608" on="0"/>
        <pt x="154" y="608" on="0"/>
        <pt x="128" y="566" on="0"/>
        <pt x="128" y="437" on="0"/>
        <pt x="154" y="396" on="0"/>
        <pt x="223" y="396" on="0"/>
        <pt x="251" y="438" on="0"/>
      </contour>
    </TTGlyph>
    <TTGlyph name="oslash" xMin="48" yMin="-39" xMax="564" yMax="628">
      <contour>
        <pt x="307" y="601" on="1"/>
        <pt x="357" y="601" on="0"/>
        <pt x="399" y="590" on="1"/>
        <pt x="416" y="628" on="1"/>
        <pt x="520" y="628" on="1"/>
        <pt x="481" y="548" on="1"/>
        <pt x="564" y="476" on="0"/>
        <pt x="564" y="294" on="1"/>
        <pt x="564" y="143" on="0"/>
        <pt x="447" y="-13" on="0"/>
        <pt x="307" y="-13" on="1"/>
        <pt x="264" y="-13" on="0"/>
        <pt x="222" y="-3" on="1"/>
        <pt x="206" y="-39" on="1"/>
        <pt x="101" y="-39" on="1"/>
        <pt x="137" y="36" on="1"/>
        <pt x="48" y="106" on="0"/>
        <pt x="48" y="294" on="1"/>
        <pt x="48" y="444" on="0"/>
        <pt x="167" y="601" on="0"/>
      </contour>
      <contour>
        <pt x="307" y="483" on="1"/>
        <pt x="248" y="483" on="0"/>
        <pt x="206" y="407" on="0"/>
        <pt x="206" y="228" on="0"/>
        <pt x="212" y="189" on="1"/>
        <pt x="280" y="327" on="1"/>
        <pt x="348" y="477" on="1"/>
        <pt x="330" y="483" on="0"/>
      </contour>
      <contour>
        <pt x="307" y="105" on="1"/>
        <pt x="365" y="105" on="0"/>
        <pt x="406" y="180" on="0"/>
        <pt x="406" y="294" on="1"/>
        <pt x="406" y="344" on="0"/>
        <pt x="401" y="384" on="1"/>
        <pt x="359" y="296" on="1"/>
        <pt x="273" y="108" on="1"/>
        <pt x="283" y="105" on="0"/>
      </contour>
    </TTGlyph>
    <TTGlyph name="otilde" xMin="48" yMin="-13" xMax="564" yMax="798">
      <contour>
        <pt x="167" y="601" on="0"/>
        <pt x="447" y="601" on="0"/>
        <pt x="564" y="445" on="0"/>
        <pt x="564" y="143" on="0"/>
        <pt x="447" y="-13" on="0"/>
        <pt x="167" y="-13" on="0"/>
        <pt x="48" y="144" on="0"/>
        <pt x="48" y="444" on="0"/>
      </contour>
      <contour>
        <pt x="406" y="408" on="0"/>
        <pt x="365" y="483" on="0"/>
        <pt x="248" y="483" on="0"/>
        <pt x="206" y="407" on="0"/>
        <pt x="206" y="181" on="0"/>
        <pt x="248" y="105" on="0"/>
        <pt x="365" y="105" on="0"/>
        <pt x="406" y="180" on="0"/>
      </contour>
      <contour>
        <pt x="203" y="798" on="1"/>
        <pt x="237" y="798" on="0"/>
        <pt x="397" y="755" on="0"/>
        <pt x="414" y="755" on="0"/>
        <pt x="430" y="775" on="0"/>
        <pt x="438" y="795" on="1"/>
        <pt x="513" y="783" on="1"/>
        <pt x="510" y="656" on="0"/>
        <pt x="418" y="656" on="1"/>
        <pt x="384" y="656" on="0"/>
        <pt x="224" y="701" on="0"/>
        <pt x="216" y="701" on="1"/>
        <pt x="200" y="701" on="0"/>
        <pt x="186" y="670" on="1"/>
        <pt x="182" y="660" on="1"/>
        <pt x="106" y="670" on="1"/>
        <pt x="109" y="798" on="0"/>
      </contour>
    </TTGlyph>
    <TTGlyph name="p" xMin="74" yMin="-166" xMax="582" yMax="601">
      <contour>
        <pt x="229" y="-166" on="1"/>
        <pt x="74" y="-166" on="1"/>
        <pt x="74" y="588" on="1"/>
        <pt x="173" y="588" on="1"/>
        <pt x="191" y="528" on="1"/>
        <pt x="196" y="528" on="1"/>
        <pt x="300" y="601" on="0"/>
        <pt x="473" y="601" on="0"/>
        <pt x="582" y="454" on="0"/>
        <pt x="582" y="304" on="1"/>
        <pt x="582" y="95" on="0"/>
        <pt x="472" y="24" on="1"/>
        <pt x="413" y="-13" on="0"/>
        <pt x="335" y="-13" on="1"/>
        <pt x="288" y="-13" on="0"/>
        <pt x="229" y="-4" on="1"/>
      </contour>
      <contour>
        <pt x="402" y="448" on="1"/>
        <pt x="389" y="467" on="0"/>
        <pt x="362" y="467" on="1"/>
        <pt x="309" y="467" on="0"/>
        <pt x="249" y="438" on="1"/>
        <pt x="229" y="429" on="1"/>
        <pt x="229" y="127" on="1"/>
        <pt x="277" y="113" on="0"/>
        <pt x="369" y="113" on="0"/>
        <pt x="385" y="126" on="1"/>
        <pt x="421" y="149" on="0"/>
        <pt x="421" y="308" on="1"/>
        <pt x="421" y="420" on="0"/>
      </contour>
    </TTGlyph>
    <TTGlyph name="paragraph" xMin="27" yMin="-166" xMax="659" yMax="703">
      <contour>
        <pt x="659" y="-166" on="1"/>
        <pt x="504" y="-166" on="1"/>
        <pt x="504" y="570" on="1"/>
        <pt x="410" y="570" on="1"/>
        <pt x="410" y="-166" on="1"/>
        <pt x="256" y="-166" on="1"/>
        <pt x="256" y="172" on="1"/>
        <pt x="143" y="179" on="0"/>
        <pt x="27" y="302" on="0"/>
        <pt x="27" y="583" on="0"/>
        <pt x="160" y="703" on="0"/>
        <pt x="290" y="703" on="1"/>
        <pt x="659" y="703" on="1"/>
      </contour>
    </TTGlyph>
    <TTGlyph name="parenleft" xMin="47" yMin="-124" xMax="340" yMax="813">
      <contour>
        <pt x="274" y="680" on="0"/>
        <pt x="205" y="482" on="0"/>
        <pt x="205" y="207" on="0"/>
        <pt x="273" y="11" on="0"/>
        <pt x="340" y="-36" on="1"/>
        <pt x="274" y="-124" on="1"/>
        <pt x="175" y="-70" on="0"/>
        <pt x="47" y="159" on="0"/>
        <pt x="47" y="344" on="1"/>
        <pt x="47" y="688" on="0"/>
        <pt x="274" y="813" on="1"/>
        <pt x="340" y="725" on="1"/>
      </contour>
    </TTGlyph>
    <TTGlyph name="parenright" xMin="9" yMin="-124" xMax="302" yMax="813">
      <contour>
        <pt x="302" y="344" on="1"/>
        <pt x="302" y="159" on="0"/>
        <pt x="174" y="-70" on="0"/>
        <pt x="75" y="-124" on="1"/>
        <pt x="9" y="-36" on="1"/>
        <pt x="76" y="11" on="0"/>
        <pt x="144" y="207" on="0"/>
        <pt x="144" y="482" on="0"/>
        <pt x="75" y="680" on="0"/>
        <pt x="9" y="725" on="1"/>
        <pt x="75" y="813" on="1"/>
        <pt x="302" y="688" on="0"/>
      </contour>
    </TTGlyph>
    <TTGlyph name="percent" xMin="31" yMin="-13" xMax="792" yMax="733">
      <contour>
        <pt x="280" y="-9" on="1"/>
        <pt x="142" y="-9" on="1"/>
        <pt x="369" y="406" on="1"/>
        <pt x="526" y="733" on="1"/>
        <pt x="663" y="733" on="1"/>
        <pt x="458" y="343" on="1"/>
      </contour>
      <contour>
        <pt x="31" y="647" on="0"/>
        <pt x="129" y="730" on="0"/>
        <pt x="272" y="730" on="0"/>
        <pt x="371" y="647" on="0"/>
        <pt x="371" y="474" on="0"/>
        <pt x="272" y="390" on="0"/>
        <pt x="130" y="390" on="0"/>
        <pt x="31" y="474" on="0"/>
      </contour>
      <contour>
        <pt x="452" y="244" on="0"/>
        <pt x="550" y="327" on="0"/>
        <pt x="693" y="327" on="0"/>
        <pt x="792" y="244" on="0"/>
        <pt x="792" y="71" on="0"/>
        <pt x="693" y="-13" on="0"/>
        <pt x="551" y="-13" on="0"/>
        <pt x="452" y="71" on="0"/>
      </contour>
      <contour>
        <pt x="253" y="614" on="0"/>
        <pt x="149" y="614" on="0"/>
        <pt x="149" y="506" on="0"/>
        <pt x="253" y="506" on="0"/>
      </contour>
      <contour>
        <pt x="674" y="211" on="0"/>
        <pt x="570" y="211" on="0"/>
        <pt x="570" y="103" on="0"/>
        <pt x="674" y="103" on="0"/>
      </contour>
    </TTGlyph>
    <TTGlyph name="period" xMin="54" yMin="0" xMax="229" yMax="137">
      <contour>
        <pt x="54" y="0" on="1"/>
        <pt x="54" y="137" on="1"/>
        <pt x="229" y="137" on="1"/>
        <pt x="229" y="0" on="1"/>
      </contour>
    </TTGlyph>
    <TTGlyph name="periodcentered" xMin="75" yMin="230" xMax="278" yMax="431">
      <contour>
        <pt x="134" y="431" on="0"/>
        <pt x="220" y="431" on="0"/>
        <pt x="278" y="384" on="0"/>
        <pt x="278" y="280" on="0"/>
        <pt x="219" y="230" on="0"/>
        <pt x="135" y="230" on="0"/>
        <pt x="75" y="280" on="0"/>
        <pt x="75" y="384" on="0"/>
      </contour>
    </TTGlyph>
    <TTGlyph name="plus" xMin="30" yMin="4" xMax="600" yMax="578">
      <contour>
        <pt x="30" y="227" on="1"/>
        <pt x="30" y="359" on="1"/>
        <pt x="247" y="359" on="1"/>
        <pt x="247" y="578" on="1"/>
        <pt x="381" y="578" on="1"/>
        <pt x="381" y="359" on="1"/>
        <pt x="600" y="359" on="1"/>
        <pt x="600" y="227" on="1"/>
        <pt x="381" y="227" on="1"/>
        <pt x="381" y="4" on="1"/>
        <pt x="247" y="4" on="1"/>
        <pt x="247" y="227" on="1"/>
      </contour>
    </TTGlyph>
    <TTGlyph name="plusminus" xMin="30" yMin="0" xMax="564" yMax="588">
      <contour>
        <pt x="30" y="132" on="1"/>
        <pt x="564" y="132" on="1"/>
        <pt x="564" y="0" on="1"/>
        <pt x="30" y="0" on="1"/>
      </contour>
      <contour>
        <pt x="364" y="186" on="1"/>
        <pt x="230" y="186" on="1"/>
        <pt x="230" y="328" on="1"/>
        <pt x="30" y="328" on="1"/>
        <pt x="30" y="460" on="1"/>
        <pt x="230" y="460" on="1"/>
        <pt x="230" y="588" on="1"/>
        <pt x="364" y="588" on="1"/>
        <pt x="364" y="460" on="1"/>
        <pt x="564" y="460" on="1"/>
        <pt x="564" y="328" on="1"/>
        <pt x="364" y="328" on="1"/>
      </contour>
    </TTGlyph>
    <TTGlyph name="q" xMin="48" yMin="-166" xMax="550" yMax="601">
      <contour>
        <pt x="550" y="-166" on="1"/>
        <pt x="395" y="-166" on="1"/>
        <pt x="395" y="9" on="1"/>
        <pt x="341" y="-13" on="0"/>
        <pt x="241" y="-13" on="0"/>
        <pt x="179" y="3" on="0"/>
        <pt x="118" y="48" on="0"/>
        <pt x="96" y="82" on="1"/>
        <pt x="48" y="160" on="0"/>
        <pt x="48" y="465" on="0"/>
        <pt x="171" y="601" on="0"/>
        <pt x="297" y="601" on="1"/>
        <pt x="394" y="601" on="0"/>
        <pt x="512" y="573" on="1"/>
        <pt x="550" y="564" on="1"/>
      </contour>
      <contour>
        <pt x="235" y="129" on="1"/>
        <pt x="248" y="116" on="0"/>
        <pt x="281" y="116" on="1"/>
        <pt x="335" y="116" on="0"/>
        <pt x="395" y="131" on="1"/>
        <pt x="395" y="464" on="1"/>
        <pt x="340" y="476" on="0"/>
        <pt x="248" y="476" on="0"/>
        <pt x="232" y="460" on="1"/>
        <pt x="208" y="436" on="0"/>
        <pt x="208" y="155" on="0"/>
      </contour>
    </TTGlyph>
    <TTGlyph name="question" xMin="9" yMin="0" xMax="485" yMax="716">
      <contour>
        <pt x="121" y="203" on="1"/>
        <pt x="121" y="222" on="1"/>
        <pt x="121" y="299" on="0"/>
        <pt x="162" y="344" on="1"/>
        <pt x="184" y="368" on="0"/>
        <pt x="215" y="393" on="0"/>
        <pt x="245" y="414" on="1"/>
        <pt x="325" y="468" on="0"/>
        <pt x="325" y="519" on="1"/>
        <pt x="325" y="550" on="0"/>
        <pt x="287" y="578" on="0"/>
        <pt x="250" y="578" on="1"/>
        <pt x="185" y="578" on="0"/>
        <pt x="89" y="546" on="1"/>
        <pt x="57" y="536" on="1"/>
        <pt x="9" y="654" on="1"/>
        <pt x="50" y="678" on="0"/>
        <pt x="188" y="716" on="0"/>
        <pt x="243" y="716" on="1"/>
        <pt x="350" y="716" on="0"/>
        <pt x="485" y="605" on="0"/>
        <pt x="485" y="519" on="1"/>
        <pt x="485" y="445" on="0"/>
        <pt x="440" y="398" on="1"/>
        <pt x="400" y="357" on="0"/>
        <pt x="321" y="305" on="0"/>
        <pt x="295" y="283" on="0"/>
        <pt x="267" y="235" on="0"/>
        <pt x="264" y="203" on="1"/>
      </contour>
      <contour>
        <pt x="106" y="0" on="1"/>
        <pt x="106" y="134" on="1"/>
        <pt x="281" y="134" on="1"/>
        <pt x="281" y="0" on="1"/>
      </contour>
    </TTGlyph>
    <TTGlyph name="questiondown" xMin="8" yMin="-127" xMax="484" yMax="589">
      <contour>
        <pt x="372" y="386" on="1"/>
        <pt x="372" y="367" on="1"/>
        <pt x="372" y="288" on="0"/>
        <pt x="331" y="244" on="1"/>
        <pt x="309" y="221" on="0"/>
        <pt x="279" y="196" on="0"/>
        <pt x="248" y="175" on="1"/>
        <pt x="168" y="121" on="0"/>
        <pt x="168" y="70" on="1"/>
        <pt x="168" y="39" on="0"/>
        <pt x="206" y="11" on="0"/>
        <pt x="242" y="11" on="1"/>
        <pt x="308" y="11" on="0"/>
        <pt x="404" y="42" on="1"/>
        <pt x="436" y="53" on="1"/>
        <pt x="484" y="-65" on="1"/>
        <pt x="443" y="-89" on="0"/>
        <pt x="305" y="-127" on="0"/>
        <pt x="250" y="-127" on="1"/>
        <pt x="143" y="-127" on="0"/>
        <pt x="8" y="-16" on="0"/>
        <pt x="8" y="70" on="1"/>
        <pt x="8" y="144" on="0"/>
        <pt x="54" y="192" on="1"/>
        <pt x="93" y="232" on="0"/>
        <pt x="172" y="284" on="0"/>
        <pt x="198" y="306" on="0"/>
        <pt x="226" y="354" on="0"/>
        <pt x="229" y="386" on="1"/>
      </contour>
      <contour>
        <pt x="212" y="455" on="1"/>
        <pt x="212" y="589" on="1"/>
        <pt x="387" y="589" on="1"/>
        <pt x="387" y="455" on="1"/>
      </contour>
    </TTGlyph>
    <TTGlyph name="quotedbl" xMin="34" yMin="448" xMax="375" yMax="731">
      <contour>
        <pt x="34" y="731" on="1"/>
        <pt x="159" y="731" on="1"/>
        <pt x="159" y="680" on="1"/>
        <pt x="140" y="448" on="1"/>
        <pt x="51" y="448" on="1"/>
        <pt x="34" y="680" on="1"/>
      </contour>
      <contour>
        <pt x="250" y="731" on="1"/>
        <pt x="375" y="731" on="1"/>
        <pt x="375" y="680" on="1"/>
        <pt x="356" y="448" on="1"/>
        <pt x="267" y="448" on="1"/>
        <pt x="250" y="680" on="1"/>
      </contour>
    </TTGlyph>
    <TTGlyph name="quotedblbase" xMin="40" yMin="-171" xMax="421" yMax="132">
      <contour>
        <pt x="191" y="57" on="1"/>
        <pt x="191" y="-20" on="0"/>
        <pt x="148" y="-136" on="0"/>
        <pt x="116" y="-167" on="1"/>
        <pt x="40" y="-124" on="1"/>
        <pt x="64" y="-79" on="0"/>
        <pt x="64" y="6" on="1"/>
        <pt x="58" y="132" on="1"/>
        <pt x="186" y="132" on="1"/>
        <pt x="191" y="93" on="0"/>
      </contour>
      <contour>
        <pt x="421" y="53" on="1"/>
        <pt x="421" y="-25" on="0"/>
        <pt x="379" y="-140" on="0"/>
        <pt x="347" y="-171" on="1"/>
        <pt x="270" y="-125" on="1"/>
        <pt x="294" y="-80" on="0"/>
        <pt x="294" y="5" on="1"/>
        <pt x="289" y="132" on="1"/>
        <pt x="417" y="132" on="1"/>
        <pt x="421" y="89" on="0"/>
      </contour>
    </TTGlyph>
    <TTGlyph name="quotedblleft" xMin="37" yMin="446" xMax="418" yMax="749">
      <contour>
        <pt x="265" y="516" on="1"/>
        <pt x="265" y="646" on="0"/>
        <pt x="346" y="731" on="1"/>
        <pt x="418" y="692" on="1"/>
        <pt x="395" y="649" on="0"/>
        <pt x="395" y="564" on="1"/>
        <pt x="401" y="446" on="1"/>
        <pt x="269" y="446" on="1"/>
        <pt x="265" y="480" on="0"/>
      </contour>
      <contour>
        <pt x="37" y="521" on="1"/>
        <pt x="37" y="598" on="0"/>
        <pt x="81" y="716" on="0"/>
        <pt x="111" y="749" on="1"/>
        <pt x="191" y="707" on="1"/>
        <pt x="167" y="659" on="0"/>
        <pt x="167" y="569" on="1"/>
        <pt x="173" y="446" on="1"/>
        <pt x="42" y="446" on="1"/>
        <pt x="37" y="485" on="0"/>
      </contour>
    </TTGlyph>
    <TTGlyph name="quotedblright" xMin="38" yMin="429" xMax="419" yMax="732">
      <contour>
        <pt x="191" y="662" on="1"/>
        <pt x="191" y="532" on="0"/>
        <pt x="110" y="447" on="1"/>
        <pt x="38" y="486" on="1"/>
        <pt x="61" y="529" on="0"/>
        <pt x="61" y="614" on="1"/>
        <pt x="55" y="732" on="1"/>
        <pt x="187" y="732" on="1"/>
        <pt x="191" y="698" on="0"/>
      </contour>
      <contour>
        <pt x="419" y="657" on="1"/>
        <pt x="419" y="580" on="0"/>
        <pt x="375" y="462" on="0"/>
        <pt x="345" y="429" on="1"/>
        <pt x="265" y="471" on="1"/>
        <pt x="289" y="519" on="0"/>
        <pt x="289" y="609" on="1"/>
        <pt x="283" y="732" on="1"/>
        <pt x="414" y="732" on="1"/>
        <pt x="419" y="693" on="0"/>
      </contour>
    </TTGlyph>
    <TTGlyph name="quoteleft" xMin="44" yMin="445" xMax="198" yMax="746">
      <contour>
        <pt x="44" y="520" on="1"/>
        <pt x="44" y="663" on="0"/>
        <pt x="120" y="746" on="1"/>
        <pt x="198" y="700" on="1"/>
        <pt x="174" y="652" on="0"/>
        <pt x="174" y="568" on="1"/>
        <pt x="180" y="445" on="1"/>
        <pt x="49" y="445" on="1"/>
        <pt x="44" y="484" on="0"/>
      </contour>
    </TTGlyph>
    <TTGlyph name="quoteright" xMin="44" yMin="431" xMax="198" yMax="732">
      <contour>
        <pt x="198" y="657" on="1"/>
        <pt x="198" y="514" on="0"/>
        <pt x="122" y="431" on="1"/>
        <pt x="44" y="477" on="1"/>
        <pt x="68" y="525" on="0"/>
        <pt x="68" y="609" on="1"/>
        <pt x="62" y="732" on="1"/>
        <pt x="193" y="732" on="1"/>
        <pt x="198" y="693" on="0"/>
      </contour>
    </TTGlyph>
    <TTGlyph name="quotesinglbase" xMin="44" yMin="-167" xMax="195" yMax="132">
      <contour>
        <pt x="195" y="57" on="1"/>
        <pt x="195" y="-21" on="0"/>
        <pt x="153" y="-136" on="0"/>
        <pt x="121" y="-167" on="1"/>
        <pt x="44" y="-121" on="1"/>
        <pt x="68" y="-76" on="0"/>
        <pt x="68" y="9" on="1"/>
        <pt x="62" y="132" on="1"/>
        <pt x="190" y="132" on="1"/>
        <pt x="195" y="93" on="0"/>
      </contour>
    </TTGlyph>
    <TTGlyph name="quotesingle" xMin="44" yMin="452" xMax="169" yMax="735">
      <contour>
        <pt x="44" y="735" on="1"/>
        <pt x="169" y="735" on="1"/>
        <pt x="169" y="684" on="1"/>
        <pt x="150" y="452" on="1"/>
        <pt x="61" y="452" on="1"/>
        <pt x="44" y="684" on="1"/>
      </contour>
    </TTGlyph>
    <TTGlyph name="r" xMin="79" yMin="0" xMax="426" yMax="601">
      <contour>
        <pt x="244" y="559" on="0"/>
        <pt x="329" y="601" on="0"/>
        <pt x="404" y="601" on="0"/>
        <pt x="426" y="590" on="1"/>
        <pt x="414" y="456" on="1"/>
        <pt x="386" y="459" on="0"/>
        <pt x="359" y="459" on="1"/>
        <pt x="292" y="459" on="0"/>
        <pt x="234" y="423" on="1"/>
        <pt x="234" y="0" on="1"/>
        <pt x="79" y="0" on="1"/>
        <pt x="79" y="588" on="1"/>
        <pt x="175" y="588" on="1"/>
        <pt x="195" y="526" on="1"/>
        <pt x="201" y="526" on="1"/>
        <pt x="211" y="534" on="0"/>
      </contour>
    </TTGlyph>
    <TTGlyph name="rcaron" xMin="39" yMin="0" xMax="446" yMax="824">
      <contour>
        <pt x="39" y="763" on="1"/>
        <pt x="72" y="824" on="1"/>
        <pt x="239" y="760" on="1"/>
        <pt x="246" y="760" on="1"/>
        <pt x="413" y="824" on="1"/>
        <pt x="446" y="763" on="1"/>
        <pt x="279" y="658" on="1"/>
        <pt x="206" y="658" on="1"/>
      </contour>
      <contour>
        <pt x="244" y="559" on="0"/>
        <pt x="329" y="601" on="0"/>
        <pt x="404" y="601" on="0"/>
        <pt x="426" y="590" on="1"/>
        <pt x="414" y="456" on="1"/>
        <pt x="386" y="459" on="0"/>
        <pt x="359" y="459" on="1"/>
        <pt x="292" y="459" on="0"/>
        <pt x="234" y="423" on="1"/>
        <pt x="234" y="0" on="1"/>
        <pt x="79" y="0" on="1"/>
        <pt x="79" y="588" on="1"/>
        <pt x="175" y="588" on="1"/>
        <pt x="195" y="526" on="1"/>
        <pt x="201" y="526" on="1"/>
        <pt x="211" y="534" on="0"/>
      </contour>
    </TTGlyph>
    <TTGlyph name="rcommaaccent" xMin="62" yMin="-295" xMax="426" yMax="601">
      <contour>
        <pt x="90" y="-136" on="1"/>
        <pt x="90" y="-55" on="1"/>
        <pt x="220" y="-55" on="1"/>
        <pt x="220" y="-88" on="1"/>
        <pt x="220" y="-224" on="0"/>
        <pt x="129" y="-295" on="1"/>
        <pt x="62" y="-263" on="1"/>
        <pt x="90" y="-219" on="0"/>
      </contour>
      <contour>
        <pt x="244" y="559" on="0"/>
        <pt x="329" y="601" on="0"/>
        <pt x="404" y="601" on="0"/>
        <pt x="426" y="590" on="1"/>
        <pt x="414" y="456" on="1"/>
        <pt x="386" y="459" on="0"/>
        <pt x="359" y="459" on="1"/>
        <pt x="292" y="459" on="0"/>
        <pt x="234" y="423" on="1"/>
        <pt x="234" y="0" on="1"/>
        <pt x="79" y="0" on="1"/>
        <pt x="79" y="588" on="1"/>
        <pt x="175" y="588" on="1"/>
        <pt x="195" y="526" on="1"/>
        <pt x="201" y="526" on="1"/>
        <pt x="211" y="534" on="0"/>
      </contour>
    </TTGlyph>
    <TTGlyph name="registered" xMin="50" yMin="-49" xMax="782" yMax="689">
      <contour>
        <pt x="255" y="-49" on="0"/>
        <pt x="50" y="159" on="0"/>
        <pt x="50" y="479" on="0"/>
        <pt x="261" y="689" on="0"/>
        <pt x="575" y="689" on="0"/>
        <pt x="782" y="481" on="0"/>
        <pt x="782" y="159" on="0"/>
        <pt x="575" y="-49" on="0"/>
      </contour>
      <contour>
        <pt x="292" y="599" on="0"/>
        <pt x="142" y="448" on="0"/>
        <pt x="142" y="190" on="0"/>
        <pt x="287" y="41" on="0"/>
        <pt x="544" y="41" on="0"/>
        <pt x="690" y="191" on="0"/>
        <pt x="690" y="449" on="0"/>
        <pt x="544" y="599" on="0"/>
      </contour>
      <contour>
        <pt x="366" y="120" on="1"/>
        <pt x="248" y="120" on="1"/>
        <pt x="251" y="309" on="1"/>
        <pt x="249" y="522" on="1"/>
        <pt x="345" y="530" on="0"/>
        <pt x="419" y="530" on="1"/>
        <pt x="586" y="530" on="0"/>
        <pt x="586" y="395" on="1"/>
        <pt x="586" y="299" on="0"/>
        <pt x="513" y="265" on="1"/>
        <pt x="513" y="262" on="1"/>
        <pt x="593" y="120" on="1"/>
        <pt x="457" y="120" on="1"/>
        <pt x="409" y="253" on="1"/>
        <pt x="366" y="254" on="1"/>
      </contour>
      <contour>
        <pt x="366" y="350" on="1"/>
        <pt x="381" y="349" on="0"/>
        <pt x="445" y="349" on="0"/>
        <pt x="461" y="368" on="0"/>
        <pt x="461" y="416" on="0"/>
        <pt x="445" y="433" on="0"/>
        <pt x="394" y="433" on="0"/>
        <pt x="367" y="430" on="1"/>
      </contour>
    </TTGlyph>
    <TTGlyph name="ring" xMin="-28" yMin="637" xMax="183" yMax="830">
      <contour>
        <pt x="78" y="830" on="1"/>
        <pt x="183" y="830" on="0"/>
        <pt x="183" y="733" on="1"/>
        <pt x="183" y="681" on="0"/>
        <pt x="123" y="637" on="0"/>
        <pt x="33" y="637" on="0"/>
        <pt x="-28" y="681" on="0"/>
        <pt x="-28" y="786" on="0"/>
        <pt x="33" y="830" on="0"/>
      </contour>
      <contour>
        <pt x="101" y="771" on="0"/>
        <pt x="55" y="771" on="0"/>
        <pt x="36" y="756" on="0"/>
        <pt x="36" y="711" on="0"/>
        <pt x="56" y="694" on="0"/>
        <pt x="100" y="694" on="0"/>
        <pt x="119" y="711" on="0"/>
        <pt x="119" y="756" on="0"/>
      </contour>
    </TTGlyph>
    <TTGlyph name="ring.cap" xMin="30" yMin="733" xMax="243" yMax="922">
      <contour>
        <pt x="137" y="922" on="1"/>
        <pt x="243" y="922" on="0"/>
        <pt x="243" y="827" on="1"/>
        <pt x="243" y="777" on="0"/>
        <pt x="183" y="733" on="0"/>
        <pt x="92" y="733" on="0"/>
        <pt x="30" y="777" on="0"/>
        <pt x="30" y="878" on="0"/>
        <pt x="91" y="922" on="0"/>
      </contour>
      <contour>
        <pt x="157" y="857" on="0"/>
        <pt x="117" y="857" on="0"/>
        <pt x="101" y="845" on="0"/>
        <pt x="101" y="810" on="0"/>
        <pt x="118" y="797" on="0"/>
        <pt x="156" y="797" on="0"/>
        <pt x="172" y="810" on="0"/>
        <pt x="172" y="845" on="0"/>
      </contour>
    </TTGlyph>
    <TTGlyph name="s" xMin="42" yMin="-13" xMax="503" yMax="601">
      <contour>
        <pt x="259" y="477" on="1"/>
        <pt x="221" y="477" on="0"/>
        <pt x="198" y="458" on="0"/>
        <pt x="198" y="420" on="0"/>
        <pt x="232" y="391" on="0"/>
        <pt x="266" y="378" on="0"/>
        <pt x="311" y="365" on="0"/>
        <pt x="400" y="339" on="0"/>
        <pt x="426" y="325" on="1"/>
        <pt x="503" y="282" on="0"/>
        <pt x="503" y="93" on="0"/>
        <pt x="387" y="-13" on="0"/>
        <pt x="282" y="-13" on="1"/>
        <pt x="227" y="-13" on="0"/>
        <pt x="107" y="16" on="0"/>
        <pt x="74" y="30" on="1"/>
        <pt x="42" y="45" on="1"/>
        <pt x="80" y="167" on="1"/>
        <pt x="207" y="113" on="0"/>
        <pt x="288" y="113" on="1"/>
        <pt x="319" y="113" on="0"/>
        <pt x="349" y="135" on="0"/>
        <pt x="349" y="164" on="1"/>
        <pt x="349" y="182" on="0"/>
        <pt x="337" y="198" on="0"/>
        <pt x="329" y="207" on="0"/>
        <pt x="313" y="216" on="0"/>
        <pt x="302" y="221" on="0"/>
        <pt x="280" y="229" on="0"/>
        <pt x="268" y="233" on="0"/>
        <pt x="240" y="241" on="0"/>
        <pt x="205" y="252" on="0"/>
        <pt x="187" y="258" on="0"/>
        <pt x="134" y="278" on="0"/>
        <pt x="113" y="293" on="0"/>
        <pt x="76" y="322" on="0"/>
        <pt x="68" y="338" on="1"/>
        <pt x="47" y="382" on="0"/>
        <pt x="47" y="426" on="1"/>
        <pt x="47" y="508" on="0"/>
        <pt x="157" y="601" on="0"/>
        <pt x="376" y="601" on="0"/>
        <pt x="478" y="567" on="1"/>
        <pt x="455" y="447" on="1"/>
        <pt x="340" y="477" on="0"/>
      </contour>
    </TTGlyph>
    <TTGlyph name="section" xMin="32" yMin="-93" xMax="541" yMax="715">
      <contour>
        <pt x="457" y="439" on="0"/>
        <pt x="541" y="373" on="0"/>
        <pt x="541" y="239" on="0"/>
        <pt x="478" y="195" on="1"/>
        <pt x="507" y="158" on="0"/>
        <pt x="507" y="50" on="0"/>
        <pt x="465" y="-26" on="0"/>
        <pt x="430" y="-48" on="1"/>
        <pt x="361" y="-93" on="0"/>
        <pt x="268" y="-93" on="1"/>
        <pt x="215" y="-93" on="0"/>
        <pt x="97" y="-63" on="0"/>
        <pt x="64" y="-48" on="1"/>
        <pt x="32" y="-32" on="1"/>
        <pt x="75" y="95" on="1"/>
        <pt x="212" y="38" on="0"/>
        <pt x="296" y="38" on="1"/>
        <pt x="328" y="38" on="0"/>
        <pt x="336" y="43" on="1"/>
        <pt x="356" y="56" on="0"/>
        <pt x="356" y="80" on="1"/>
        <pt x="356" y="95" on="0"/>
        <pt x="340" y="111" on="0"/>
        <pt x="330" y="120" on="0"/>
        <pt x="309" y="129" on="0"/>
        <pt x="295" y="136" on="0"/>
        <pt x="267" y="145" on="0"/>
        <pt x="259" y="148" on="1"/>
        <pt x="223" y="159" on="0"/>
        <pt x="172" y="174" on="0"/>
        <pt x="122" y="194" on="0"/>
        <pt x="94" y="212" on="1"/>
        <pt x="39" y="250" on="0"/>
        <pt x="39" y="404" on="0"/>
        <pt x="102" y="449" on="1"/>
        <pt x="60" y="488" on="0"/>
        <pt x="60" y="548" on="1"/>
        <pt x="60" y="625" on="0"/>
        <pt x="192" y="715" on="0"/>
        <pt x="397" y="715" on="0"/>
        <pt x="480" y="685" on="1"/>
        <pt x="453" y="557" on="1"/>
        <pt x="355" y="585" on="0"/>
        <pt x="237" y="585" on="0"/>
        <pt x="211" y="568" on="0"/>
        <pt x="211" y="535" on="0"/>
        <pt x="220" y="519" on="0"/>
        <pt x="241" y="505" on="0"/>
        <pt x="262" y="494" on="0"/>
        <pt x="298" y="483" on="0"/>
        <pt x="312" y="480" on="1"/>
        <pt x="363" y="466" on="0"/>
        <pt x="383" y="460" on="1"/>
      </contour>
      <contour>
        <pt x="373" y="256" on="1"/>
        <pt x="387" y="270" on="0"/>
        <pt x="387" y="308" on="0"/>
        <pt x="352" y="330" on="0"/>
        <pt x="240" y="370" on="0"/>
        <pt x="207" y="380" on="1"/>
        <pt x="189" y="355" on="0"/>
        <pt x="189" y="322" on="0"/>
        <pt x="221" y="302" on="0"/>
        <pt x="291" y="280" on="0"/>
        <pt x="355" y="262" on="0"/>
      </contour>
    </TTGlyph>
    <TTGlyph name="semicolon" xMin="73" yMin="-175" xMax="269" yMax="562">
      <contour>
        <pt x="105" y="-1" on="1"/>
        <pt x="105" y="132" on="1"/>
        <pt x="255" y="132" on="1"/>
        <pt x="255" y="41" on="1"/>
        <pt x="255" y="-108" on="0"/>
        <pt x="163" y="-175" on="1"/>
        <pt x="73" y="-131" on="1"/>
        <pt x="105" y="-84" on="0"/>
      </contour>
      <contour>
        <pt x="94" y="425" on="1"/>
        <pt x="94" y="562" on="1"/>
        <pt x="269" y="562" on="1"/>
        <pt x="269" y="425" on="1"/>
      </contour>
    </TTGlyph>
    <TTGlyph name="seven" xMin="2" yMin="-9" xMax="510" yMax="703">
      <contour>
        <pt x="2" y="703" on="1"/>
        <pt x="510" y="703" on="1"/>
        <pt x="510" y="612" on="1"/>
        <pt x="208" y="-9" on="1"/>
        <pt x="44" y="4" on="1"/>
        <pt x="340" y="572" on="1"/>
        <pt x="340" y="578" on="1"/>
        <pt x="2" y="570" on="1"/>
      </contour>
    </TTGlyph>
    <TTGlyph name="six" xMin="38" yMin="-13" xMax="554" yMax="716">
      <contour>
        <pt x="554" y="112" on="0"/>
        <pt x="420" y="-13" on="0"/>
        <pt x="172" y="-13" on="0"/>
        <pt x="38" y="149" on="0"/>
        <pt x="38" y="335" on="1"/>
        <pt x="38" y="557" on="0"/>
        <pt x="128" y="642" on="1"/>
        <pt x="172" y="682" on="0"/>
        <pt x="274" y="716" on="0"/>
        <pt x="328" y="716" on="1"/>
        <pt x="427" y="716" on="0"/>
        <pt x="499" y="690" on="1"/>
        <pt x="524" y="681" on="1"/>
        <pt x="490" y="559" on="1"/>
        <pt x="386" y="582" on="0"/>
        <pt x="268" y="582" on="0"/>
        <pt x="245" y="562" on="1"/>
        <pt x="213" y="536" on="0"/>
        <pt x="203" y="444" on="1"/>
        <pt x="250" y="447" on="0"/>
        <pt x="276" y="447" on="1"/>
        <pt x="411" y="447" on="0"/>
        <pt x="554" y="344" on="0"/>
      </contour>
      <contour>
        <pt x="231" y="136" on="1"/>
        <pt x="253" y="118" on="0"/>
        <pt x="360" y="118" on="0"/>
        <pt x="400" y="164" on="0"/>
        <pt x="400" y="276" on="0"/>
        <pt x="358" y="316" on="0"/>
        <pt x="297" y="316" on="1"/>
        <pt x="199" y="309" on="1"/>
        <pt x="199" y="259" on="1"/>
        <pt x="199" y="159" on="0"/>
      </contour>
    </TTGlyph>
    <TTGlyph name="slash" xMin="-18" yMin="-98" xMax="490" yMax="703">
      <contour>
        <pt x="127" y="-98" on="1"/>
        <pt x="-18" y="-98" on="1"/>
        <pt x="183" y="333" on="1"/>
        <pt x="344" y="703" on="1"/>
        <pt x="490" y="703" on="1"/>
        <pt x="294" y="281" on="1"/>
      </contour>
    </TTGlyph>
    <TTGlyph name="sterling" xMin="50" yMin="0" xMax="567" yMax="716">
      <contour>
        <pt x="50" y="325" on="1"/>
        <pt x="50" y="441" on="1"/>
        <pt x="143" y="441" on="1"/>
        <pt x="153" y="597" on="0"/>
        <pt x="230" y="660" on="1"/>
        <pt x="298" y="716" on="0"/>
        <pt x="407" y="716" on="1"/>
        <pt x="479" y="716" on="0"/>
        <pt x="567" y="693" on="1"/>
        <pt x="551" y="569" on="1"/>
        <pt x="451" y="583" on="0"/>
        <pt x="345" y="583" on="0"/>
        <pt x="330" y="570" on="1"/>
        <pt x="303" y="547" on="0"/>
        <pt x="299" y="441" on="1"/>
        <pt x="485" y="441" on="1"/>
        <pt x="485" y="325" on="1"/>
        <pt x="297" y="325" on="1"/>
        <pt x="297" y="132" on="1"/>
        <pt x="551" y="134" on="1"/>
        <pt x="551" y="0" on="1"/>
        <pt x="50" y="0" on="1"/>
        <pt x="50" y="132" on="1"/>
        <pt x="142" y="132" on="1"/>
        <pt x="142" y="325" on="1"/>
      </contour>
    </TTGlyph>
    <TTGlyph name="t" xMin="23" yMin="-13" xMax="368" yMax="693">
      <contour>
        <pt x="248" y="559" on="1"/>
        <pt x="368" y="559" on="1"/>
        <pt x="368" y="440" on="1"/>
        <pt x="246" y="440" on="1"/>
        <pt x="246" y="193" on="1"/>
        <pt x="246" y="145" on="0"/>
        <pt x="264" y="119" on="0"/>
        <pt x="289" y="119" on="1"/>
        <pt x="366" y="124" on="1"/>
        <pt x="366" y="-2" on="1"/>
        <pt x="317" y="-13" on="0"/>
        <pt x="258" y="-13" on="1"/>
        <pt x="171" y="-13" on="0"/>
        <pt x="91" y="74" on="0"/>
        <pt x="91" y="197" on="1"/>
        <pt x="91" y="443" on="1"/>
        <pt x="23" y="443" on="1"/>
        <pt x="23" y="540" on="1"/>
        <pt x="98" y="554" on="1"/>
        <pt x="121" y="693" on="1"/>
        <pt x="248" y="693" on="1"/>
      </contour>
    </TTGlyph>
    <TTGlyph name="thorn" xMin="79" yMin="-166" xMax="581" yMax="761">
      <contour>
        <pt x="399" y="461" on="1"/>
        <pt x="384" y="474" on="0"/>
        <pt x="350" y="474" on="1"/>
        <pt x="288" y="474" on="0"/>
        <pt x="234" y="461" on="1"/>
        <pt x="234" y="122" on="1"/>
        <pt x="282" y="112" on="0"/>
        <pt x="372" y="112" on="0"/>
        <pt x="386" y="124" on="1"/>
        <pt x="421" y="153" on="0"/>
        <pt x="421" y="440" on="0"/>
      </contour>
      <contour>
        <pt x="79" y="-166" on="1"/>
        <pt x="79" y="761" on="1"/>
        <pt x="234" y="761" on="1"/>
        <pt x="234" y="586" on="1"/>
        <pt x="311" y="601" on="0"/>
        <pt x="357" y="601" on="1"/>
        <pt x="581" y="601" on="0"/>
        <pt x="581" y="303" on="1"/>
        <pt x="581" y="-13" on="0"/>
        <pt x="337" y="-13" on="1"/>
        <pt x="301" y="-13" on="0"/>
        <pt x="234" y="-3" on="1"/>
        <pt x="234" y="-166" on="1"/>
      </contour>
    </TTGlyph>
    <TTGlyph name="three" xMin="-6" yMin="-13" xMax="506" yMax="716">
      <contour>
        <pt x="268" y="123" on="1"/>
        <pt x="310" y="123" on="0"/>
        <pt x="343" y="159" on="0"/>
        <pt x="343" y="257" on="0"/>
        <pt x="293" y="304" on="0"/>
        <pt x="238" y="304" on="1"/>
        <pt x="106" y="304" on="1"/>
        <pt x="106" y="434" on="1"/>
        <pt x="252" y="444" on="0"/>
        <pt x="284" y="456" on="1"/>
        <pt x="323" y="476" on="0"/>
        <pt x="325" y="555" on="0"/>
        <pt x="296" y="581" on="0"/>
        <pt x="175" y="581" on="0"/>
        <pt x="49" y="566" on="1"/>
        <pt x="31" y="691" on="1"/>
        <pt x="123" y="716" on="0"/>
        <pt x="228" y="716" on="1"/>
        <pt x="484" y="716" on="0"/>
        <pt x="484" y="526" on="1"/>
        <pt x="484" y="427" on="0"/>
        <pt x="409" y="382" on="1"/>
        <pt x="409" y="376" on="1"/>
        <pt x="506" y="330" on="0"/>
        <pt x="506" y="208" on="1"/>
        <pt x="506" y="110" on="0"/>
        <pt x="384" y="-13" on="0"/>
        <pt x="254" y="-13" on="1"/>
        <pt x="193" y="-13" on="0"/>
        <pt x="63" y="22" on="0"/>
        <pt x="28" y="40" on="1"/>
        <pt x="-6" y="58" on="1"/>
        <pt x="41" y="170" on="1"/>
        <pt x="182" y="123" on="0"/>
      </contour>
    </TTGlyph>
</ttFont>
